<ttFont>
<head>
    <!-- Most of this table will be recalculated by the compiler -->
    <tableVersion value="1.0"/>
    <fontRevision value="1.0"/>
    <checkSumAdjustment value="0xc85b58d2"/>
    <magicNumber value="0x5f0f3cf5"/>
    <flags value="00000000 00001001"/>
    <unitsPerEm value="4096"/>
    <created value="Sat Jun 28 04:20:39 2003"/>
    <modified value="Wed Aug 20 06:52:21 2008"/>
    <xMin value="0"/>
    <yMin value="-1024"/>
    <xMax value="2304"/>
    <yMax value="3072"/>
    <macStyle value="00000000 00000000"/>
    <lowestRecPPEM value="0"/>
    <fontDirectionHint value="0"/>
    <indexToLocFormat value="0"/>
    <glyphDataFormat value="0"/>
  </head>
    <TTGlyph name="A" xMin="0" yMin="0" xMax="1792" yMax="2560">
      <contour>
        <pt x="1024" y="2048" on="1"/>
        <pt x="768" y="2048" on="1"/>
        <pt x="768" y="1792" on="1"/>
        <pt x="512" y="1792" on="1"/>
        <pt x="512" y="1280" on="1"/>
        <pt x="1280" y="1280" on="1"/>
        <pt x="1280" y="1792" on="1"/>
        <pt x="1024" y="1792" on="1"/>
      </contour>
      <contour>
        <pt x="1280" y="0" on="1"/>
        <pt x="1280" y="1024" on="1"/>
        <pt x="512" y="1024" on="1"/>
        <pt x="512" y="0" on="1"/>
        <pt x="0" y="0" on="1"/>
        <pt x="0" y="1792" on="1"/>
        <pt x="256" y="1792" on="1"/>
        <pt x="256" y="2048" on="1"/>
        <pt x="512" y="2048" on="1"/>
        <pt x="512" y="2304" on="1"/>
        <pt x="768" y="2304" on="1"/>
        <pt x="768" y="2560" on="1"/>
        <pt x="1024" y="2560" on="1"/>
        <pt x="1024" y="2304" on="1"/>
        <pt x="1280" y="2304" on="1"/>
        <pt x="1280" y="2048" on="1"/>
        <pt x="1536" y="2048" on="1"/>
        <pt x="1536" y="1792" on="1"/>
        <pt x="1792" y="1792" on="1"/>
        <pt x="1792" y="0" on="1"/>
      </contour>
    </TTGlyph>
    <TTGlyph name="AE" xMin="768" yMin="-1024" xMax="2304" yMax="3072">
      <contour>
        <pt x="1280" y="1280" on="1"/>
        <pt x="2304" y="1280" on="1"/>
        <pt x="2304" y="1024" on="1"/>
        <pt x="1280" y="1024" on="1"/>
        <pt x="1280" y="-1024" on="1"/>
        <pt x="768" y="-1024" on="1"/>
        <pt x="768" y="3072" on="1"/>
        <pt x="1280" y="3072" on="1"/>
        <pt x="1280" y="1792" on="1"/>
        <pt x="2304" y="1792" on="1"/>
        <pt x="2304" y="1536" on="1"/>
        <pt x="1280" y="1536" on="1"/>
      </contour>
    </TTGlyph>
    <TTGlyph name="Aacute" xMin="0" yMin="1024" xMax="2304" yMax="3072">
      <contour>
        <pt x="0" y="1280" on="1"/>
        <pt x="768" y="1280" on="1"/>
        <pt x="768" y="3072" on="1"/>
        <pt x="1280" y="3072" on="1"/>
        <pt x="1280" y="1280" on="1"/>
        <pt x="2304" y="1280" on="1"/>
        <pt x="2304" y="1024" on="1"/>
        <pt x="0" y="1024" on="1"/>
      </contour>
    </TTGlyph>
    <TTGlyph name="Acircumflex" xMin="0" yMin="-1024" xMax="2304" yMax="1280">
      <contour>
        <pt x="0" y="1280" on="1"/>
        <pt x="2304" y="1280" on="1"/>
        <pt x="2304" y="1024" on="1"/>
        <pt x="1280" y="1024" on="1"/>
        <pt x="1280" y="-1024" on="1"/>
        <pt x="768" y="-1024" on="1"/>
        <pt x="768" y="1024" on="1"/>
        <pt x="0" y="1024" on="1"/>
      </contour>
    </TTGlyph>
    <TTGlyph name="Agrave" xMin="768" yMin="1024" xMax="2304" yMax="3072">
      <contour>
        <pt x="768" y="3072" on="1"/>
        <pt x="1280" y="3072" on="1"/>
        <pt x="1280" y="1280" on="1"/>
        <pt x="2304" y="1280" on="1"/>
        <pt x="2304" y="1024" on="1"/>
        <pt x="768" y="1024" on="1"/>
      </contour>
    </TTGlyph>
    <TTGlyph name="Aring" xMin="0" yMin="-1024" xMax="2304" yMax="3072">
      <contour>
        <pt x="0" y="1280" on="1"/>
        <pt x="768" y="1280" on="1"/>
        <pt x="768" y="3072" on="1"/>
        <pt x="1280" y="3072" on="1"/>
        <pt x="1280" y="1280" on="1"/>
        <pt x="2304" y="1280" on="1"/>
        <pt x="2304" y="1024" on="1"/>
        <pt x="1280" y="1024" on="1"/>
        <pt x="1280" y="-1024" on="1"/>
        <pt x="768" y="-1024" on="1"/>
        <pt x="768" y="1024" on="1"/>
        <pt x="0" y="1024" on="1"/>
      </contour>
    </TTGlyph>
    <TTGlyph name="Atilde" xMin="768" yMin="-1024" xMax="2304" yMax="3072">
      <contour>
        <pt x="1280" y="-1024" on="1"/>
        <pt x="768" y="-1024" on="1"/>
        <pt x="768" y="3072" on="1"/>
        <pt x="1280" y="3072" on="1"/>
        <pt x="1280" y="1280" on="1"/>
        <pt x="2304" y="1280" on="1"/>
        <pt x="2304" y="1024" on="1"/>
        <pt x="1280" y="1024" on="1"/>
      </contour>
    </TTGlyph>
    <TTGlyph name="B" xMin="0" yMin="0" xMax="1792" yMax="2560">
      <contour>
        <pt x="768" y="1536" on="1"/>
        <pt x="1280" y="1536" on="1"/>
        <pt x="1280" y="2304" on="1"/>
        <pt x="768" y="2304" on="1"/>
      </contour>
      <contour>
        <pt x="1280" y="1280" on="1"/>
        <pt x="768" y="1280" on="1"/>
        <pt x="768" y="256" on="1"/>
        <pt x="1280" y="256" on="1"/>
      </contour>
      <contour>
        <pt x="0" y="256" on="1"/>
        <pt x="256" y="256" on="1"/>
        <pt x="256" y="2304" on="1"/>
        <pt x="0" y="2304" on="1"/>
        <pt x="0" y="2560" on="1"/>
        <pt x="1536" y="2560" on="1"/>
        <pt x="1536" y="2304" on="1"/>
        <pt x="1792" y="2304" on="1"/>
        <pt x="1792" y="1536" on="1"/>
        <pt x="1536" y="1536" on="1"/>
        <pt x="1536" y="1280" on="1"/>
        <pt x="1792" y="1280" on="1"/>
        <pt x="1792" y="256" on="1"/>
        <pt x="1536" y="256" on="1"/>
        <pt x="1536" y="0" on="1"/>
        <pt x="0" y="0" on="1"/>
      </contour>
    </TTGlyph>
    <TTGlyph name="C" xMin="0" yMin="0" xMax="1792" yMax="2560">
      <contour>
        <pt x="1280" y="2304" on="1"/>
        <pt x="768" y="2304" on="1"/>
        <pt x="768" y="2048" on="1"/>
        <pt x="512" y="2048" on="1"/>
        <pt x="512" y="512" on="1"/>
        <pt x="768" y="512" on="1"/>
        <pt x="768" y="256" on="1"/>
        <pt x="1280" y="256" on="1"/>
        <pt x="1280" y="512" on="1"/>
        <pt x="1536" y="512" on="1"/>
        <pt x="1536" y="768" on="1"/>
        <pt x="1792" y="768" on="1"/>
        <pt x="1792" y="256" on="1"/>
        <pt x="1536" y="256" on="1"/>
        <pt x="1536" y="0" on="1"/>
        <pt x="512" y="0" on="1"/>
        <pt x="512" y="256" on="1"/>
        <pt x="256" y="256" on="1"/>
        <pt x="256" y="512" on="1"/>
        <pt x="0" y="512" on="1"/>
        <pt x="0" y="2048" on="1"/>
        <pt x="256" y="2048" on="1"/>
        <pt x="256" y="2304" on="1"/>
        <pt x="512" y="2304" on="1"/>
        <pt x="512" y="2560" on="1"/>
        <pt x="1536" y="2560" on="1"/>
        <pt x="1536" y="2304" on="1"/>
        <pt x="1792" y="2304" on="1"/>
        <pt x="1792" y="1792" on="1"/>
        <pt x="1536" y="1792" on="1"/>
        <pt x="1536" y="2048" on="1"/>
        <pt x="1280" y="2048" on="1"/>
      </contour>
    </TTGlyph>
    <TTGlyph name="Ccedilla" xMin="512" yMin="-1024" xMax="2304" yMax="3072">
      <contour>
        <pt x="512" y="3072" on="1"/>
        <pt x="1024" y="3072" on="1"/>
        <pt x="1024" y="-1024" on="1"/>
        <pt x="512" y="-1024" on="1"/>
      </contour>
      <contour>
        <pt x="1792" y="-1024" on="1"/>
        <pt x="1280" y="-1024" on="1"/>
        <pt x="1280" y="3072" on="1"/>
        <pt x="1792" y="3072" on="1"/>
        <pt x="1792" y="1280" on="1"/>
        <pt x="2304" y="1280" on="1"/>
        <pt x="2304" y="1024" on="1"/>
        <pt x="1792" y="1024" on="1"/>
      </contour>
    </TTGlyph>
    <TTGlyph name="D" xMin="0" yMin="0" xMax="1792" yMax="2560">
      <contour>
        <pt x="1280" y="2048" on="1"/>
        <pt x="1024" y="2048" on="1"/>
        <pt x="1024" y="2304" on="1"/>
        <pt x="768" y="2304" on="1"/>
        <pt x="768" y="256" on="1"/>
        <pt x="1024" y="256" on="1"/>
        <pt x="1024" y="512" on="1"/>
        <pt x="1280" y="512" on="1"/>
      </contour>
      <contour>
        <pt x="1280" y="256" on="1"/>
        <pt x="1280" y="0" on="1"/>
        <pt x="0" y="0" on="1"/>
        <pt x="0" y="256" on="1"/>
        <pt x="256" y="256" on="1"/>
        <pt x="256" y="2304" on="1"/>
        <pt x="0" y="2304" on="1"/>
        <pt x="0" y="2560" on="1"/>
        <pt x="1280" y="2560" on="1"/>
        <pt x="1280" y="2304" on="1"/>
        <pt x="1536" y="2304" on="1"/>
        <pt x="1536" y="2048" on="1"/>
        <pt x="1792" y="2048" on="1"/>
        <pt x="1792" y="512" on="1"/>
        <pt x="1536" y="512" on="1"/>
        <pt x="1536" y="256" on="1"/>
      </contour>
    </TTGlyph>
    <TTGlyph name="E" xMin="0" yMin="0" xMax="1792" yMax="2560">
      <contour>
        <pt x="1024" y="1280" on="1"/>
        <pt x="768" y="1280" on="1"/>
        <pt x="768" y="256" on="1"/>
        <pt x="1280" y="256" on="1"/>
        <pt x="1280" y="512" on="1"/>
        <pt x="1536" y="512" on="1"/>
        <pt x="1536" y="768" on="1"/>
        <pt x="1792" y="768" on="1"/>
        <pt x="1792" y="0" on="1"/>
        <pt x="0" y="0" on="1"/>
        <pt x="0" y="256" on="1"/>
        <pt x="256" y="256" on="1"/>
        <pt x="256" y="2304" on="1"/>
        <pt x="0" y="2304" on="1"/>
        <pt x="0" y="2560" on="1"/>
        <pt x="1792" y="2560" on="1"/>
        <pt x="1792" y="1792" on="1"/>
        <pt x="1536" y="1792" on="1"/>
        <pt x="1536" y="2048" on="1"/>
        <pt x="1280" y="2048" on="1"/>
        <pt x="1280" y="2304" on="1"/>
        <pt x="768" y="2304" on="1"/>
        <pt x="768" y="1536" on="1"/>
        <pt x="1024" y="1536" on="1"/>
        <pt x="1024" y="1792" on="1"/>
        <pt x="1280" y="1792" on="1"/>
        <pt x="1280" y="1024" on="1"/>
        <pt x="1024" y="1024" on="1"/>
      </contour>
    </TTGlyph>
    <TTGlyph name="Eacute" xMin="512" yMin="-1024" xMax="2304" yMax="1792">
      <contour>
        <pt x="1280" y="0" on="1"/>
        <pt x="1280" y="1280" on="1"/>
        <pt x="2304" y="1280" on="1"/>
        <pt x="2304" y="1024" on="1"/>
        <pt x="1792" y="1024" on="1"/>
        <pt x="1792" y="-1024" on="1"/>
        <pt x="1280" y="-1024" on="1"/>
      </contour>
      <contour>
        <pt x="512" y="1792" on="1"/>
        <pt x="2304" y="1792" on="1"/>
        <pt x="2304" y="1536" on="1"/>
        <pt x="1024" y="1536" on="1"/>
        <pt x="1024" y="-1024" on="1"/>
        <pt x="512" y="-1024" on="1"/>
      </contour>
    </TTGlyph>
    <TTGlyph name="Ecircumflex" xMin="0" yMin="1024" xMax="2304" yMax="3072">
      <contour>
        <pt x="0" y="1280" on="1"/>
        <pt x="2304" y="1280" on="1"/>
        <pt x="2304" y="1024" on="1"/>
        <pt x="0" y="1024" on="1"/>
      </contour>
      <contour>
        <pt x="1792" y="3072" on="1"/>
        <pt x="1792" y="1792" on="1"/>
        <pt x="2304" y="1792" on="1"/>
        <pt x="2304" y="1536" on="1"/>
        <pt x="1280" y="1536" on="1"/>
        <pt x="1280" y="3072" on="1"/>
      </contour>
      <contour>
        <pt x="512" y="3072" on="1"/>
        <pt x="1024" y="3072" on="1"/>
        <pt x="1024" y="1536" on="1"/>
        <pt x="0" y="1536" on="1"/>
        <pt x="0" y="1792" on="1"/>
        <pt x="512" y="1792" on="1"/>
      </contour>
    </TTGlyph>
    <TTGlyph name="Edieresis" xMin="0" yMin="-1024" xMax="2304" yMax="1792">
      <contour>
        <pt x="0" y="1792" on="1"/>
        <pt x="2304" y="1792" on="1"/>
        <pt x="2304" y="1536" on="1"/>
        <pt x="0" y="1536" on="1"/>
      </contour>
      <contour>
        <pt x="1280" y="1280" on="1"/>
        <pt x="2304" y="1280" on="1"/>
        <pt x="2304" y="1024" on="1"/>
        <pt x="1792" y="1024" on="1"/>
        <pt x="1792" y="-1024" on="1"/>
        <pt x="1280" y="-1024" on="1"/>
      </contour>
      <contour>
        <pt x="0" y="1280" on="1"/>
        <pt x="1024" y="1280" on="1"/>
        <pt x="1024" y="-1024" on="1"/>
        <pt x="512" y="-1024" on="1"/>
        <pt x="512" y="1024" on="1"/>
        <pt x="0" y="1024" on="1"/>
      </contour>
    </TTGlyph>
    <TTGlyph name="Egrave" xMin="512" yMin="1024" xMax="2304" yMax="3072">
      <contour>
        <pt x="1280" y="3072" on="1"/>
        <pt x="1792" y="3072" on="1"/>
        <pt x="1792" y="1792" on="1"/>
        <pt x="2304" y="1792" on="1"/>
        <pt x="2304" y="1536" on="1"/>
        <pt x="1280" y="1536" on="1"/>
      </contour>
      <contour>
        <pt x="512" y="3072" on="1"/>
        <pt x="1024" y="3072" on="1"/>
        <pt x="1024" y="1280" on="1"/>
        <pt x="2304" y="1280" on="1"/>
        <pt x="2304" y="1024" on="1"/>
        <pt x="512" y="1024" on="1"/>
      </contour>
    </TTGlyph>
    <TTGlyph name="Eth" xMin="0" yMin="1024" xMax="2304" yMax="3072">
      <contour>
        <pt x="0" y="1280" on="1"/>
        <pt x="512" y="1280" on="1"/>
        <pt x="512" y="3072" on="1"/>
        <pt x="1024" y="3072" on="1"/>
        <pt x="1024" y="1280" on="1"/>
        <pt x="1280" y="1280" on="1"/>
        <pt x="1280" y="3072" on="1"/>
        <pt x="1792" y="3072" on="1"/>
        <pt x="1792" y="1280" on="1"/>
        <pt x="2304" y="1280" on="1"/>
        <pt x="2304" y="1024" on="1"/>
        <pt x="0" y="1024" on="1"/>
      </contour>
    </TTGlyph>
    <TTGlyph name="Euro" xMin="0" yMin="-512" xMax="1792" yMax="2560">
      <contour>
        <pt x="256" y="-256" on="1"/>
        <pt x="768" y="-256" on="1"/>
        <pt x="768" y="0" on="1"/>
        <pt x="512" y="0" on="1"/>
        <pt x="512" y="256" on="1"/>
        <pt x="256" y="256" on="1"/>
        <pt x="256" y="512" on="1"/>
        <pt x="0" y="512" on="1"/>
        <pt x="0" y="2048" on="1"/>
        <pt x="256" y="2048" on="1"/>
        <pt x="256" y="2304" on="1"/>
        <pt x="512" y="2304" on="1"/>
        <pt x="512" y="2560" on="1"/>
        <pt x="1536" y="2560" on="1"/>
        <pt x="1536" y="2304" on="1"/>
        <pt x="1792" y="2304" on="1"/>
        <pt x="1792" y="1792" on="1"/>
        <pt x="1536" y="1792" on="1"/>
        <pt x="1536" y="2048" on="1"/>
        <pt x="1280" y="2048" on="1"/>
        <pt x="1280" y="2304" on="1"/>
        <pt x="768" y="2304" on="1"/>
        <pt x="768" y="2048" on="1"/>
        <pt x="512" y="2048" on="1"/>
        <pt x="512" y="512" on="1"/>
        <pt x="768" y="512" on="1"/>
        <pt x="768" y="256" on="1"/>
        <pt x="1280" y="256" on="1"/>
        <pt x="1280" y="512" on="1"/>
        <pt x="1536" y="512" on="1"/>
        <pt x="1536" y="768" on="1"/>
        <pt x="1792" y="768" on="1"/>
        <pt x="1792" y="256" on="1"/>
        <pt x="1536" y="256" on="1"/>
        <pt x="1536" y="0" on="1"/>
        <pt x="1280" y="0" on="1"/>
        <pt x="1280" y="-256" on="1"/>
        <pt x="1024" y="-256" on="1"/>
        <pt x="1024" y="-512" on="1"/>
        <pt x="256" y="-512" on="1"/>
      </contour>
    </TTGlyph>
    <TTGlyph name="F" xMin="0" yMin="0" xMax="1792" yMax="2560">
      <contour>
        <pt x="1536" y="2048" on="1"/>
        <pt x="1280" y="2048" on="1"/>
        <pt x="1280" y="2304" on="1"/>
        <pt x="768" y="2304" on="1"/>
        <pt x="768" y="1536" on="1"/>
        <pt x="1024" y="1536" on="1"/>
        <pt x="1024" y="1792" on="1"/>
        <pt x="1280" y="1792" on="1"/>
        <pt x="1280" y="1024" on="1"/>
        <pt x="1024" y="1024" on="1"/>
        <pt x="1024" y="1280" on="1"/>
        <pt x="768" y="1280" on="1"/>
        <pt x="768" y="256" on="1"/>
        <pt x="1024" y="256" on="1"/>
        <pt x="1024" y="0" on="1"/>
        <pt x="0" y="0" on="1"/>
        <pt x="0" y="256" on="1"/>
        <pt x="256" y="256" on="1"/>
        <pt x="256" y="2304" on="1"/>
        <pt x="0" y="2304" on="1"/>
        <pt x="0" y="2560" on="1"/>
        <pt x="1792" y="2560" on="1"/>
        <pt x="1792" y="1792" on="1"/>
        <pt x="1536" y="1792" on="1"/>
      </contour>
    </TTGlyph>
    <TTGlyph name="G" xMin="0" yMin="0" xMax="1792" yMax="2560">
      <contour>
        <pt x="768" y="1280" on="1"/>
        <pt x="1792" y="1280" on="1"/>
        <pt x="1792" y="0" on="1"/>
        <pt x="1536" y="0" on="1"/>
        <pt x="1536" y="256" on="1"/>
        <pt x="1280" y="256" on="1"/>
        <pt x="1280" y="1024" on="1"/>
        <pt x="768" y="1024" on="1"/>
      </contour>
      <contour>
        <pt x="1280" y="2304" on="1"/>
        <pt x="768" y="2304" on="1"/>
        <pt x="768" y="2048" on="1"/>
        <pt x="512" y="2048" on="1"/>
        <pt x="512" y="512" on="1"/>
        <pt x="768" y="512" on="1"/>
        <pt x="768" y="256" on="1"/>
        <pt x="1280" y="256" on="1"/>
        <pt x="1280" y="0" on="1"/>
        <pt x="512" y="0" on="1"/>
        <pt x="512" y="256" on="1"/>
        <pt x="256" y="256" on="1"/>
        <pt x="256" y="512" on="1"/>
        <pt x="0" y="512" on="1"/>
        <pt x="0" y="2048" on="1"/>
        <pt x="256" y="2048" on="1"/>
        <pt x="256" y="2304" on="1"/>
        <pt x="512" y="2304" on="1"/>
        <pt x="512" y="2560" on="1"/>
        <pt x="1536" y="2560" on="1"/>
        <pt x="1536" y="2304" on="1"/>
        <pt x="1792" y="2304" on="1"/>
        <pt x="1792" y="1792" on="1"/>
        <pt x="1536" y="1792" on="1"/>
        <pt x="1536" y="2048" on="1"/>
        <pt x="1280" y="2048" on="1"/>
      </contour>
    </TTGlyph>
    <TTGlyph name="H" xMin="0" yMin="0" xMax="1792" yMax="2560">
      <contour>
        <pt x="1280" y="1280" on="1"/>
        <pt x="512" y="1280" on="1"/>
        <pt x="512" y="0" on="1"/>
        <pt x="0" y="0" on="1"/>
        <pt x="0" y="2560" on="1"/>
        <pt x="512" y="2560" on="1"/>
        <pt x="512" y="1536" on="1"/>
        <pt x="1280" y="1536" on="1"/>
        <pt x="1280" y="2560" on="1"/>
        <pt x="1792" y="2560" on="1"/>
        <pt x="1792" y="0" on="1"/>
        <pt x="1280" y="0" on="1"/>
      </contour>
    </TTGlyph>
    <TTGlyph name="I" xMin="512" yMin="0" xMax="1536" yMax="2560">
      <contour>
        <pt x="512" y="2560" on="1"/>
        <pt x="1536" y="2560" on="1"/>
        <pt x="1536" y="2304" on="1"/>
        <pt x="1280" y="2304" on="1"/>
        <pt x="1280" y="256" on="1"/>
        <pt x="1536" y="256" on="1"/>
        <pt x="1536" y="0" on="1"/>
        <pt x="512" y="0" on="1"/>
        <pt x="512" y="256" on="1"/>
        <pt x="768" y="256" on="1"/>
        <pt x="768" y="2304" on="1"/>
        <pt x="512" y="2304" on="1"/>
      </contour>
    </TTGlyph>
    <TTGlyph name="Iacute" xMin="0" yMin="1024" xMax="2304" yMax="1792">
      <contour>
        <pt x="0" y="1280" on="1"/>
        <pt x="2304" y="1280" on="1"/>
        <pt x="2304" y="1024" on="1"/>
        <pt x="0" y="1024" on="1"/>
      </contour>
      <contour>
        <pt x="0" y="1792" on="1"/>
        <pt x="2304" y="1792" on="1"/>
        <pt x="2304" y="1536" on="1"/>
        <pt x="0" y="1536" on="1"/>
      </contour>
    </TTGlyph>
    <TTGlyph name="Icircumflex" xMin="0" yMin="-1024" xMax="2304" yMax="3072">
      <contour>
        <pt x="0" y="1792" on="1"/>
        <pt x="512" y="1792" on="1"/>
        <pt x="512" y="3072" on="1"/>
        <pt x="1024" y="3072" on="1"/>
        <pt x="1024" y="1536" on="1"/>
        <pt x="0" y="1536" on="1"/>
      </contour>
      <contour>
        <pt x="1280" y="3072" on="1"/>
        <pt x="1792" y="3072" on="1"/>
        <pt x="1792" y="1792" on="1"/>
        <pt x="2304" y="1792" on="1"/>
        <pt x="2304" y="1536" on="1"/>
        <pt x="1280" y="1536" on="1"/>
      </contour>
      <contour>
        <pt x="2304" y="1280" on="1"/>
        <pt x="2304" y="1024" on="1"/>
        <pt x="1792" y="1024" on="1"/>
        <pt x="1792" y="-1024" on="1"/>
        <pt x="1280" y="-1024" on="1"/>
        <pt x="1280" y="1280" on="1"/>
      </contour>
      <contour>
        <pt x="0" y="1280" on="1"/>
        <pt x="1024" y="1280" on="1"/>
        <pt x="1024" y="-1024" on="1"/>
        <pt x="512" y="-1024" on="1"/>
        <pt x="512" y="1024" on="1"/>
        <pt x="0" y="1024" on="1"/>
      </contour>
    </TTGlyph>
    <TTGlyph name="Idieresis" xMin="0" yMin="1024" xMax="2304" yMax="2560">
      <contour>
        <pt x="0" y="1280" on="1"/>
        <pt x="2304" y="1280" on="1"/>
        <pt x="2304" y="1024" on="1"/>
        <pt x="0" y="1024" on="1"/>
      </contour>
      <contour>
        <pt x="0" y="1792" on="1"/>
        <pt x="768" y="1792" on="1"/>
        <pt x="768" y="2560" on="1"/>
        <pt x="1280" y="2560" on="1"/>
        <pt x="1280" y="1792" on="1"/>
        <pt x="2304" y="1792" on="1"/>
        <pt x="2304" y="1536" on="1"/>
        <pt x="0" y="1536" on="1"/>
      </contour>
    </TTGlyph>
    <TTGlyph name="Igrave" xMin="512" yMin="-1024" xMax="2304" yMax="3072">
      <contour>
        <pt x="1280" y="3072" on="1"/>
        <pt x="1792" y="3072" on="1"/>
        <pt x="1792" y="1792" on="1"/>
        <pt x="2304" y="1792" on="1"/>
        <pt x="2304" y="1536" on="1"/>
        <pt x="1280" y="1536" on="1"/>
      </contour>
      <contour>
        <pt x="1280" y="1280" on="1"/>
        <pt x="2304" y="1280" on="1"/>
        <pt x="2304" y="1024" on="1"/>
        <pt x="1792" y="1024" on="1"/>
        <pt x="1792" y="-1024" on="1"/>
        <pt x="1280" y="-1024" on="1"/>
      </contour>
      <contour>
        <pt x="512" y="3072" on="1"/>
        <pt x="1024" y="3072" on="1"/>
        <pt x="1024" y="-1024" on="1"/>
        <pt x="512" y="-1024" on="1"/>
      </contour>
    </TTGlyph>
    <TTGlyph name="J" xMin="0" yMin="0" xMax="1792" yMax="2560">
      <contour>
        <pt x="768" y="2560" on="1"/>
        <pt x="1792" y="2560" on="1"/>
        <pt x="1792" y="2304" on="1"/>
        <pt x="1536" y="2304" on="1"/>
        <pt x="1536" y="256" on="1"/>
        <pt x="1280" y="256" on="1"/>
        <pt x="1280" y="0" on="1"/>
        <pt x="256" y="0" on="1"/>
        <pt x="256" y="256" on="1"/>
        <pt x="0" y="256" on="1"/>
        <pt x="0" y="1024" on="1"/>
        <pt x="512" y="1024" on="1"/>
        <pt x="512" y="256" on="1"/>
        <pt x="1024" y="256" on="1"/>
        <pt x="1024" y="2304" on="1"/>
        <pt x="768" y="2304" on="1"/>
      </contour>
    </TTGlyph>
    <TTGlyph name="K" xMin="0" yMin="0" xMax="1792" yMax="2560">
      <contour>
        <pt x="1536" y="1536" on="1"/>
        <pt x="1280" y="1536" on="1"/>
        <pt x="1280" y="1024" on="1"/>
        <pt x="1536" y="1024" on="1"/>
        <pt x="1536" y="768" on="1"/>
        <pt x="1792" y="768" on="1"/>
        <pt x="1792" y="0" on="1"/>
        <pt x="1280" y="0" on="1"/>
        <pt x="1280" y="768" on="1"/>
        <pt x="1024" y="768" on="1"/>
        <pt x="1024" y="1024" on="1"/>
        <pt x="768" y="1024" on="1"/>
        <pt x="768" y="0" on="1"/>
        <pt x="0" y="0" on="1"/>
        <pt x="0" y="256" on="1"/>
        <pt x="256" y="256" on="1"/>
        <pt x="256" y="2304" on="1"/>
        <pt x="0" y="2304" on="1"/>
        <pt x="0" y="2560" on="1"/>
        <pt x="768" y="2560" on="1"/>
        <pt x="768" y="1536" on="1"/>
        <pt x="1024" y="1536" on="1"/>
        <pt x="1024" y="1792" on="1"/>
        <pt x="1280" y="1792" on="1"/>
        <pt x="1280" y="2560" on="1"/>
        <pt x="1792" y="2560" on="1"/>
        <pt x="1792" y="1792" on="1"/>
        <pt x="1536" y="1792" on="1"/>
      </contour>
    </TTGlyph>
    <TTGlyph name="L" xMin="0" yMin="0" xMax="1792" yMax="2560">
      <contour>
        <pt x="768" y="256" on="1"/>
        <pt x="1280" y="256" on="1"/>
        <pt x="1280" y="512" on="1"/>
        <pt x="1536" y="512" on="1"/>
        <pt x="1536" y="768" on="1"/>
        <pt x="1792" y="768" on="1"/>
        <pt x="1792" y="0" on="1"/>
        <pt x="0" y="0" on="1"/>
        <pt x="0" y="256" on="1"/>
        <pt x="256" y="256" on="1"/>
        <pt x="256" y="2304" on="1"/>
        <pt x="0" y="2304" on="1"/>
        <pt x="0" y="2560" on="1"/>
        <pt x="768" y="2560" on="1"/>
        <pt x="1024" y="2560" on="1"/>
        <pt x="1024" y="2304" on="1"/>
        <pt x="768" y="2304" on="1"/>
      </contour>
    </TTGlyph>
    <TTGlyph name="M" xMin="0" yMin="0" xMax="1792" yMax="2560">
      <contour>
        <pt x="1024" y="1280" on="1"/>
        <pt x="768" y="1280" on="1"/>
        <pt x="768" y="1536" on="1"/>
        <pt x="512" y="1536" on="1"/>
        <pt x="512" y="0" on="1"/>
        <pt x="0" y="0" on="1"/>
        <pt x="0" y="2560" on="1"/>
        <pt x="512" y="2560" on="1"/>
        <pt x="512" y="2304" on="1"/>
        <pt x="768" y="2304" on="1"/>
        <pt x="768" y="2048" on="1"/>
        <pt x="1024" y="2048" on="1"/>
        <pt x="1024" y="2304" on="1"/>
        <pt x="1280" y="2304" on="1"/>
        <pt x="1280" y="2560" on="1"/>
        <pt x="1792" y="2560" on="1"/>
        <pt x="1792" y="0" on="1"/>
        <pt x="1280" y="0" on="1"/>
        <pt x="1280" y="1536" on="1"/>
        <pt x="1024" y="1536" on="1"/>
      </contour>
    </TTGlyph>
    <TTGlyph name="N" xMin="0" yMin="0" xMax="1792" yMax="2560">
      <contour>
        <pt x="1024" y="1280" on="1"/>
        <pt x="768" y="1280" on="1"/>
        <pt x="768" y="1536" on="1"/>
        <pt x="512" y="1536" on="1"/>
        <pt x="512" y="0" on="1"/>
        <pt x="0" y="0" on="1"/>
        <pt x="0" y="2560" on="1"/>
        <pt x="512" y="2560" on="1"/>
        <pt x="512" y="2304" on="1"/>
        <pt x="768" y="2304" on="1"/>
        <pt x="768" y="2048" on="1"/>
        <pt x="1024" y="2048" on="1"/>
        <pt x="1024" y="1792" on="1"/>
        <pt x="1280" y="1792" on="1"/>
        <pt x="1280" y="2560" on="1"/>
        <pt x="1792" y="2560" on="1"/>
        <pt x="1792" y="0" on="1"/>
        <pt x="1280" y="0" on="1"/>
        <pt x="1280" y="1024" on="1"/>
        <pt x="1024" y="1024" on="1"/>
      </contour>
    </TTGlyph>
    <TTGlyph name="Ntilde" xMin="0" yMin="-1024" xMax="2304" yMax="1792">
      <contour>
        <pt x="0" y="1792" on="1"/>
        <pt x="2304" y="1792" on="1"/>
        <pt x="2304" y="1536" on="1"/>
        <pt x="0" y="1536" on="1"/>
      </contour>
      <contour>
        <pt x="0" y="1280" on="1"/>
        <pt x="2304" y="1280" on="1"/>
        <pt x="2304" y="1024" on="1"/>
        <pt x="1280" y="1024" on="1"/>
        <pt x="1280" y="-1024" on="1"/>
        <pt x="768" y="-1024" on="1"/>
        <pt x="768" y="1024" on="1"/>
        <pt x="0" y="1024" on="1"/>
      </contour>
    </TTGlyph>
    <TTGlyph name="O" xMin="0" yMin="0" xMax="1792" yMax="2560">
      <contour>
        <pt x="1280" y="2304" on="1"/>
        <pt x="512" y="2304" on="1"/>
        <pt x="512" y="256" on="1"/>
        <pt x="1280" y="256" on="1"/>
      </contour>
      <contour>
        <pt x="0" y="2304" on="1"/>
        <pt x="256" y="2304" on="1"/>
        <pt x="256" y="2560" on="1"/>
        <pt x="1536" y="2560" on="1"/>
        <pt x="1536" y="2304" on="1"/>
        <pt x="1792" y="2304" on="1"/>
        <pt x="1792" y="256" on="1"/>
        <pt x="1536" y="256" on="1"/>
        <pt x="1536" y="0" on="1"/>
        <pt x="256" y="0" on="1"/>
        <pt x="256" y="256" on="1"/>
        <pt x="0" y="256" on="1"/>
      </contour>
    </TTGlyph>
    <TTGlyph name="OE" xMin="256" yMin="0" xMax="1792" yMax="2816">
      <contour>
        <pt x="1280" y="2304" on="1"/>
        <pt x="768" y="2304" on="1"/>
        <pt x="768" y="2048" on="1"/>
        <pt x="256" y="2048" on="1"/>
        <pt x="256" y="2304" on="1"/>
        <pt x="512" y="2304" on="1"/>
        <pt x="512" y="2560" on="1"/>
        <pt x="768" y="2560" on="1"/>
        <pt x="768" y="2816" on="1"/>
        <pt x="1280" y="2816" on="1"/>
        <pt x="1280" y="2560" on="1"/>
        <pt x="1536" y="2560" on="1"/>
        <pt x="1536" y="2304" on="1"/>
        <pt x="1792" y="2304" on="1"/>
        <pt x="1792" y="2048" on="1"/>
        <pt x="1280" y="2048" on="1"/>
      </contour>
      <contour>
        <pt x="512" y="1792" on="1"/>
        <pt x="1280" y="1792" on="1"/>
        <pt x="1280" y="256" on="1"/>
        <pt x="1536" y="256" on="1"/>
        <pt x="1536" y="0" on="1"/>
        <pt x="512" y="0" on="1"/>
        <pt x="512" y="256" on="1"/>
        <pt x="768" y="256" on="1"/>
        <pt x="768" y="1536" on="1"/>
        <pt x="512" y="1536" on="1"/>
      </contour>
    </TTGlyph>
    <TTGlyph name="Oacute" xMin="512" yMin="1024" xMax="2304" yMax="3072">
      <contour>
        <pt x="512" y="3072" on="1"/>
        <pt x="1024" y="3072" on="1"/>
        <pt x="1024" y="1280" on="1"/>
        <pt x="1280" y="1280" on="1"/>
        <pt x="1280" y="3072" on="1"/>
        <pt x="1792" y="3072" on="1"/>
        <pt x="1792" y="1280" on="1"/>
        <pt x="2304" y="1280" on="1"/>
        <pt x="2304" y="1024" on="1"/>
        <pt x="512" y="1024" on="1"/>
      </contour>
    </TTGlyph>
    <TTGlyph name="Ocircumflex" xMin="768" yMin="1024" xMax="2304" yMax="3072">
      <contour>
        <pt x="768" y="3072" on="1"/>
        <pt x="1280" y="3072" on="1"/>
        <pt x="1280" y="1792" on="1"/>
        <pt x="2304" y="1792" on="1"/>
        <pt x="2304" y="1536" on="1"/>
        <pt x="1280" y="1536" on="1"/>
        <pt x="1280" y="1280" on="1"/>
        <pt x="2304" y="1280" on="1"/>
        <pt x="2304" y="1024" on="1"/>
        <pt x="768" y="1024" on="1"/>
      </contour>
    </TTGlyph>
    <TTGlyph name="Odieresis" xMin="512" yMin="-1024" xMax="2304" yMax="1280">
      <contour>
        <pt x="1280" y="1024" on="1"/>
        <pt x="1024" y="1024" on="1"/>
        <pt x="1024" y="-1024" on="1"/>
        <pt x="512" y="-1024" on="1"/>
        <pt x="512" y="1280" on="1"/>
        <pt x="2304" y="1280" on="1"/>
        <pt x="2304" y="1024" on="1"/>
        <pt x="1792" y="1024" on="1"/>
        <pt x="1792" y="-1024" on="1"/>
        <pt x="1280" y="-1024" on="1"/>
      </contour>
    </TTGlyph>
    <TTGlyph name="Ograve" xMin="0" yMin="-1024" xMax="2304" yMax="1280">
      <contour>
        <pt x="1280" y="1024" on="1"/>
        <pt x="1024" y="1024" on="1"/>
        <pt x="1024" y="-1024" on="1"/>
        <pt x="512" y="-1024" on="1"/>
        <pt x="512" y="1024" on="1"/>
        <pt x="0" y="1024" on="1"/>
        <pt x="0" y="1280" on="1"/>
        <pt x="2304" y="1280" on="1"/>
        <pt x="2304" y="1024" on="1"/>
        <pt x="1792" y="1024" on="1"/>
        <pt x="1792" y="-1024" on="1"/>
        <pt x="1280" y="-1024" on="1"/>
      </contour>
    </TTGlyph>
    <TTGlyph name="Oslash" xMin="0" yMin="-1024" xMax="2304" yMax="3072">
      <contour>
        <pt x="0" y="1792" on="1"/>
        <pt x="768" y="1792" on="1"/>
        <pt x="768" y="3072" on="1"/>
        <pt x="1280" y="3072" on="1"/>
        <pt x="1280" y="1792" on="1"/>
        <pt x="2304" y="1792" on="1"/>
        <pt x="2304" y="1536" on="1"/>
        <pt x="1280" y="1536" on="1"/>
        <pt x="1280" y="1280" on="1"/>
        <pt x="2304" y="1280" on="1"/>
        <pt x="2304" y="1024" on="1"/>
        <pt x="1280" y="1024" on="1"/>
        <pt x="1280" y="-1024" on="1"/>
        <pt x="768" y="-1024" on="1"/>
        <pt x="768" y="1024" on="1"/>
        <pt x="0" y="1024" on="1"/>
        <pt x="0" y="1280" on="1"/>
        <pt x="768" y="1280" on="1"/>
        <pt x="768" y="1536" on="1"/>
        <pt x="0" y="1536" on="1"/>
      </contour>
    </TTGlyph>
    <TTGlyph name="Otilde" xMin="768" yMin="-1024" xMax="2304" yMax="1792">
      <contour>
        <pt x="2304" y="1792" on="1"/>
        <pt x="2304" y="1536" on="1"/>
        <pt x="1280" y="1536" on="1"/>
        <pt x="1280" y="1280" on="1"/>
        <pt x="2304" y="1280" on="1"/>
        <pt x="2304" y="1024" on="1"/>
        <pt x="1280" y="1024" on="1"/>
        <pt x="1280" y="-1024" on="1"/>
        <pt x="768" y="-1024" on="1"/>
        <pt x="768" y="1792" on="1"/>
      </contour>
    </TTGlyph>
    <TTGlyph name="P" xMin="0" yMin="0" xMax="1792" yMax="2560">
      <contour>
        <pt x="1280" y="2304" on="1"/>
        <pt x="768" y="2304" on="1"/>
        <pt x="768" y="1536" on="1"/>
        <pt x="1280" y="1536" on="1"/>
      </contour>
      <contour>
        <pt x="768" y="256" on="1"/>
        <pt x="1024" y="256" on="1"/>
        <pt x="1024" y="0" on="1"/>
        <pt x="0" y="0" on="1"/>
        <pt x="0" y="256" on="1"/>
        <pt x="256" y="256" on="1"/>
        <pt x="256" y="2304" on="1"/>
        <pt x="0" y="2304" on="1"/>
        <pt x="0" y="2560" on="1"/>
        <pt x="1536" y="2560" on="1"/>
        <pt x="1536" y="2304" on="1"/>
        <pt x="1792" y="2304" on="1"/>
        <pt x="1792" y="1536" on="1"/>
        <pt x="1536" y="1536" on="1"/>
        <pt x="1536" y="1280" on="1"/>
        <pt x="768" y="1280" on="1"/>
      </contour>
    </TTGlyph>
    <TTGlyph name="Q" xMin="0" yMin="-512" xMax="1792" yMax="2560">
      <contour>
        <pt x="1024" y="512" on="1"/>
        <pt x="1280" y="512" on="1"/>
        <pt x="1280" y="2304" on="1"/>
        <pt x="512" y="2304" on="1"/>
        <pt x="512" y="256" on="1"/>
        <pt x="768" y="256" on="1"/>
        <pt x="768" y="768" on="1"/>
        <pt x="1024" y="768" on="1"/>
      </contour>
      <contour>
        <pt x="1024" y="0" on="1"/>
        <pt x="256" y="0" on="1"/>
        <pt x="256" y="256" on="1"/>
        <pt x="0" y="256" on="1"/>
        <pt x="0" y="2304" on="1"/>
        <pt x="256" y="2304" on="1"/>
        <pt x="256" y="2560" on="1"/>
        <pt x="1536" y="2560" on="1"/>
        <pt x="1536" y="2304" on="1"/>
        <pt x="1792" y="2304" on="1"/>
        <pt x="1792" y="256" on="1"/>
        <pt x="1536" y="256" on="1"/>
        <pt x="1536" y="-256" on="1"/>
        <pt x="1792" y="-256" on="1"/>
        <pt x="1792" y="-512" on="1"/>
        <pt x="1024" y="-512" on="1"/>
      </contour>
    </TTGlyph>
    <TTGlyph name="R" xMin="0" yMin="0" xMax="1792" yMax="2560">
      <contour>
        <pt x="1280" y="2304" on="1"/>
        <pt x="768" y="2304" on="1"/>
        <pt x="768" y="1536" on="1"/>
        <pt x="1280" y="1536" on="1"/>
      </contour>
      <contour>
        <pt x="1280" y="1024" on="1"/>
        <pt x="1024" y="1024" on="1"/>
        <pt x="1024" y="1280" on="1"/>
        <pt x="768" y="1280" on="1"/>
        <pt x="768" y="0" on="1"/>
        <pt x="0" y="0" on="1"/>
        <pt x="0" y="256" on="1"/>
        <pt x="256" y="256" on="1"/>
        <pt x="256" y="2304" on="1"/>
        <pt x="0" y="2304" on="1"/>
        <pt x="0" y="2560" on="1"/>
        <pt x="1536" y="2560" on="1"/>
        <pt x="1536" y="2304" on="1"/>
        <pt x="1792" y="2304" on="1"/>
        <pt x="1792" y="1536" on="1"/>
        <pt x="1536" y="1536" on="1"/>
        <pt x="1536" y="1024" on="1"/>
        <pt x="1792" y="1024" on="1"/>
        <pt x="1792" y="0" on="1"/>
        <pt x="1280" y="0" on="1"/>
      </contour>
    </TTGlyph>
    <TTGlyph name="S" xMin="0" yMin="0" xMax="1792" yMax="2560">
      <contour>
        <pt x="0" y="768" on="1"/>
        <pt x="512" y="768" on="1"/>
        <pt x="512" y="256" on="1"/>
        <pt x="1280" y="256" on="1"/>
        <pt x="1280" y="1024" on="1"/>
        <pt x="1024" y="1024" on="1"/>
        <pt x="1024" y="1280" on="1"/>
        <pt x="512" y="1280" on="1"/>
        <pt x="512" y="1536" on="1"/>
        <pt x="256" y="1536" on="1"/>
        <pt x="256" y="1792" on="1"/>
        <pt x="0" y="1792" on="1"/>
        <pt x="0" y="2304" on="1"/>
        <pt x="256" y="2304" on="1"/>
        <pt x="256" y="2560" on="1"/>
        <pt x="1536" y="2560" on="1"/>
        <pt x="1536" y="2304" on="1"/>
        <pt x="1792" y="2304" on="1"/>
        <pt x="1792" y="1792" on="1"/>
        <pt x="1280" y="1792" on="1"/>
        <pt x="1280" y="2304" on="1"/>
        <pt x="512" y="2304" on="1"/>
        <pt x="512" y="1792" on="1"/>
        <pt x="768" y="1792" on="1"/>
        <pt x="768" y="1536" on="1"/>
        <pt x="1280" y="1536" on="1"/>
        <pt x="1280" y="1280" on="1"/>
        <pt x="1536" y="1280" on="1"/>
        <pt x="1536" y="1024" on="1"/>
        <pt x="1792" y="1024" on="1"/>
        <pt x="1792" y="256" on="1"/>
        <pt x="1536" y="256" on="1"/>
        <pt x="1536" y="0" on="1"/>
        <pt x="256" y="0" on="1"/>
        <pt x="256" y="256" on="1"/>
        <pt x="0" y="256" on="1"/>
      </contour>
    </TTGlyph>
    <TTGlyph name="SF100000" xMin="0" yMin="1024" xMax="2304" yMax="1280">
      <contour>
        <pt x="0" y="1280" on="1"/>
        <pt x="2304" y="1280" on="1"/>
        <pt x="2304" y="1024" on="1"/>
        <pt x="0" y="1024" on="1"/>
      </contour>
    </TTGlyph>
    <TTGlyph name="Scaron" xMin="0" yMin="0" xMax="1792" yMax="2816">
      <contour>
        <pt x="512" y="1280" on="1"/>
        <pt x="1280" y="1280" on="1"/>
        <pt x="1280" y="1536" on="1"/>
        <pt x="512" y="1536" on="1"/>
      </contour>
      <contour>
        <pt x="768" y="2304" on="1"/>
        <pt x="512" y="2304" on="1"/>
        <pt x="512" y="2560" on="1"/>
        <pt x="256" y="2560" on="1"/>
        <pt x="256" y="2816" on="1"/>
        <pt x="768" y="2816" on="1"/>
        <pt x="768" y="2560" on="1"/>
        <pt x="1024" y="2560" on="1"/>
        <pt x="1024" y="2304" on="1"/>
        <pt x="1280" y="2304" on="1"/>
        <pt x="1280" y="2048" on="1"/>
        <pt x="768" y="2048" on="1"/>
      </contour>
      <contour>
        <pt x="256" y="1792" on="1"/>
        <pt x="1536" y="1792" on="1"/>
        <pt x="1536" y="1536" on="1"/>
        <pt x="1792" y="1536" on="1"/>
        <pt x="1792" y="1024" on="1"/>
        <pt x="512" y="1024" on="1"/>
        <pt x="512" y="256" on="1"/>
        <pt x="1280" y="256" on="1"/>
        <pt x="1280" y="512" on="1"/>
        <pt x="1792" y="512" on="1"/>
        <pt x="1792" y="256" on="1"/>
        <pt x="1536" y="256" on="1"/>
        <pt x="1536" y="0" on="1"/>
        <pt x="256" y="0" on="1"/>
        <pt x="256" y="256" on="1"/>
        <pt x="0" y="256" on="1"/>
        <pt x="0" y="1536" on="1"/>
        <pt x="256" y="1536" on="1"/>
      </contour>
    </TTGlyph>
    <TTGlyph name="T" xMin="256" yMin="0" xMax="1792" yMax="2560">
      <contour>
        <pt x="512" y="256" on="1"/>
        <pt x="768" y="256" on="1"/>
        <pt x="768" y="2048" on="1"/>
        <pt x="512" y="2048" on="1"/>
        <pt x="512" y="1792" on="1"/>
        <pt x="256" y="1792" on="1"/>
        <pt x="256" y="2560" on="1"/>
        <pt x="1792" y="2560" on="1"/>
        <pt x="1792" y="1792" on="1"/>
        <pt x="1536" y="1792" on="1"/>
        <pt x="1536" y="2048" on="1"/>
        <pt x="1280" y="2048" on="1"/>
        <pt x="1280" y="256" on="1"/>
        <pt x="1536" y="256" on="1"/>
        <pt x="1536" y="0" on="1"/>
        <pt x="512" y="0" on="1"/>
      </contour>
    </TTGlyph>
    <TTGlyph name="Thorn" xMin="1024" yMin="-1024" xMax="2304" yMax="3072">
      <contour>
        <pt x="1024" y="3072" on="1"/>
        <pt x="2304" y="3072" on="1"/>
        <pt x="2304" y="-1024" on="1"/>
        <pt x="1024" y="-1024" on="1"/>
      </contour>
    </TTGlyph>
    <TTGlyph name="U" xMin="0" yMin="0" xMax="1792" yMax="2560">
      <contour>
        <pt x="0" y="2560" on="1"/>
        <pt x="512" y="2560" on="1"/>
        <pt x="512" y="256" on="1"/>
        <pt x="1280" y="256" on="1"/>
        <pt x="1280" y="2560" on="1"/>
        <pt x="1792" y="2560" on="1"/>
        <pt x="1792" y="256" on="1"/>
        <pt x="1536" y="256" on="1"/>
        <pt x="1536" y="0" on="1"/>
        <pt x="256" y="0" on="1"/>
        <pt x="256" y="256" on="1"/>
        <pt x="0" y="256" on="1"/>
      </contour>
    </TTGlyph>
    <TTGlyph name="Uacute" xMin="768" yMin="-1024" xMax="2304" yMax="1280">
      <contour>
        <pt x="768" y="1280" on="1"/>
        <pt x="2304" y="1280" on="1"/>
        <pt x="2304" y="1024" on="1"/>
        <pt x="1280" y="1024" on="1"/>
        <pt x="1280" y="-1024" on="1"/>
        <pt x="768" y="-1024" on="1"/>
      </contour>
    </TTGlyph>
    <TTGlyph name="Ucircumflex" xMin="0" yMin="-1024" xMax="2304" yMax="3072">
      <contour>
        <pt x="0" y="3072" on="1"/>
        <pt x="2304" y="3072" on="1"/>
        <pt x="2304" y="-1024" on="1"/>
        <pt x="0" y="-1024" on="1"/>
      </contour>
    </TTGlyph>
    <TTGlyph name="Udieresis" xMin="0" yMin="-1024" xMax="2304" yMax="1280">
      <contour>
        <pt x="0" y="1280" on="1"/>
        <pt x="2304" y="1280" on="1"/>
        <pt x="2304" y="-1024" on="1"/>
        <pt x="0" y="-1024" on="1"/>
      </contour>
    </TTGlyph>
    <TTGlyph name="Ugrave" xMin="0" yMin="1024" xMax="1280" yMax="3072">
      <contour>
        <pt x="0" y="1280" on="1"/>
        <pt x="768" y="1280" on="1"/>
        <pt x="768" y="3072" on="1"/>
        <pt x="1280" y="3072" on="1"/>
        <pt x="1280" y="1024" on="1"/>
        <pt x="0" y="1024" on="1"/>
      </contour>
    </TTGlyph>
    <TTGlyph name="V" xMin="0" yMin="0" xMax="1792" yMax="2560">
      <contour>
        <pt x="768" y="256" on="1"/>
        <pt x="512" y="256" on="1"/>
        <pt x="512" y="512" on="1"/>
        <pt x="256" y="512" on="1"/>
        <pt x="256" y="768" on="1"/>
        <pt x="0" y="768" on="1"/>
        <pt x="0" y="2560" on="1"/>
        <pt x="512" y="2560" on="1"/>
        <pt x="512" y="768" on="1"/>
        <pt x="768" y="768" on="1"/>
        <pt x="768" y="512" on="1"/>
        <pt x="1024" y="512" on="1"/>
        <pt x="1024" y="768" on="1"/>
        <pt x="1280" y="768" on="1"/>
        <pt x="1280" y="2560" on="1"/>
        <pt x="1792" y="2560" on="1"/>
        <pt x="1792" y="768" on="1"/>
        <pt x="1536" y="768" on="1"/>
        <pt x="1536" y="512" on="1"/>
        <pt x="1280" y="512" on="1"/>
        <pt x="1280" y="256" on="1"/>
        <pt x="1024" y="256" on="1"/>
        <pt x="1024" y="0" on="1"/>
        <pt x="768" y="0" on="1"/>
      </contour>
    </TTGlyph>
    <TTGlyph name="W" xMin="0" yMin="0" xMax="1792" yMax="2560">
      <contour>
        <pt x="768" y="0" on="1"/>
        <pt x="256" y="0" on="1"/>
        <pt x="256" y="256" on="1"/>
        <pt x="0" y="256" on="1"/>
        <pt x="0" y="2560" on="1"/>
        <pt x="512" y="2560" on="1"/>
        <pt x="512" y="768" on="1"/>
        <pt x="768" y="768" on="1"/>
        <pt x="768" y="1536" on="1"/>
        <pt x="1024" y="1536" on="1"/>
        <pt x="1024" y="768" on="1"/>
        <pt x="1280" y="768" on="1"/>
        <pt x="1280" y="2560" on="1"/>
        <pt x="1792" y="2560" on="1"/>
        <pt x="1792" y="256" on="1"/>
        <pt x="1536" y="256" on="1"/>
        <pt x="1536" y="0" on="1"/>
        <pt x="1024" y="0" on="1"/>
        <pt x="1024" y="512" on="1"/>
        <pt x="768" y="512" on="1"/>
      </contour>
    </TTGlyph>
    <TTGlyph name="X" xMin="0" yMin="0" xMax="1792" yMax="2560">
      <contour>
        <pt x="512" y="1536" on="1"/>
        <pt x="256" y="1536" on="1"/>
        <pt x="256" y="2048" on="1"/>
        <pt x="0" y="2048" on="1"/>
        <pt x="0" y="2560" on="1"/>
        <pt x="512" y="2560" on="1"/>
        <pt x="512" y="2048" on="1"/>
        <pt x="768" y="2048" on="1"/>
        <pt x="768" y="1792" on="1"/>
        <pt x="1024" y="1792" on="1"/>
        <pt x="1024" y="2048" on="1"/>
        <pt x="1280" y="2048" on="1"/>
        <pt x="1280" y="2560" on="1"/>
        <pt x="1792" y="2560" on="1"/>
        <pt x="1792" y="2048" on="1"/>
        <pt x="1536" y="2048" on="1"/>
        <pt x="1536" y="1536" on="1"/>
        <pt x="1280" y="1536" on="1"/>
        <pt x="1280" y="1024" on="1"/>
        <pt x="1536" y="1024" on="1"/>
        <pt x="1536" y="512" on="1"/>
        <pt x="1792" y="512" on="1"/>
        <pt x="1792" y="0" on="1"/>
        <pt x="1280" y="0" on="1"/>
        <pt x="1280" y="512" on="1"/>
        <pt x="1024" y="512" on="1"/>
        <pt x="1024" y="768" on="1"/>
        <pt x="768" y="768" on="1"/>
        <pt x="768" y="512" on="1"/>
        <pt x="512" y="512" on="1"/>
        <pt x="512" y="0" on="1"/>
        <pt x="0" y="0" on="1"/>
        <pt x="0" y="512" on="1"/>
        <pt x="256" y="512" on="1"/>
        <pt x="256" y="1024" on="1"/>
        <pt x="512" y="1024" on="1"/>
      </contour>
    </TTGlyph>
    <TTGlyph name="Y" xMin="256" yMin="0" xMax="1792" yMax="2560">
      <contour>
        <pt x="512" y="256" on="1"/>
        <pt x="768" y="256" on="1"/>
        <pt x="768" y="1280" on="1"/>
        <pt x="512" y="1280" on="1"/>
        <pt x="512" y="1536" on="1"/>
        <pt x="256" y="1536" on="1"/>
        <pt x="256" y="2560" on="1"/>
        <pt x="768" y="2560" on="1"/>
        <pt x="768" y="1536" on="1"/>
        <pt x="1280" y="1536" on="1"/>
        <pt x="1280" y="2560" on="1"/>
        <pt x="1792" y="2560" on="1"/>
        <pt x="1792" y="1536" on="1"/>
        <pt x="1536" y="1536" on="1"/>
        <pt x="1536" y="1280" on="1"/>
        <pt x="1280" y="1280" on="1"/>
        <pt x="1280" y="256" on="1"/>
        <pt x="1536" y="256" on="1"/>
        <pt x="1536" y="0" on="1"/>
        <pt x="512" y="0" on="1"/>
      </contour>
    </TTGlyph>
    <TTGlyph name="Yacute" xMin="0" yMin="-1024" xMax="1024" yMax="3072">
      <contour>
        <pt x="0" y="3072" on="1"/>
        <pt x="1024" y="3072" on="1"/>
        <pt x="1024" y="-1024" on="1"/>
        <pt x="0" y="-1024" on="1"/>
      </contour>
    </TTGlyph>
    <TTGlyph name="Ydieresis" xMin="0" yMin="0" xMax="2048" yMax="2816">
      <contour>
        <pt x="256" y="1536" on="1"/>
        <pt x="768" y="1536" on="1"/>
        <pt x="768" y="2560" on="1"/>
        <pt x="1024" y="2560" on="1"/>
        <pt x="1024" y="2816" on="1"/>
        <pt x="1792" y="2816" on="1"/>
        <pt x="1792" y="2560" on="1"/>
        <pt x="2048" y="2560" on="1"/>
        <pt x="2048" y="2304" on="1"/>
        <pt x="1536" y="2304" on="1"/>
        <pt x="1536" y="2560" on="1"/>
        <pt x="1280" y="2560" on="1"/>
        <pt x="1280" y="1536" on="1"/>
        <pt x="1792" y="1536" on="1"/>
        <pt x="1792" y="1280" on="1"/>
        <pt x="1280" y="1280" on="1"/>
        <pt x="1280" y="256" on="1"/>
        <pt x="1024" y="256" on="1"/>
        <pt x="1024" y="0" on="1"/>
        <pt x="256" y="0" on="1"/>
        <pt x="256" y="256" on="1"/>
        <pt x="0" y="256" on="1"/>
        <pt x="0" y="512" on="1"/>
        <pt x="512" y="512" on="1"/>
        <pt x="512" y="256" on="1"/>
        <pt x="768" y="256" on="1"/>
        <pt x="768" y="1280" on="1"/>
        <pt x="256" y="1280" on="1"/>
      </contour>
    </TTGlyph>
    <TTGlyph name="Z" xMin="0" yMin="0" xMax="1792" yMax="2560">
      <contour>
        <pt x="0" y="768" on="1"/>
        <pt x="256" y="768" on="1"/>
        <pt x="256" y="1024" on="1"/>
        <pt x="512" y="1024" on="1"/>
        <pt x="512" y="1280" on="1"/>
        <pt x="768" y="1280" on="1"/>
        <pt x="768" y="1536" on="1"/>
        <pt x="1024" y="1536" on="1"/>
        <pt x="1024" y="1792" on="1"/>
        <pt x="1280" y="1792" on="1"/>
        <pt x="1280" y="2304" on="1"/>
        <pt x="512" y="2304" on="1"/>
        <pt x="512" y="2048" on="1"/>
        <pt x="256" y="2048" on="1"/>
        <pt x="256" y="1792" on="1"/>
        <pt x="0" y="1792" on="1"/>
        <pt x="0" y="2560" on="1"/>
        <pt x="1792" y="2560" on="1"/>
        <pt x="1792" y="1792" on="1"/>
        <pt x="1536" y="1792" on="1"/>
        <pt x="1536" y="1536" on="1"/>
        <pt x="1280" y="1536" on="1"/>
        <pt x="1280" y="1280" on="1"/>
        <pt x="1024" y="1280" on="1"/>
        <pt x="1024" y="1024" on="1"/>
        <pt x="768" y="1024" on="1"/>
        <pt x="768" y="768" on="1"/>
        <pt x="512" y="768" on="1"/>
        <pt x="512" y="256" on="1"/>
        <pt x="1280" y="256" on="1"/>
        <pt x="1280" y="512" on="1"/>
        <pt x="1536" y="512" on="1"/>
        <pt x="1536" y="768" on="1"/>
        <pt x="1792" y="768" on="1"/>
        <pt x="1792" y="0" on="1"/>
        <pt x="0" y="0" on="1"/>
      </contour>
    </TTGlyph>
    <TTGlyph name="a" xMin="0" yMin="0" xMax="1792" yMax="1792">
      <contour>
        <pt x="1024" y="0" on="1"/>
        <pt x="256" y="0" on="1"/>
        <pt x="256" y="256" on="1"/>
        <pt x="0" y="256" on="1"/>
        <pt x="0" y="1024" on="1"/>
        <pt x="256" y="1024" on="1"/>
        <pt x="256" y="1280" on="1"/>
        <pt x="1024" y="1280" on="1"/>
        <pt x="1024" y="1536" on="1"/>
        <pt x="256" y="1536" on="1"/>
        <pt x="256" y="1792" on="1"/>
        <pt x="1280" y="1792" on="1"/>
        <pt x="1280" y="1536" on="1"/>
        <pt x="1536" y="1536" on="1"/>
        <pt x="1536" y="256" on="1"/>
        <pt x="1792" y="256" on="1"/>
        <pt x="1792" y="0" on="1"/>
        <pt x="1280" y="0" on="1"/>
        <pt x="1280" y="256" on="1"/>
        <pt x="1026" y="256" on="1"/>
        <pt x="1024" y="258" on="1"/>
        <pt x="1024" y="1024" on="1"/>
        <pt x="512" y="1024" on="1"/>
        <pt x="512" y="256" on="1"/>
        <pt x="1024" y="256" on="1"/>
      </contour>
    </TTGlyph>
    <TTGlyph name="aacute" xMin="0" yMin="0" xMax="1792" yMax="2560">
      <contour>
        <pt x="1024" y="256" on="1"/>
        <pt x="1280" y="256" on="1"/>
        <pt x="1280" y="1024" on="1"/>
        <pt x="1024" y="1024" on="1"/>
        <pt x="1024" y="1280" on="1"/>
        <pt x="768" y="1280" on="1"/>
        <pt x="768" y="1536" on="1"/>
        <pt x="1024" y="1536" on="1"/>
        <pt x="1024" y="2304" on="1"/>
        <pt x="512" y="2304" on="1"/>
        <pt x="512" y="0" on="1"/>
        <pt x="0" y="0" on="1"/>
        <pt x="0" y="2304" on="1"/>
        <pt x="256" y="2304" on="1"/>
        <pt x="256" y="2560" on="1"/>
        <pt x="1280" y="2560" on="1"/>
        <pt x="1280" y="2304" on="1"/>
        <pt x="1536" y="2304" on="1"/>
        <pt x="1536" y="1536" on="1"/>
        <pt x="1280" y="1536" on="1"/>
        <pt x="1280" y="1280" on="1"/>
        <pt x="1536" y="1280" on="1"/>
        <pt x="1536" y="1024" on="1"/>
        <pt x="1792" y="1024" on="1"/>
        <pt x="1792" y="256" on="1"/>
        <pt x="1536" y="256" on="1"/>
        <pt x="1536" y="0" on="1"/>
        <pt x="1024" y="0" on="1"/>
      </contour>
    </TTGlyph>
    <TTGlyph name="acircumflex" xMin="0" yMin="0" xMax="1792" yMax="2560">
      <contour>
        <pt x="512" y="0" on="1"/>
        <pt x="0" y="0" on="1"/>
        <pt x="0" y="2560" on="1"/>
        <pt x="1792" y="2560" on="1"/>
        <pt x="1792" y="1792" on="1"/>
        <pt x="1280" y="1792" on="1"/>
        <pt x="1280" y="2304" on="1"/>
        <pt x="512" y="2304" on="1"/>
      </contour>
    </TTGlyph>
    <TTGlyph name="acute" xMin="0" yMin="-1024" xMax="1280" yMax="3072">
      <contour>
        <pt x="0" y="1280" on="1"/>
        <pt x="768" y="1280" on="1"/>
        <pt x="768" y="3072" on="1"/>
        <pt x="1280" y="3072" on="1"/>
        <pt x="1280" y="-1024" on="1"/>
        <pt x="768" y="-1024" on="1"/>
        <pt x="768" y="1024" on="1"/>
        <pt x="0" y="1024" on="1"/>
      </contour>
    </TTGlyph>
    <TTGlyph name="adieresis" xMin="0" yMin="0" xMax="1792" yMax="2560">
      <contour>
        <pt x="0" y="512" on="1"/>
        <pt x="256" y="512" on="1"/>
        <pt x="256" y="768" on="1"/>
        <pt x="512" y="768" on="1"/>
        <pt x="512" y="1024" on="1"/>
        <pt x="768" y="1024" on="1"/>
        <pt x="768" y="1536" on="1"/>
        <pt x="512" y="1536" on="1"/>
        <pt x="512" y="1792" on="1"/>
        <pt x="256" y="1792" on="1"/>
        <pt x="256" y="2048" on="1"/>
        <pt x="0" y="2048" on="1"/>
        <pt x="0" y="2560" on="1"/>
        <pt x="1792" y="2560" on="1"/>
        <pt x="1792" y="2048" on="1"/>
        <pt x="1280" y="2048" on="1"/>
        <pt x="1280" y="2304" on="1"/>
        <pt x="512" y="2304" on="1"/>
        <pt x="512" y="2048" on="1"/>
        <pt x="768" y="2048" on="1"/>
        <pt x="768" y="1792" on="1"/>
        <pt x="1024" y="1792" on="1"/>
        <pt x="1024" y="1536" on="1"/>
        <pt x="1280" y="1536" on="1"/>
        <pt x="1280" y="1024" on="1"/>
        <pt x="1024" y="1024" on="1"/>
        <pt x="1024" y="768" on="1"/>
        <pt x="768" y="768" on="1"/>
        <pt x="768" y="512" on="1"/>
        <pt x="512" y="512" on="1"/>
        <pt x="512" y="256" on="1"/>
        <pt x="1280" y="256" on="1"/>
        <pt x="1280" y="512" on="1"/>
        <pt x="1792" y="512" on="1"/>
        <pt x="1792" y="0" on="1"/>
        <pt x="0" y="0" on="1"/>
      </contour>
    </TTGlyph>
    <TTGlyph name="ae" xMin="0" yMin="-768" xMax="1792" yMax="1792">
      <contour>
        <pt x="0" y="-512" on="1"/>
        <pt x="256" y="-512" on="1"/>
        <pt x="256" y="1792" on="1"/>
        <pt x="768" y="1792" on="1"/>
        <pt x="768" y="256" on="1"/>
        <pt x="1280" y="256" on="1"/>
        <pt x="1280" y="1792" on="1"/>
        <pt x="1792" y="1792" on="1"/>
        <pt x="1792" y="256" on="1"/>
        <pt x="1536" y="256" on="1"/>
        <pt x="1536" y="0" on="1"/>
        <pt x="768" y="0" on="1"/>
        <pt x="768" y="-512" on="1"/>
        <pt x="512" y="-512" on="1"/>
        <pt x="512" y="-768" on="1"/>
        <pt x="0" y="-768" on="1"/>
      </contour>
    </TTGlyph>
    <TTGlyph name="agrave" xMin="0" yMin="0" xMax="1792" yMax="1792">
      <contour>
        <pt x="768" y="1536" on="1"/>
        <pt x="512" y="1536" on="1"/>
        <pt x="512" y="256" on="1"/>
        <pt x="768" y="256" on="1"/>
      </contour>
      <contour>
        <pt x="1280" y="256" on="1"/>
        <pt x="1024" y="256" on="1"/>
        <pt x="1024" y="0" on="1"/>
        <pt x="256" y="0" on="1"/>
        <pt x="256" y="256" on="1"/>
        <pt x="0" y="256" on="1"/>
        <pt x="0" y="1536" on="1"/>
        <pt x="256" y="1536" on="1"/>
        <pt x="256" y="1792" on="1"/>
        <pt x="1024" y="1792" on="1"/>
        <pt x="1024" y="1536" on="1"/>
        <pt x="1280" y="1536" on="1"/>
        <pt x="1280" y="1792" on="1"/>
        <pt x="1792" y="1792" on="1"/>
        <pt x="1792" y="1536" on="1"/>
        <pt x="1536" y="1536" on="1"/>
        <pt x="1536" y="1280" on="1"/>
        <pt x="1280" y="1280" on="1"/>
        <pt x="1280" y="512" on="1"/>
        <pt x="1536" y="512" on="1"/>
        <pt x="1536" y="256" on="1"/>
        <pt x="1792" y="256" on="1"/>
        <pt x="1792" y="0" on="1"/>
        <pt x="1280" y="0" on="1"/>
      </contour>
    </TTGlyph>
    <TTGlyph name="ampersand" xMin="0" yMin="0" xMax="1792" yMax="2560">
      <contour>
        <pt x="1024" y="2304" on="1"/>
        <pt x="768" y="2304" on="1"/>
        <pt x="768" y="1792" on="1"/>
        <pt x="1024" y="1792" on="1"/>
      </contour>
      <contour>
        <pt x="1280" y="1534" on="1"/>
        <pt x="1282" y="1536" on="1"/>
        <pt x="1792" y="1536" on="1"/>
        <pt x="1792" y="1280" on="1"/>
        <pt x="1536" y="1280" on="1"/>
        <pt x="1536" y="256" on="1"/>
        <pt x="1792" y="256" on="1"/>
        <pt x="1792" y="0" on="1"/>
        <pt x="1280" y="0" on="1"/>
        <pt x="1280" y="256" on="1"/>
        <pt x="1024" y="256" on="1"/>
        <pt x="1024" y="1024" on="1"/>
        <pt x="768" y="1024" on="1"/>
        <pt x="768" y="1280" on="1"/>
        <pt x="512" y="1280" on="1"/>
        <pt x="512" y="256" on="1"/>
        <pt x="1022" y="256" on="1"/>
        <pt x="1024" y="251" on="1"/>
        <pt x="1024" y="0" on="1"/>
        <pt x="256" y="0" on="1"/>
        <pt x="256" y="256" on="1"/>
        <pt x="0" y="256" on="1"/>
        <pt x="0" y="1280" on="1"/>
        <pt x="256" y="1280" on="1"/>
        <pt x="256" y="1536" on="1"/>
        <pt x="512" y="1536" on="1"/>
        <pt x="512" y="1792" on="1"/>
        <pt x="256" y="1792" on="1"/>
        <pt x="256" y="2304" on="1"/>
        <pt x="512" y="2304" on="1"/>
        <pt x="512" y="2560" on="1"/>
        <pt x="1280" y="2560" on="1"/>
        <pt x="1280" y="2304" on="1"/>
        <pt x="1536" y="2304" on="1"/>
        <pt x="1536" y="1792" on="1"/>
        <pt x="1280" y="1792" on="1"/>
        <pt x="1280" y="1536" on="1"/>
        <pt x="1024" y="1536" on="1"/>
        <pt x="1024" y="1280" on="1"/>
        <pt x="1280" y="1280" on="1"/>
      </contour>
    </TTGlyph>
    <TTGlyph name="aring" xMin="0" yMin="0" xMax="1792" yMax="1792">
      <contour>
        <pt x="768" y="1536" on="1"/>
        <pt x="512" y="1536" on="1"/>
        <pt x="512" y="256" on="1"/>
        <pt x="768" y="256" on="1"/>
      </contour>
      <contour>
        <pt x="0" y="1536" on="1"/>
        <pt x="256" y="1536" on="1"/>
        <pt x="256" y="1792" on="1"/>
        <pt x="1792" y="1792" on="1"/>
        <pt x="1792" y="1536" on="1"/>
        <pt x="1280" y="1536" on="1"/>
        <pt x="1280" y="256" on="1"/>
        <pt x="1024" y="256" on="1"/>
        <pt x="1024" y="0" on="1"/>
        <pt x="256" y="0" on="1"/>
        <pt x="256" y="256" on="1"/>
        <pt x="0" y="256" on="1"/>
      </contour>
    </TTGlyph>
    <TTGlyph name="asciicircum" xMin="0" yMin="2048" xMax="1792" yMax="3072">
      <contour>
        <pt x="1024" y="2560" on="1"/>
        <pt x="768" y="2560" on="1"/>
        <pt x="768" y="2304" on="1"/>
        <pt x="512" y="2304" on="1"/>
        <pt x="512" y="2048" on="1"/>
        <pt x="0" y="2048" on="1"/>
        <pt x="0" y="2304" on="1"/>
        <pt x="256" y="2304" on="1"/>
        <pt x="256" y="2560" on="1"/>
        <pt x="512" y="2560" on="1"/>
        <pt x="512" y="2816" on="1"/>
        <pt x="768" y="2816" on="1"/>
        <pt x="768" y="3072" on="1"/>
        <pt x="1024" y="3072" on="1"/>
        <pt x="1024" y="2816" on="1"/>
        <pt x="1280" y="2816" on="1"/>
        <pt x="1280" y="2560" on="1"/>
        <pt x="1536" y="2560" on="1"/>
        <pt x="1536" y="2304" on="1"/>
        <pt x="1792" y="2304" on="1"/>
        <pt x="1792" y="2048" on="1"/>
        <pt x="1280" y="2048" on="1"/>
        <pt x="1280" y="2304" on="1"/>
        <pt x="1024" y="2304" on="1"/>
      </contour>
    </TTGlyph>
    <TTGlyph name="asciitilde" xMin="0" yMin="2304" xMax="1792" yMax="2816">
      <contour>
        <pt x="1280" y="2816" on="1"/>
        <pt x="1792" y="2816" on="1"/>
        <pt x="1792" y="2560" on="1"/>
        <pt x="1536" y="2560" on="1"/>
        <pt x="1536" y="2304" on="1"/>
        <pt x="768" y="2304" on="1"/>
        <pt x="768" y="2560" on="1"/>
        <pt x="512" y="2560" on="1"/>
        <pt x="512" y="2304" on="1"/>
        <pt x="0" y="2304" on="1"/>
        <pt x="0" y="2560" on="1"/>
        <pt x="256" y="2560" on="1"/>
        <pt x="256" y="2816" on="1"/>
        <pt x="1024" y="2816" on="1"/>
        <pt x="1024" y="2560" on="1"/>
        <pt x="1280" y="2560" on="1"/>
      </contour>
    </TTGlyph>
    <TTGlyph name="asterisk" xMin="0" yMin="512" xMax="2048" yMax="1792">
      <contour>
        <pt x="256" y="1792" on="1"/>
        <pt x="768" y="1792" on="1"/>
        <pt x="768" y="1536" on="1"/>
        <pt x="1280" y="1536" on="1"/>
        <pt x="1280" y="1792" on="1"/>
        <pt x="1792" y="1792" on="1"/>
        <pt x="1792" y="1536" on="1"/>
        <pt x="1536" y="1536" on="1"/>
        <pt x="1536" y="1280" on="1"/>
        <pt x="2048" y="1280" on="1"/>
        <pt x="2048" y="1024" on="1"/>
        <pt x="1536" y="1024" on="1"/>
        <pt x="1536" y="768" on="1"/>
        <pt x="1792" y="768" on="1"/>
        <pt x="1792" y="512" on="1"/>
        <pt x="1280" y="512" on="1"/>
        <pt x="1280" y="768" on="1"/>
        <pt x="768" y="768" on="1"/>
        <pt x="768" y="512" on="1"/>
        <pt x="256" y="512" on="1"/>
        <pt x="256" y="768" on="1"/>
        <pt x="512" y="768" on="1"/>
        <pt x="512" y="1024" on="1"/>
        <pt x="0" y="1024" on="1"/>
        <pt x="0" y="1280" on="1"/>
        <pt x="512" y="1280" on="1"/>
        <pt x="512" y="1536" on="1"/>
        <pt x="256" y="1536" on="1"/>
      </contour>
    </TTGlyph>
    <TTGlyph name="at" xMin="0" yMin="0" xMax="1792" yMax="2304">
      <contour>
        <pt x="768" y="1536" on="1"/>
        <pt x="1280" y="1536" on="1"/>
        <pt x="1280" y="2048" on="1"/>
        <pt x="512" y="2048" on="1"/>
        <pt x="512" y="256" on="1"/>
        <pt x="1536" y="256" on="1"/>
        <pt x="1536" y="0" on="1"/>
        <pt x="256" y="0" on="1"/>
        <pt x="256" y="256" on="1"/>
        <pt x="0" y="256" on="1"/>
        <pt x="0" y="2048" on="1"/>
        <pt x="256" y="2048" on="1"/>
        <pt x="256" y="2304" on="1"/>
        <pt x="1536" y="2304" on="1"/>
        <pt x="1536" y="2048" on="1"/>
        <pt x="1792" y="2048" on="1"/>
        <pt x="1792" y="768" on="1"/>
        <pt x="1536" y="768" on="1"/>
        <pt x="1536" y="512" on="1"/>
        <pt x="768" y="512" on="1"/>
      </contour>
    </TTGlyph>
    <TTGlyph name="atilde" xMin="0" yMin="0" xMax="1792" yMax="1792">
      <contour>
        <pt x="1024" y="1536" on="1"/>
        <pt x="768" y="1536" on="1"/>
        <pt x="768" y="0" on="1"/>
        <pt x="256" y="0" on="1"/>
        <pt x="256" y="1536" on="1"/>
        <pt x="0" y="1536" on="1"/>
        <pt x="0" y="1792" on="1"/>
        <pt x="1792" y="1792" on="1"/>
        <pt x="1792" y="1536" on="1"/>
        <pt x="1536" y="1536" on="1"/>
        <pt x="1536" y="0" on="1"/>
        <pt x="1024" y="0" on="1"/>
      </contour>
    </TTGlyph>
    <TTGlyph name="b" xMin="0" yMin="0" xMax="1792" yMax="2560">
      <contour>
        <pt x="1024" y="1536" on="1"/>
        <pt x="768" y="1536" on="1"/>
        <pt x="768" y="256" on="1"/>
        <pt x="1280" y="256" on="1"/>
        <pt x="1280" y="1280" on="1"/>
        <pt x="1024" y="1280" on="1"/>
      </contour>
      <contour>
        <pt x="768" y="1792" on="1"/>
        <pt x="1280" y="1792" on="1"/>
        <pt x="1280" y="1536" on="1"/>
        <pt x="1536" y="1536" on="1"/>
        <pt x="1536" y="1280" on="1"/>
        <pt x="1792" y="1280" on="1"/>
        <pt x="1792" y="256" on="1"/>
        <pt x="1536" y="256" on="1"/>
        <pt x="1536" y="0" on="1"/>
        <pt x="256" y="0" on="1"/>
        <pt x="256" y="2304" on="1"/>
        <pt x="0" y="2304" on="1"/>
        <pt x="0" y="2560" on="1"/>
        <pt x="768" y="2560" on="1"/>
      </contour>
    </TTGlyph>
    <TTGlyph name="backslash" xMin="0" yMin="0" xMax="1792" yMax="2304">
      <contour>
        <pt x="1536" y="256" on="1"/>
        <pt x="1280" y="256" on="1"/>
        <pt x="1280" y="512" on="1"/>
        <pt x="1024" y="512" on="1"/>
        <pt x="1024" y="768" on="1"/>
        <pt x="768" y="768" on="1"/>
        <pt x="768" y="1024" on="1"/>
        <pt x="512" y="1024" on="1"/>
        <pt x="512" y="1280" on="1"/>
        <pt x="256" y="1280" on="1"/>
        <pt x="256" y="1536" on="1"/>
        <pt x="0" y="1536" on="1"/>
        <pt x="0" y="2304" on="1"/>
        <pt x="256" y="2304" on="1"/>
        <pt x="256" y="2048" on="1"/>
        <pt x="512" y="2048" on="1"/>
        <pt x="512" y="1792" on="1"/>
        <pt x="768" y="1792" on="1"/>
        <pt x="768" y="1536" on="1"/>
        <pt x="1024" y="1536" on="1"/>
        <pt x="1024" y="1280" on="1"/>
        <pt x="1280" y="1280" on="1"/>
        <pt x="1280" y="1024" on="1"/>
        <pt x="1536" y="1024" on="1"/>
        <pt x="1536" y="768" on="1"/>
        <pt x="1792" y="768" on="1"/>
        <pt x="1792" y="0" on="1"/>
        <pt x="1536" y="0" on="1"/>
      </contour>
    </TTGlyph>
    <TTGlyph name="bar" xMin="768" yMin="0" xMax="1280" yMax="2560">
      <contour>
        <pt x="768" y="2560" on="1"/>
        <pt x="1280" y="2560" on="1"/>
        <pt x="1280" y="0" on="1"/>
        <pt x="768" y="0" on="1"/>
      </contour>
    </TTGlyph>
    <TTGlyph name="braceleft" xMin="256" yMin="0" xMax="1792" yMax="2560">
      <contour>
        <pt x="1024" y="2560" on="1"/>
        <pt x="1792" y="2560" on="1"/>
        <pt x="1792" y="2304" on="1"/>
        <pt x="1280" y="2304" on="1"/>
        <pt x="1280" y="1536" on="1"/>
        <pt x="1024" y="1536" on="1"/>
        <pt x="1024" y="1280" on="1"/>
        <pt x="1280" y="1280" on="1"/>
        <pt x="1280" y="256" on="1"/>
        <pt x="1792" y="256" on="1"/>
        <pt x="1792" y="0" on="1"/>
        <pt x="1024" y="0" on="1"/>
        <pt x="1024" y="256" on="1"/>
        <pt x="768" y="256" on="1"/>
        <pt x="768" y="1280" on="1"/>
        <pt x="256" y="1280" on="1"/>
        <pt x="256" y="1536" on="1"/>
        <pt x="768" y="1536" on="1"/>
        <pt x="768" y="2304" on="1"/>
        <pt x="1024" y="2304" on="1"/>
      </contour>
    </TTGlyph>
    <TTGlyph name="braceright" xMin="256" yMin="0" xMax="1792" yMax="2560">
      <contour>
        <pt x="256" y="256" on="1"/>
        <pt x="768" y="256" on="1"/>
        <pt x="768" y="1280" on="1"/>
        <pt x="1024" y="1280" on="1"/>
        <pt x="1024" y="1536" on="1"/>
        <pt x="768" y="1536" on="1"/>
        <pt x="768" y="2304" on="1"/>
        <pt x="256" y="2304" on="1"/>
        <pt x="256" y="2560" on="1"/>
        <pt x="1024" y="2560" on="1"/>
        <pt x="1024" y="2304" on="1"/>
        <pt x="1280" y="2304" on="1"/>
        <pt x="1280" y="1536" on="1"/>
        <pt x="1792" y="1536" on="1"/>
        <pt x="1792" y="1280" on="1"/>
        <pt x="1280" y="1280" on="1"/>
        <pt x="1280" y="256" on="1"/>
        <pt x="1024" y="256" on="1"/>
        <pt x="1024" y="0" on="1"/>
        <pt x="256" y="0" on="1"/>
      </contour>
    </TTGlyph>
    <TTGlyph name="bracketleft" xMin="512" yMin="0" xMax="1536" yMax="2560">
      <contour>
        <pt x="1024" y="256" on="1"/>
        <pt x="1536" y="256" on="1"/>
        <pt x="1536" y="0" on="1"/>
        <pt x="512" y="0" on="1"/>
        <pt x="512" y="2560" on="1"/>
        <pt x="1536" y="2560" on="1"/>
        <pt x="1536" y="2304" on="1"/>
        <pt x="1024" y="2304" on="1"/>
      </contour>
    </TTGlyph>
    <TTGlyph name="bracketright" xMin="512" yMin="0" xMax="1536" yMax="2560">
      <contour>
        <pt x="512" y="256" on="1"/>
        <pt x="1024" y="256" on="1"/>
        <pt x="1024" y="2304" on="1"/>
        <pt x="512" y="2304" on="1"/>
        <pt x="512" y="2560" on="1"/>
        <pt x="1536" y="2560" on="1"/>
        <pt x="1536" y="0" on="1"/>
        <pt x="512" y="0" on="1"/>
      </contour>
    </TTGlyph>
    <TTGlyph name="brokenbar" xMin="256" yMin="1024" xMax="1792" yMax="2560">
      <contour>
        <pt x="768" y="1792" on="1"/>
        <pt x="1024" y="1792" on="1"/>
        <pt x="1024" y="2304" on="1"/>
        <pt x="768" y="2304" on="1"/>
      </contour>
      <contour>
        <pt x="256" y="1280" on="1"/>
        <pt x="1792" y="1280" on="1"/>
        <pt x="1792" y="1024" on="1"/>
        <pt x="256" y="1024" on="1"/>
      </contour>
      <contour>
        <pt x="512" y="1792" on="1"/>
        <pt x="256" y="1792" on="1"/>
        <pt x="256" y="2304" on="1"/>
        <pt x="512" y="2304" on="1"/>
        <pt x="512" y="2560" on="1"/>
        <pt x="1536" y="2560" on="1"/>
        <pt x="1536" y="1792" on="1"/>
        <pt x="1792" y="1792" on="1"/>
        <pt x="1792" y="1536" on="1"/>
        <pt x="512" y="1536" on="1"/>
      </contour>
    </TTGlyph>
    <TTGlyph name="bullet" xMin="0" yMin="0" xMax="1792" yMax="2816">
      <contour>
        <pt x="256" y="2816" on="1"/>
        <pt x="768" y="2816" on="1"/>
        <pt x="768" y="2560" on="1"/>
        <pt x="1024" y="2560" on="1"/>
        <pt x="1024" y="2304" on="1"/>
        <pt x="1280" y="2304" on="1"/>
        <pt x="1280" y="2048" on="1"/>
        <pt x="768" y="2048" on="1"/>
        <pt x="768" y="2304" on="1"/>
        <pt x="512" y="2304" on="1"/>
        <pt x="512" y="2560" on="1"/>
        <pt x="256" y="2560" on="1"/>
      </contour>
      <contour>
        <pt x="1280" y="1536" on="1"/>
        <pt x="512" y="1536" on="1"/>
        <pt x="512" y="256" on="1"/>
        <pt x="1280" y="256" on="1"/>
      </contour>
      <contour>
        <pt x="256" y="256" on="1"/>
        <pt x="0" y="256" on="1"/>
        <pt x="0" y="1536" on="1"/>
        <pt x="256" y="1536" on="1"/>
        <pt x="256" y="1792" on="1"/>
        <pt x="1536" y="1792" on="1"/>
        <pt x="1536" y="1536" on="1"/>
        <pt x="1792" y="1536" on="1"/>
        <pt x="1792" y="256" on="1"/>
        <pt x="1536" y="256" on="1"/>
        <pt x="1536" y="0" on="1"/>
        <pt x="256" y="0" on="1"/>
      </contour>
    </TTGlyph>
    <TTGlyph name="c" xMin="0" yMin="0" xMax="1792" yMax="1792">
      <contour>
        <pt x="1280" y="1536" on="1"/>
        <pt x="512" y="1536" on="1"/>
        <pt x="512" y="256" on="1"/>
        <pt x="1280" y="256" on="1"/>
        <pt x="1280" y="512" on="1"/>
        <pt x="1792" y="512" on="1"/>
        <pt x="1792" y="256" on="1"/>
        <pt x="1536" y="256" on="1"/>
        <pt x="1536" y="0" on="1"/>
        <pt x="256" y="0" on="1"/>
        <pt x="256" y="256" on="1"/>
        <pt x="0" y="256" on="1"/>
        <pt x="0" y="1536" on="1"/>
        <pt x="256" y="1536" on="1"/>
        <pt x="256" y="1792" on="1"/>
        <pt x="1536" y="1792" on="1"/>
        <pt x="1536" y="1536" on="1"/>
        <pt x="1792" y="1536" on="1"/>
        <pt x="1792" y="1280" on="1"/>
        <pt x="1280" y="1280" on="1"/>
      </contour>
    </TTGlyph>
    <TTGlyph name="ccedilla" xMin="0" yMin="0" xMax="1792" yMax="2048">
      <contour>
        <pt x="768" y="1792" on="1"/>
        <pt x="512" y="1792" on="1"/>
        <pt x="512" y="1536" on="1"/>
        <pt x="0" y="1536" on="1"/>
        <pt x="0" y="1792" on="1"/>
        <pt x="256" y="1792" on="1"/>
        <pt x="256" y="2048" on="1"/>
        <pt x="1024" y="2048" on="1"/>
        <pt x="1024" y="1792" on="1"/>
        <pt x="1280" y="1792" on="1"/>
        <pt x="1280" y="2048" on="1"/>
        <pt x="1792" y="2048" on="1"/>
        <pt x="1792" y="1792" on="1"/>
        <pt x="1536" y="1792" on="1"/>
        <pt x="1536" y="1536" on="1"/>
        <pt x="1280" y="1536" on="1"/>
        <pt x="1280" y="0" on="1"/>
        <pt x="768" y="0" on="1"/>
      </contour>
    </TTGlyph>
    <TTGlyph name="cedilla" xMin="0" yMin="-1024" xMax="1280" yMax="1792">
      <contour>
        <pt x="0" y="1792" on="1"/>
        <pt x="1280" y="1792" on="1"/>
        <pt x="1280" y="-1024" on="1"/>
        <pt x="768" y="-1024" on="1"/>
        <pt x="768" y="1024" on="1"/>
        <pt x="0" y="1024" on="1"/>
        <pt x="0" y="1280" on="1"/>
        <pt x="768" y="1280" on="1"/>
        <pt x="768" y="1536" on="1"/>
        <pt x="0" y="1536" on="1"/>
      </contour>
    </TTGlyph>
    <TTGlyph name="cent" xMin="0" yMin="0" xMax="1792" yMax="2816">
      <contour>
        <pt x="768" y="2816" on="1"/>
        <pt x="1280" y="2816" on="1"/>
        <pt x="1280" y="2560" on="1"/>
        <pt x="1024" y="2560" on="1"/>
        <pt x="1024" y="2304" on="1"/>
        <pt x="768" y="2304" on="1"/>
        <pt x="768" y="2048" on="1"/>
        <pt x="256" y="2048" on="1"/>
        <pt x="256" y="2304" on="1"/>
        <pt x="512" y="2304" on="1"/>
        <pt x="512" y="2560" on="1"/>
        <pt x="768" y="2560" on="1"/>
      </contour>
      <contour>
        <pt x="1280" y="1536" on="1"/>
        <pt x="512" y="1536" on="1"/>
        <pt x="512" y="256" on="1"/>
        <pt x="1280" y="256" on="1"/>
      </contour>
      <contour>
        <pt x="256" y="256" on="1"/>
        <pt x="0" y="256" on="1"/>
        <pt x="0" y="1536" on="1"/>
        <pt x="256" y="1536" on="1"/>
        <pt x="256" y="1792" on="1"/>
        <pt x="1536" y="1792" on="1"/>
        <pt x="1536" y="1536" on="1"/>
        <pt x="1792" y="1536" on="1"/>
        <pt x="1792" y="256" on="1"/>
        <pt x="1536" y="256" on="1"/>
        <pt x="1536" y="0" on="1"/>
        <pt x="256" y="0" on="1"/>
      </contour>
    </TTGlyph>
    <TTGlyph name="circumflex" xMin="0" yMin="0" xMax="1792" yMax="2816">
      <contour>
        <pt x="512" y="1280" on="1"/>
        <pt x="1280" y="1280" on="1"/>
        <pt x="1280" y="1536" on="1"/>
        <pt x="512" y="1536" on="1"/>
      </contour>
      <contour>
        <pt x="768" y="2816" on="1"/>
        <pt x="1024" y="2816" on="1"/>
        <pt x="1024" y="2560" on="1"/>
        <pt x="1280" y="2560" on="1"/>
        <pt x="1280" y="2304" on="1"/>
        <pt x="1536" y="2304" on="1"/>
        <pt x="1536" y="2048" on="1"/>
        <pt x="1024" y="2048" on="1"/>
        <pt x="1024" y="2304" on="1"/>
        <pt x="768" y="2304" on="1"/>
        <pt x="768" y="2048" on="1"/>
        <pt x="256" y="2048" on="1"/>
        <pt x="256" y="2304" on="1"/>
        <pt x="512" y="2304" on="1"/>
        <pt x="512" y="2560" on="1"/>
        <pt x="768" y="2560" on="1"/>
      </contour>
      <contour>
        <pt x="256" y="1792" on="1"/>
        <pt x="1536" y="1792" on="1"/>
        <pt x="1536" y="1536" on="1"/>
        <pt x="1792" y="1536" on="1"/>
        <pt x="1792" y="1024" on="1"/>
        <pt x="512" y="1024" on="1"/>
        <pt x="512" y="256" on="1"/>
        <pt x="1280" y="256" on="1"/>
        <pt x="1280" y="512" on="1"/>
        <pt x="1792" y="512" on="1"/>
        <pt x="1792" y="256" on="1"/>
        <pt x="1536" y="256" on="1"/>
        <pt x="1536" y="0" on="1"/>
        <pt x="256" y="0" on="1"/>
        <pt x="256" y="256" on="1"/>
        <pt x="0" y="256" on="1"/>
        <pt x="0" y="1536" on="1"/>
        <pt x="256" y="1536" on="1"/>
      </contour>
    </TTGlyph>
    <TTGlyph name="colon" xMin="768" yMin="256" xMax="1280" yMax="2048">
      <contour>
        <pt x="768" y="768" on="1"/>
        <pt x="1280" y="768" on="1"/>
        <pt x="1280" y="256" on="1"/>
        <pt x="768" y="256" on="1"/>
      </contour>
      <contour>
        <pt x="768" y="2048" on="1"/>
        <pt x="1280" y="2048" on="1"/>
        <pt x="1280" y="1536" on="1"/>
        <pt x="768" y="1536" on="1"/>
      </contour>
    </TTGlyph>
    <TTGlyph name="comma" xMin="512" yMin="-256" xMax="1280" yMax="768">
      <contour>
        <pt x="512" y="0" on="1"/>
        <pt x="768" y="0" on="1"/>
        <pt x="768" y="768" on="1"/>
        <pt x="1280" y="768" on="1"/>
        <pt x="1280" y="0" on="1"/>
        <pt x="1024" y="0" on="1"/>
        <pt x="1024" y="-256" on="1"/>
        <pt x="512" y="-256" on="1"/>
      </contour>
    </TTGlyph>
    <TTGlyph name="copyright" xMin="0" yMin="256" xMax="1792" yMax="1536">
      <contour>
        <pt x="512" y="256" on="1"/>
        <pt x="0" y="256" on="1"/>
        <pt x="0" y="1536" on="1"/>
        <pt x="1792" y="1536" on="1"/>
        <pt x="1792" y="1280" on="1"/>
        <pt x="512" y="1280" on="1"/>
      </contour>
    </TTGlyph>
    <TTGlyph name="currency" xMin="0" yMin="0" xMax="1792" yMax="2560">
      <contour>
        <pt x="768" y="2304" on="1"/>
        <pt x="512" y="2304" on="1"/>
        <pt x="512" y="2048" on="1"/>
        <pt x="0" y="2048" on="1"/>
        <pt x="0" y="2304" on="1"/>
        <pt x="256" y="2304" on="1"/>
        <pt x="256" y="2560" on="1"/>
        <pt x="1024" y="2560" on="1"/>
        <pt x="1024" y="2304" on="1"/>
        <pt x="1280" y="2304" on="1"/>
        <pt x="1280" y="2560" on="1"/>
        <pt x="1792" y="2560" on="1"/>
        <pt x="1792" y="2304" on="1"/>
        <pt x="1536" y="2304" on="1"/>
        <pt x="1536" y="2048" on="1"/>
        <pt x="768" y="2048" on="1"/>
      </contour>
      <contour>
        <pt x="256" y="1536" on="1"/>
        <pt x="0" y="1536" on="1"/>
        <pt x="0" y="1792" on="1"/>
        <pt x="512" y="1792" on="1"/>
        <pt x="512" y="1536" on="1"/>
        <pt x="768" y="1536" on="1"/>
        <pt x="768" y="0" on="1"/>
        <pt x="256" y="0" on="1"/>
      </contour>
      <contour>
        <pt x="768" y="1792" on="1"/>
        <pt x="1536" y="1792" on="1"/>
        <pt x="1536" y="1536" on="1"/>
        <pt x="1792" y="1536" on="1"/>
        <pt x="1792" y="0" on="1"/>
        <pt x="1280" y="0" on="1"/>
        <pt x="1280" y="1536" on="1"/>
        <pt x="768" y="1536" on="1"/>
      </contour>
    </TTGlyph>
    <TTGlyph name="d" xMin="0" yMin="0" xMax="1792" yMax="2560">
      <contour>
        <pt x="1024" y="1536" on="1"/>
        <pt x="768" y="1536" on="1"/>
        <pt x="768" y="1280" on="1"/>
        <pt x="512" y="1280" on="1"/>
        <pt x="512" y="256" on="1"/>
        <pt x="1022" y="256" on="1"/>
        <pt x="1024" y="254" on="1"/>
        <pt x="1024" y="0" on="1"/>
        <pt x="256" y="0" on="1"/>
        <pt x="256" y="256" on="1"/>
        <pt x="0" y="256" on="1"/>
        <pt x="0" y="1280" on="1"/>
        <pt x="256" y="1280" on="1"/>
        <pt x="256" y="1536" on="1"/>
        <pt x="512" y="1536" on="1"/>
        <pt x="512" y="1792" on="1"/>
        <pt x="1024" y="1792" on="1"/>
        <pt x="1024" y="2304" on="1"/>
        <pt x="768" y="2304" on="1"/>
        <pt x="768" y="2560" on="1"/>
        <pt x="1536" y="2560" on="1"/>
        <pt x="1536" y="256" on="1"/>
        <pt x="1792" y="256" on="1"/>
        <pt x="1792" y="0" on="1"/>
        <pt x="1280" y="0" on="1"/>
        <pt x="1280" y="256" on="1"/>
        <pt x="1024" y="256" on="1"/>
      </contour>
    </TTGlyph>
    <TTGlyph name="dagger" xMin="0" yMin="0" xMax="1792" yMax="2816">
      <contour>
        <pt x="1024" y="2560" on="1"/>
        <pt x="768" y="2560" on="1"/>
        <pt x="768" y="2304" on="1"/>
        <pt x="1024" y="2304" on="1"/>
      </contour>
      <contour>
        <pt x="256" y="2560" on="1"/>
        <pt x="512" y="2560" on="1"/>
        <pt x="512" y="2816" on="1"/>
        <pt x="1280" y="2816" on="1"/>
        <pt x="1280" y="2560" on="1"/>
        <pt x="1536" y="2560" on="1"/>
        <pt x="1536" y="2304" on="1"/>
        <pt x="1280" y="2304" on="1"/>
        <pt x="1280" y="2048" on="1"/>
        <pt x="512" y="2048" on="1"/>
        <pt x="512" y="2304" on="1"/>
        <pt x="256" y="2304" on="1"/>
      </contour>
      <contour>
        <pt x="1024" y="0" on="1"/>
        <pt x="256" y="0" on="1"/>
        <pt x="256" y="256" on="1"/>
        <pt x="0" y="256" on="1"/>
        <pt x="0" y="1024" on="1"/>
        <pt x="256" y="1024" on="1"/>
        <pt x="256" y="1280" on="1"/>
        <pt x="1024" y="1280" on="1"/>
        <pt x="1024" y="1536" on="1"/>
        <pt x="256" y="1536" on="1"/>
        <pt x="256" y="1792" on="1"/>
        <pt x="1280" y="1792" on="1"/>
        <pt x="1280" y="1536" on="1"/>
        <pt x="1536" y="1536" on="1"/>
        <pt x="1536" y="256" on="1"/>
        <pt x="1792" y="256" on="1"/>
        <pt x="1792" y="0" on="1"/>
        <pt x="1280" y="0" on="1"/>
        <pt x="1280" y="256" on="1"/>
        <pt x="1026" y="256" on="1"/>
        <pt x="1024" y="258" on="1"/>
        <pt x="1024" y="1024" on="1"/>
        <pt x="512" y="1024" on="1"/>
        <pt x="512" y="256" on="1"/>
        <pt x="1024" y="256" on="1"/>
      </contour>
    </TTGlyph>
    <TTGlyph name="daggerdbl" xMin="0" yMin="-512" xMax="1792" yMax="1792">
      <contour>
        <pt x="256" y="-256" on="1"/>
        <pt x="768" y="-256" on="1"/>
        <pt x="768" y="0" on="1"/>
        <pt x="256" y="0" on="1"/>
        <pt x="256" y="256" on="1"/>
        <pt x="0" y="256" on="1"/>
        <pt x="0" y="1536" on="1"/>
        <pt x="256" y="1536" on="1"/>
        <pt x="256" y="1792" on="1"/>
        <pt x="1536" y="1792" on="1"/>
        <pt x="1536" y="1536" on="1"/>
        <pt x="1792" y="1536" on="1"/>
        <pt x="1792" y="1280" on="1"/>
        <pt x="1280" y="1280" on="1"/>
        <pt x="1280" y="1536" on="1"/>
        <pt x="512" y="1536" on="1"/>
        <pt x="512" y="256" on="1"/>
        <pt x="1280" y="256" on="1"/>
        <pt x="1280" y="512" on="1"/>
        <pt x="1792" y="512" on="1"/>
        <pt x="1792" y="256" on="1"/>
        <pt x="1536" y="256" on="1"/>
        <pt x="1536" y="0" on="1"/>
        <pt x="1280" y="0" on="1"/>
        <pt x="1280" y="-256" on="1"/>
        <pt x="1024" y="-256" on="1"/>
        <pt x="1024" y="-512" on="1"/>
        <pt x="256" y="-512" on="1"/>
      </contour>
    </TTGlyph>
    <TTGlyph name="dieresis" xMin="0" yMin="0" xMax="1792" yMax="2560">
      <contour>
        <pt x="512" y="2560" on="1"/>
        <pt x="1024" y="2560" on="1"/>
        <pt x="1024" y="2048" on="1"/>
        <pt x="512" y="2048" on="1"/>
      </contour>
      <contour>
        <pt x="512" y="1792" on="1"/>
        <pt x="1024" y="1792" on="1"/>
        <pt x="1024" y="1280" on="1"/>
        <pt x="768" y="1280" on="1"/>
        <pt x="768" y="1024" on="1"/>
        <pt x="512" y="1024" on="1"/>
        <pt x="512" y="256" on="1"/>
        <pt x="1280" y="256" on="1"/>
        <pt x="1280" y="768" on="1"/>
        <pt x="1792" y="768" on="1"/>
        <pt x="1792" y="256" on="1"/>
        <pt x="1536" y="256" on="1"/>
        <pt x="1536" y="0" on="1"/>
        <pt x="256" y="0" on="1"/>
        <pt x="256" y="256" on="1"/>
        <pt x="0" y="256" on="1"/>
        <pt x="0" y="1024" on="1"/>
        <pt x="256" y="1024" on="1"/>
        <pt x="256" y="1280" on="1"/>
        <pt x="512" y="1280" on="1"/>
      </contour>
    </TTGlyph>
    <TTGlyph name="divide" xMin="0" yMin="512" xMax="1792" yMax="1792">
      <contour>
        <pt x="1280" y="1792" on="1"/>
        <pt x="1792" y="1792" on="1"/>
        <pt x="1792" y="1536" on="1"/>
        <pt x="1536" y="1536" on="1"/>
        <pt x="1536" y="1280" on="1"/>
        <pt x="768" y="1280" on="1"/>
        <pt x="768" y="1536" on="1"/>
        <pt x="512" y="1536" on="1"/>
        <pt x="512" y="1280" on="1"/>
        <pt x="0" y="1280" on="1"/>
        <pt x="0" y="1536" on="1"/>
        <pt x="256" y="1536" on="1"/>
        <pt x="256" y="1792" on="1"/>
        <pt x="1024" y="1792" on="1"/>
        <pt x="1024" y="1536" on="1"/>
        <pt x="1280" y="1536" on="1"/>
      </contour>
      <contour>
        <pt x="1280" y="1024" on="1"/>
        <pt x="1792" y="1024" on="1"/>
        <pt x="1792" y="768" on="1"/>
        <pt x="1536" y="768" on="1"/>
        <pt x="1536" y="512" on="1"/>
        <pt x="768" y="512" on="1"/>
        <pt x="768" y="768" on="1"/>
        <pt x="512" y="768" on="1"/>
        <pt x="512" y="512" on="1"/>
        <pt x="0" y="512" on="1"/>
        <pt x="0" y="768" on="1"/>
        <pt x="256" y="768" on="1"/>
        <pt x="256" y="1024" on="1"/>
        <pt x="1024" y="1024" on="1"/>
        <pt x="1024" y="768" on="1"/>
        <pt x="1280" y="768" on="1"/>
      </contour>
    </TTGlyph>
    <TTGlyph name="dollar" xMin="0" yMin="-512" xMax="1792" yMax="3072">
      <contour>
        <pt x="1280" y="2304" on="1"/>
        <pt x="512" y="2304" on="1"/>
        <pt x="512" y="1536" on="1"/>
        <pt x="1536" y="1536" on="1"/>
        <pt x="1536" y="1280" on="1"/>
        <pt x="1792" y="1280" on="1"/>
        <pt x="1792" y="256" on="1"/>
        <pt x="1536" y="256" on="1"/>
        <pt x="1536" y="0" on="1"/>
        <pt x="1280" y="0" on="1"/>
        <pt x="1280" y="-512" on="1"/>
        <pt x="768" y="-512" on="1"/>
        <pt x="768" y="0" on="1"/>
        <pt x="256" y="0" on="1"/>
        <pt x="256" y="256" on="1"/>
        <pt x="0" y="256" on="1"/>
        <pt x="0" y="768" on="1"/>
        <pt x="256" y="768" on="1"/>
        <pt x="256" y="512" on="1"/>
        <pt x="512" y="512" on="1"/>
        <pt x="512" y="256" on="1"/>
        <pt x="1280" y="256" on="1"/>
        <pt x="1280" y="1280" on="1"/>
        <pt x="256" y="1280" on="1"/>
        <pt x="256" y="1536" on="1"/>
        <pt x="0" y="1536" on="1"/>
        <pt x="0" y="2304" on="1"/>
        <pt x="256" y="2304" on="1"/>
        <pt x="256" y="2560" on="1"/>
        <pt x="768" y="2560" on="1"/>
        <pt x="768" y="3072" on="1"/>
        <pt x="1280" y="3072" on="1"/>
        <pt x="1280" y="2560" on="1"/>
        <pt x="1536" y="2560" on="1"/>
        <pt x="1536" y="2304" on="1"/>
        <pt x="1792" y="2304" on="1"/>
        <pt x="1792" y="1792" on="1"/>
        <pt x="1536" y="1792" on="1"/>
        <pt x="1536" y="2048" on="1"/>
        <pt x="1280" y="2048" on="1"/>
      </contour>
    </TTGlyph>
    <TTGlyph name="e" xMin="0" yMin="0" xMax="1792" yMax="1792">
      <contour>
        <pt x="512" y="1280" on="1"/>
        <pt x="1280" y="1280" on="1"/>
        <pt x="1280" y="1536" on="1"/>
        <pt x="512" y="1536" on="1"/>
      </contour>
      <contour>
        <pt x="256" y="1792" on="1"/>
        <pt x="1536" y="1792" on="1"/>
        <pt x="1536" y="1536" on="1"/>
        <pt x="1792" y="1536" on="1"/>
        <pt x="1792" y="1024" on="1"/>
        <pt x="512" y="1024" on="1"/>
        <pt x="512" y="256" on="1"/>
        <pt x="1280" y="256" on="1"/>
        <pt x="1280" y="512" on="1"/>
        <pt x="1792" y="512" on="1"/>
        <pt x="1792" y="256" on="1"/>
        <pt x="1536" y="256" on="1"/>
        <pt x="1536" y="0" on="1"/>
        <pt x="256" y="0" on="1"/>
        <pt x="256" y="256" on="1"/>
        <pt x="0" y="256" on="1"/>
        <pt x="0" y="1536" on="1"/>
        <pt x="256" y="1536" on="1"/>
      </contour>
    </TTGlyph>
    <TTGlyph name="eacute" xMin="0" yMin="0" xMax="1792" yMax="2560">
      <contour>
        <pt x="512" y="1536" on="1"/>
        <pt x="1280" y="1536" on="1"/>
        <pt x="1280" y="2048" on="1"/>
        <pt x="1024" y="2048" on="1"/>
        <pt x="1024" y="2304" on="1"/>
        <pt x="768" y="2304" on="1"/>
        <pt x="768" y="2048" on="1"/>
        <pt x="512" y="2048" on="1"/>
      </contour>
      <contour>
        <pt x="512" y="512" on="1"/>
        <pt x="768" y="512" on="1"/>
        <pt x="768" y="256" on="1"/>
        <pt x="1024" y="256" on="1"/>
        <pt x="1024" y="512" on="1"/>
        <pt x="1280" y="512" on="1"/>
        <pt x="1280" y="1280" on="1"/>
        <pt x="512" y="1280" on="1"/>
      </contour>
      <contour>
        <pt x="512" y="256" on="1"/>
        <pt x="256" y="256" on="1"/>
        <pt x="256" y="512" on="1"/>
        <pt x="0" y="512" on="1"/>
        <pt x="0" y="2048" on="1"/>
        <pt x="256" y="2048" on="1"/>
        <pt x="256" y="2304" on="1"/>
        <pt x="512" y="2304" on="1"/>
        <pt x="512" y="2560" on="1"/>
        <pt x="1280" y="2560" on="1"/>
        <pt x="1280" y="2304" on="1"/>
        <pt x="1536" y="2304" on="1"/>
        <pt x="1536" y="2048" on="1"/>
        <pt x="1792" y="2048" on="1"/>
        <pt x="1792" y="512" on="1"/>
        <pt x="1536" y="512" on="1"/>
        <pt x="1536" y="256" on="1"/>
        <pt x="1280" y="256" on="1"/>
        <pt x="1280" y="0" on="1"/>
        <pt x="512" y="0" on="1"/>
      </contour>
    </TTGlyph>
    <TTGlyph name="ecircumflex" xMin="0" yMin="0" xMax="1792" yMax="2560">
      <contour>
        <pt x="1024" y="2304" on="1"/>
        <pt x="768" y="2304" on="1"/>
        <pt x="768" y="2048" on="1"/>
        <pt x="512" y="2048" on="1"/>
        <pt x="512" y="1280" on="1"/>
        <pt x="768" y="1280" on="1"/>
        <pt x="768" y="0" on="1"/>
        <pt x="0" y="0" on="1"/>
        <pt x="0" y="256" on="1"/>
        <pt x="256" y="256" on="1"/>
        <pt x="256" y="1280" on="1"/>
        <pt x="0" y="1280" on="1"/>
        <pt x="0" y="2048" on="1"/>
        <pt x="256" y="2048" on="1"/>
        <pt x="256" y="2304" on="1"/>
        <pt x="512" y="2304" on="1"/>
        <pt x="512" y="2560" on="1"/>
        <pt x="1280" y="2560" on="1"/>
        <pt x="1280" y="2304" on="1"/>
        <pt x="1536" y="2304" on="1"/>
        <pt x="1536" y="2048" on="1"/>
        <pt x="1792" y="2048" on="1"/>
        <pt x="1792" y="1280" on="1"/>
        <pt x="1536" y="1280" on="1"/>
        <pt x="1536" y="256" on="1"/>
        <pt x="1792" y="256" on="1"/>
        <pt x="1792" y="0" on="1"/>
        <pt x="1024" y="0" on="1"/>
        <pt x="1024" y="1280" on="1"/>
        <pt x="1280" y="1280" on="1"/>
        <pt x="1280" y="2048" on="1"/>
        <pt x="1024" y="2048" on="1"/>
      </contour>
    </TTGlyph>
    <TTGlyph name="edieresis" xMin="256" yMin="0" xMax="1792" yMax="2560">
      <contour>
        <pt x="1280" y="1280" on="1"/>
        <pt x="768" y="1280" on="1"/>
        <pt x="768" y="256" on="1"/>
        <pt x="1280" y="256" on="1"/>
      </contour>
      <contour>
        <pt x="768" y="2560" on="1"/>
        <pt x="1792" y="2560" on="1"/>
        <pt x="1792" y="2304" on="1"/>
        <pt x="1024" y="2304" on="1"/>
        <pt x="1024" y="2048" on="1"/>
        <pt x="1280" y="2048" on="1"/>
        <pt x="1280" y="1792" on="1"/>
        <pt x="1536" y="1792" on="1"/>
        <pt x="1536" y="1536" on="1"/>
        <pt x="1792" y="1536" on="1"/>
        <pt x="1792" y="256" on="1"/>
        <pt x="1536" y="256" on="1"/>
        <pt x="1536" y="0" on="1"/>
        <pt x="512" y="0" on="1"/>
        <pt x="512" y="256" on="1"/>
        <pt x="256" y="256" on="1"/>
        <pt x="256" y="1280" on="1"/>
        <pt x="512" y="1280" on="1"/>
        <pt x="512" y="1536" on="1"/>
        <pt x="1024" y="1536" on="1"/>
        <pt x="1024" y="1792" on="1"/>
        <pt x="768" y="1792" on="1"/>
        <pt x="768" y="2048" on="1"/>
        <pt x="512" y="2048" on="1"/>
        <pt x="512" y="2304" on="1"/>
        <pt x="768" y="2304" on="1"/>
      </contour>
    </TTGlyph>
    <TTGlyph name="egrave" xMin="256" yMin="0" xMax="1792" yMax="2560">
      <contour>
        <pt x="1280" y="1792" on="1"/>
        <pt x="768" y="1792" on="1"/>
        <pt x="768" y="768" on="1"/>
        <pt x="1280" y="768" on="1"/>
      </contour>
      <contour>
        <pt x="256" y="1792" on="1"/>
        <pt x="512" y="1792" on="1"/>
        <pt x="512" y="2048" on="1"/>
        <pt x="768" y="2048" on="1"/>
        <pt x="768" y="2304" on="1"/>
        <pt x="256" y="2304" on="1"/>
        <pt x="256" y="2560" on="1"/>
        <pt x="1792" y="2560" on="1"/>
        <pt x="1792" y="2304" on="1"/>
        <pt x="1280" y="2304" on="1"/>
        <pt x="1280" y="2048" on="1"/>
        <pt x="1536" y="2048" on="1"/>
        <pt x="1536" y="1792" on="1"/>
        <pt x="1792" y="1792" on="1"/>
        <pt x="1792" y="768" on="1"/>
        <pt x="1536" y="768" on="1"/>
        <pt x="1536" y="512" on="1"/>
        <pt x="1280" y="512" on="1"/>
        <pt x="1280" y="256" on="1"/>
        <pt x="1792" y="256" on="1"/>
        <pt x="1792" y="0" on="1"/>
        <pt x="256" y="0" on="1"/>
        <pt x="256" y="256" on="1"/>
        <pt x="768" y="256" on="1"/>
        <pt x="768" y="512" on="1"/>
        <pt x="512" y="512" on="1"/>
        <pt x="512" y="768" on="1"/>
        <pt x="256" y="768" on="1"/>
      </contour>
    </TTGlyph>
    <TTGlyph name="eight" xMin="0" yMin="0" xMax="1792" yMax="2560">
      <contour>
        <pt x="1280" y="2304" on="1"/>
        <pt x="512" y="2304" on="1"/>
        <pt x="512" y="1536" on="1"/>
        <pt x="1280" y="1536" on="1"/>
      </contour>
      <contour>
        <pt x="1280" y="1280" on="1"/>
        <pt x="512" y="1280" on="1"/>
        <pt x="512" y="256" on="1"/>
        <pt x="1280" y="256" on="1"/>
      </contour>
      <contour>
        <pt x="0" y="1280" on="1"/>
        <pt x="256" y="1280" on="1"/>
        <pt x="256" y="1536" on="1"/>
        <pt x="0" y="1536" on="1"/>
        <pt x="0" y="2304" on="1"/>
        <pt x="256" y="2304" on="1"/>
        <pt x="256" y="2560" on="1"/>
        <pt x="1536" y="2560" on="1"/>
        <pt x="1536" y="2304" on="1"/>
        <pt x="1792" y="2304" on="1"/>
        <pt x="1792" y="1536" on="1"/>
        <pt x="1536" y="1536" on="1"/>
        <pt x="1536" y="1280" on="1"/>
        <pt x="1792" y="1280" on="1"/>
        <pt x="1792" y="256" on="1"/>
        <pt x="1536" y="256" on="1"/>
        <pt x="1536" y="0" on="1"/>
        <pt x="256" y="0" on="1"/>
        <pt x="256" y="256" on="1"/>
        <pt x="0" y="256" on="1"/>
      </contour>
    </TTGlyph>
    <TTGlyph name="ellipsis" xMin="0" yMin="0" xMax="1792" yMax="2816">
      <contour>
        <pt x="768" y="2304" on="1"/>
        <pt x="512" y="2304" on="1"/>
        <pt x="512" y="2560" on="1"/>
        <pt x="256" y="2560" on="1"/>
        <pt x="256" y="2816" on="1"/>
        <pt x="768" y="2816" on="1"/>
        <pt x="768" y="2560" on="1"/>
        <pt x="1024" y="2560" on="1"/>
        <pt x="1024" y="2304" on="1"/>
        <pt x="1280" y="2304" on="1"/>
        <pt x="1280" y="2048" on="1"/>
        <pt x="768" y="2048" on="1"/>
      </contour>
      <contour>
        <pt x="1024" y="0" on="1"/>
        <pt x="256" y="0" on="1"/>
        <pt x="256" y="256" on="1"/>
        <pt x="0" y="256" on="1"/>
        <pt x="0" y="1024" on="1"/>
        <pt x="256" y="1024" on="1"/>
        <pt x="256" y="1280" on="1"/>
        <pt x="1024" y="1280" on="1"/>
        <pt x="1024" y="1536" on="1"/>
        <pt x="256" y="1536" on="1"/>
        <pt x="256" y="1792" on="1"/>
        <pt x="1280" y="1792" on="1"/>
        <pt x="1280" y="1536" on="1"/>
        <pt x="1536" y="1536" on="1"/>
        <pt x="1536" y="256" on="1"/>
        <pt x="1792" y="256" on="1"/>
        <pt x="1792" y="0" on="1"/>
        <pt x="1280" y="0" on="1"/>
        <pt x="1280" y="256" on="1"/>
        <pt x="1026" y="256" on="1"/>
        <pt x="1024" y="258" on="1"/>
        <pt x="1024" y="1024" on="1"/>
        <pt x="512" y="1024" on="1"/>
        <pt x="512" y="256" on="1"/>
        <pt x="1024" y="256" on="1"/>
      </contour>
    </TTGlyph>
    <TTGlyph name="emdash" xMin="0" yMin="0" xMax="1792" yMax="2816">
      <contour>
        <pt x="256" y="2816" on="1"/>
        <pt x="768" y="2816" on="1"/>
        <pt x="768" y="2560" on="1"/>
        <pt x="1024" y="2560" on="1"/>
        <pt x="1024" y="2304" on="1"/>
        <pt x="1280" y="2304" on="1"/>
        <pt x="1280" y="2048" on="1"/>
        <pt x="768" y="2048" on="1"/>
        <pt x="768" y="2304" on="1"/>
        <pt x="512" y="2304" on="1"/>
        <pt x="512" y="2560" on="1"/>
        <pt x="256" y="2560" on="1"/>
      </contour>
      <contour>
        <pt x="1024" y="1792" on="1"/>
        <pt x="1536" y="1792" on="1"/>
        <pt x="1536" y="256" on="1"/>
        <pt x="1792" y="256" on="1"/>
        <pt x="1792" y="0" on="1"/>
        <pt x="1280" y="0" on="1"/>
        <pt x="1280" y="256" on="1"/>
        <pt x="1024" y="256" on="1"/>
      </contour>
      <contour>
        <pt x="0" y="1792" on="1"/>
        <pt x="512" y="1792" on="1"/>
        <pt x="512" y="256" on="1"/>
        <pt x="1024" y="256" on="1"/>
        <pt x="1024" y="0" on="1"/>
        <pt x="256" y="0" on="1"/>
        <pt x="256" y="256" on="1"/>
        <pt x="0" y="256" on="1"/>
      </contour>
    </TTGlyph>
    <TTGlyph name="endash" xMin="0" yMin="0" xMax="1792" yMax="2816">
      <contour>
        <pt x="1024" y="2304" on="1"/>
        <pt x="512" y="2304" on="1"/>
        <pt x="512" y="2048" on="1"/>
        <pt x="0" y="2048" on="1"/>
        <pt x="0" y="2304" on="1"/>
        <pt x="256" y="2304" on="1"/>
        <pt x="256" y="2560" on="1"/>
        <pt x="512" y="2560" on="1"/>
        <pt x="512" y="2816" on="1"/>
        <pt x="1024" y="2816" on="1"/>
        <pt x="1024" y="2560" on="1"/>
        <pt x="1280" y="2560" on="1"/>
        <pt x="1280" y="2304" on="1"/>
        <pt x="1536" y="2304" on="1"/>
        <pt x="1536" y="2048" on="1"/>
        <pt x="1024" y="2048" on="1"/>
      </contour>
      <contour>
        <pt x="1024" y="1792" on="1"/>
        <pt x="1536" y="1792" on="1"/>
        <pt x="1536" y="256" on="1"/>
        <pt x="1792" y="256" on="1"/>
        <pt x="1792" y="0" on="1"/>
        <pt x="1280" y="0" on="1"/>
        <pt x="1280" y="256" on="1"/>
        <pt x="1024" y="256" on="1"/>
      </contour>
      <contour>
        <pt x="0" y="1792" on="1"/>
        <pt x="512" y="1792" on="1"/>
        <pt x="512" y="256" on="1"/>
        <pt x="1024" y="256" on="1"/>
        <pt x="1024" y="0" on="1"/>
        <pt x="256" y="0" on="1"/>
        <pt x="256" y="256" on="1"/>
        <pt x="0" y="256" on="1"/>
      </contour>
    </TTGlyph>
    <TTGlyph name="equal" xMin="256" yMin="768" xMax="1792" yMax="1792">
      <contour>
        <pt x="256" y="1792" on="1"/>
        <pt x="1792" y="1792" on="1"/>
        <pt x="1792" y="1536" on="1"/>
        <pt x="256" y="1536" on="1"/>
      </contour>
      <contour>
        <pt x="256" y="1024" on="1"/>
        <pt x="1792" y="1024" on="1"/>
        <pt x="1792" y="768" on="1"/>
        <pt x="256" y="768" on="1"/>
      </contour>
    </TTGlyph>
    <TTGlyph name="eth" xMin="0" yMin="256" xMax="1792" yMax="2048">
      <contour>
        <pt x="0" y="1280" on="1"/>
        <pt x="1792" y="1280" on="1"/>
        <pt x="1792" y="1024" on="1"/>
        <pt x="0" y="1024" on="1"/>
      </contour>
      <contour>
        <pt x="0" y="2048" on="1"/>
        <pt x="1792" y="2048" on="1"/>
        <pt x="1792" y="1792" on="1"/>
        <pt x="0" y="1792" on="1"/>
      </contour>
      <contour>
        <pt x="0" y="512" on="1"/>
        <pt x="1792" y="512" on="1"/>
        <pt x="1792" y="256" on="1"/>
        <pt x="0" y="256" on="1"/>
      </contour>
    </TTGlyph>
    <TTGlyph name="exclam" xMin="512" yMin="0" xMax="1536" yMax="2560">
      <contour>
        <pt x="768" y="512" on="1"/>
        <pt x="1280" y="512" on="1"/>
        <pt x="1280" y="0" on="1"/>
        <pt x="768" y="0" on="1"/>
      </contour>
      <contour>
        <pt x="512" y="2304" on="1"/>
        <pt x="768" y="2304" on="1"/>
        <pt x="768" y="2560" on="1"/>
        <pt x="1280" y="2560" on="1"/>
        <pt x="1280" y="2304" on="1"/>
        <pt x="1536" y="2304" on="1"/>
        <pt x="1536" y="1536" on="1"/>
        <pt x="1280" y="1536" on="1"/>
        <pt x="1280" y="768" on="1"/>
        <pt x="768" y="768" on="1"/>
        <pt x="768" y="1536" on="1"/>
        <pt x="512" y="1536" on="1"/>
      </contour>
    </TTGlyph>
    <TTGlyph name="exclamdown" xMin="512" yMin="0" xMax="1536" yMax="2816">
      <contour>
        <pt x="1024" y="2816" on="1"/>
        <pt x="1536" y="2816" on="1"/>
        <pt x="1536" y="2560" on="1"/>
        <pt x="1280" y="2560" on="1"/>
        <pt x="1280" y="2304" on="1"/>
        <pt x="1024" y="2304" on="1"/>
        <pt x="1024" y="2048" on="1"/>
        <pt x="512" y="2048" on="1"/>
        <pt x="512" y="2304" on="1"/>
        <pt x="768" y="2304" on="1"/>
        <pt x="768" y="2560" on="1"/>
        <pt x="1024" y="2560" on="1"/>
      </contour>
      <contour>
        <pt x="512" y="1792" on="1"/>
        <pt x="1280" y="1792" on="1"/>
        <pt x="1280" y="256" on="1"/>
        <pt x="1536" y="256" on="1"/>
        <pt x="1536" y="0" on="1"/>
        <pt x="512" y="0" on="1"/>
        <pt x="512" y="256" on="1"/>
        <pt x="768" y="256" on="1"/>
        <pt x="768" y="1536" on="1"/>
        <pt x="512" y="1536" on="1"/>
      </contour>
    </TTGlyph>
    <TTGlyph name="f" xMin="256" yMin="0" xMax="1792" yMax="2560">
      <contour>
        <pt x="256" y="1536" on="1"/>
        <pt x="512" y="1536" on="1"/>
        <pt x="512" y="2304" on="1"/>
        <pt x="768" y="2304" on="1"/>
        <pt x="768" y="2560" on="1"/>
        <pt x="1536" y="2560" on="1"/>
        <pt x="1536" y="2304" on="1"/>
        <pt x="1792" y="2304" on="1"/>
        <pt x="1792" y="1792" on="1"/>
        <pt x="1536" y="1792" on="1"/>
        <pt x="1536" y="2048" on="1"/>
        <pt x="1280" y="2048" on="1"/>
        <pt x="1280" y="2304" on="1"/>
        <pt x="1024" y="2304" on="1"/>
        <pt x="1024" y="1536" on="1"/>
        <pt x="1280" y="1536" on="1"/>
        <pt x="1280" y="1280" on="1"/>
        <pt x="1024" y="1280" on="1"/>
        <pt x="1024" y="256" on="1"/>
        <pt x="1280" y="256" on="1"/>
        <pt x="1280" y="0" on="1"/>
        <pt x="256" y="0" on="1"/>
        <pt x="256" y="256" on="1"/>
        <pt x="512" y="256" on="1"/>
        <pt x="512" y="1280" on="1"/>
        <pt x="256" y="1280" on="1"/>
      </contour>
    </TTGlyph>
    <TTGlyph name="five" xMin="0" yMin="0" xMax="1792" yMax="2560">
      <contour>
        <pt x="512" y="1536" on="1"/>
        <pt x="1536" y="1536" on="1"/>
        <pt x="1536" y="1280" on="1"/>
        <pt x="1792" y="1280" on="1"/>
        <pt x="1792" y="256" on="1"/>
        <pt x="1536" y="256" on="1"/>
        <pt x="1536" y="0" on="1"/>
        <pt x="256" y="0" on="1"/>
        <pt x="256" y="256" on="1"/>
        <pt x="0" y="256" on="1"/>
        <pt x="0" y="512" on="1"/>
        <pt x="512" y="512" on="1"/>
        <pt x="512" y="256" on="1"/>
        <pt x="1280" y="256" on="1"/>
        <pt x="1280" y="1280" on="1"/>
        <pt x="0" y="1280" on="1"/>
        <pt x="0" y="2560" on="1"/>
        <pt x="1792" y="2560" on="1"/>
        <pt x="1792" y="2304" on="1"/>
        <pt x="512" y="2304" on="1"/>
      </contour>
    </TTGlyph>
    <TTGlyph name="florin" xMin="0" yMin="0" xMax="1792" yMax="2816">
      <contour>
        <pt x="256" y="2304" on="1"/>
        <pt x="512" y="2304" on="1"/>
        <pt x="512" y="2560" on="1"/>
        <pt x="768" y="2560" on="1"/>
        <pt x="768" y="2816" on="1"/>
        <pt x="1024" y="2816" on="1"/>
        <pt x="1024" y="2560" on="1"/>
        <pt x="1280" y="2560" on="1"/>
        <pt x="1280" y="2304" on="1"/>
        <pt x="1536" y="2304" on="1"/>
        <pt x="1536" y="2048" on="1"/>
        <pt x="1024" y="2048" on="1"/>
        <pt x="1024" y="2304" on="1"/>
        <pt x="768" y="2304" on="1"/>
        <pt x="768" y="2048" on="1"/>
        <pt x="256" y="2048" on="1"/>
      </contour>
      <contour>
        <pt x="1024" y="0" on="1"/>
        <pt x="256" y="0" on="1"/>
        <pt x="256" y="256" on="1"/>
        <pt x="0" y="256" on="1"/>
        <pt x="0" y="1024" on="1"/>
        <pt x="256" y="1024" on="1"/>
        <pt x="256" y="1280" on="1"/>
        <pt x="1024" y="1280" on="1"/>
        <pt x="1024" y="1536" on="1"/>
        <pt x="256" y="1536" on="1"/>
        <pt x="256" y="1792" on="1"/>
        <pt x="1280" y="1792" on="1"/>
        <pt x="1280" y="1536" on="1"/>
        <pt x="1536" y="1536" on="1"/>
        <pt x="1536" y="256" on="1"/>
        <pt x="1792" y="256" on="1"/>
        <pt x="1792" y="0" on="1"/>
        <pt x="1280" y="0" on="1"/>
        <pt x="1280" y="256" on="1"/>
        <pt x="1026" y="256" on="1"/>
        <pt x="1024" y="258" on="1"/>
        <pt x="1024" y="1024" on="1"/>
        <pt x="512" y="1024" on="1"/>
        <pt x="512" y="256" on="1"/>
        <pt x="1024" y="256" on="1"/>
      </contour>
    </TTGlyph>
    <TTGlyph name="four" xMin="0" yMin="0" xMax="1792" yMax="2560">
      <contour>
        <pt x="512" y="1280" on="1"/>
        <pt x="1024" y="1280" on="1"/>
        <pt x="1024" y="1792" on="1"/>
        <pt x="768" y="1792" on="1"/>
        <pt x="768" y="1536" on="1"/>
        <pt x="512" y="1536" on="1"/>
      </contour>
      <contour>
        <pt x="1792" y="1280" on="1"/>
        <pt x="1792" y="1024" on="1"/>
        <pt x="1536" y="1024" on="1"/>
        <pt x="1536" y="256" on="1"/>
        <pt x="1792" y="256" on="1"/>
        <pt x="1792" y="0" on="1"/>
        <pt x="768" y="0" on="1"/>
        <pt x="768" y="256" on="1"/>
        <pt x="1024" y="256" on="1"/>
        <pt x="1024" y="1024" on="1"/>
        <pt x="0" y="1024" on="1"/>
        <pt x="0" y="1536" on="1"/>
        <pt x="256" y="1536" on="1"/>
        <pt x="256" y="1792" on="1"/>
        <pt x="512" y="1792" on="1"/>
        <pt x="512" y="2048" on="1"/>
        <pt x="768" y="2048" on="1"/>
        <pt x="768" y="2304" on="1"/>
        <pt x="1024" y="2304" on="1"/>
        <pt x="1024" y="2560" on="1"/>
        <pt x="1536" y="2560" on="1"/>
        <pt x="1536" y="1280" on="1"/>
      </contour>
    </TTGlyph>
    <TTGlyph name="g" xMin="0" yMin="-768" xMax="1792" yMax="1792">
      <contour>
        <pt x="1024" y="1534" on="1"/>
        <pt x="1026" y="1536" on="1"/>
        <pt x="1280" y="1536" on="1"/>
        <pt x="1280" y="1792" on="1"/>
        <pt x="1792" y="1792" on="1"/>
        <pt x="1792" y="1536" on="1"/>
        <pt x="1536" y="1536" on="1"/>
        <pt x="1536" y="-512" on="1"/>
        <pt x="1280" y="-512" on="1"/>
        <pt x="1280" y="-768" on="1"/>
        <pt x="256" y="-768" on="1"/>
        <pt x="256" y="-512" on="1"/>
        <pt x="0" y="-512" on="1"/>
        <pt x="0" y="-256" on="1"/>
        <pt x="512" y="-256" on="1"/>
        <pt x="512" y="-512" on="1"/>
        <pt x="1024" y="-512" on="1"/>
        <pt x="1024" y="0" on="1"/>
        <pt x="256" y="0" on="1"/>
        <pt x="256" y="256" on="1"/>
        <pt x="0" y="256" on="1"/>
        <pt x="0" y="1536" on="1"/>
        <pt x="256" y="1536" on="1"/>
        <pt x="256" y="1792" on="1"/>
        <pt x="1024" y="1792" on="1"/>
        <pt x="1024" y="1536" on="1"/>
        <pt x="512" y="1536" on="1"/>
        <pt x="512" y="256" on="1"/>
        <pt x="1024" y="256" on="1"/>
      </contour>
    </TTGlyph>
    <TTGlyph name="germandbls" xMin="0" yMin="1280" xMax="2304" yMax="3072">
      <contour>
        <pt x="0" y="3072" on="1"/>
        <pt x="2304" y="3072" on="1"/>
        <pt x="2304" y="1280" on="1"/>
        <pt x="0" y="1280" on="1"/>
      </contour>
    </TTGlyph>
    <TTGlyph name="grave" xMin="512" yMin="2048" xMax="1536" yMax="2816">
      <contour>
        <pt x="1024" y="2304" on="1"/>
        <pt x="768" y="2304" on="1"/>
        <pt x="768" y="2560" on="1"/>
        <pt x="512" y="2560" on="1"/>
        <pt x="512" y="2816" on="1"/>
        <pt x="1024" y="2816" on="1"/>
        <pt x="1024" y="2560" on="1"/>
        <pt x="1280" y="2560" on="1"/>
        <pt x="1280" y="2304" on="1"/>
        <pt x="1536" y="2304" on="1"/>
        <pt x="1536" y="2048" on="1"/>
        <pt x="1024" y="2048" on="1"/>
      </contour>
    </TTGlyph>
    <TTGlyph name="greater" xMin="256" yMin="0" xMax="1792" yMax="2304">
      <contour>
        <pt x="256" y="2304" on="1"/>
        <pt x="768" y="2304" on="1"/>
        <pt x="768" y="2048" on="1"/>
        <pt x="1024" y="2048" on="1"/>
        <pt x="1024" y="1792" on="1"/>
        <pt x="1280" y="1792" on="1"/>
        <pt x="1280" y="1536" on="1"/>
        <pt x="1536" y="1536" on="1"/>
        <pt x="1536" y="1280" on="1"/>
        <pt x="1792" y="1280" on="1"/>
        <pt x="1792" y="1024" on="1"/>
        <pt x="1536" y="1024" on="1"/>
        <pt x="1536" y="768" on="1"/>
        <pt x="1280" y="768" on="1"/>
        <pt x="1280" y="512" on="1"/>
        <pt x="1024" y="512" on="1"/>
        <pt x="1024" y="256" on="1"/>
        <pt x="768" y="256" on="1"/>
        <pt x="768" y="0" on="1"/>
        <pt x="256" y="0" on="1"/>
        <pt x="256" y="256" on="1"/>
        <pt x="512" y="256" on="1"/>
        <pt x="512" y="512" on="1"/>
        <pt x="768" y="512" on="1"/>
        <pt x="768" y="768" on="1"/>
        <pt x="1024" y="768" on="1"/>
        <pt x="1024" y="1024" on="1"/>
        <pt x="1280" y="1024" on="1"/>
        <pt x="1280" y="1280" on="1"/>
        <pt x="1024" y="1280" on="1"/>
        <pt x="1024" y="1536" on="1"/>
        <pt x="768" y="1536" on="1"/>
        <pt x="768" y="1792" on="1"/>
        <pt x="512" y="1792" on="1"/>
        <pt x="512" y="2048" on="1"/>
        <pt x="256" y="2048" on="1"/>
      </contour>
    </TTGlyph>
    <TTGlyph name="guillemotleft" xMin="0" yMin="-512" xMax="1792" yMax="2816">
      <contour>
        <pt x="512" y="-256" on="1"/>
        <pt x="768" y="-256" on="1"/>
        <pt x="768" y="0" on="1"/>
        <pt x="1024" y="0" on="1"/>
        <pt x="1024" y="256" on="1"/>
        <pt x="1280" y="256" on="1"/>
        <pt x="1280" y="512" on="1"/>
        <pt x="768" y="512" on="1"/>
        <pt x="768" y="768" on="1"/>
        <pt x="512" y="768" on="1"/>
        <pt x="512" y="512" on="1"/>
        <pt x="256" y="512" on="1"/>
        <pt x="256" y="256" on="1"/>
        <pt x="0" y="256" on="1"/>
        <pt x="0" y="768" on="1"/>
        <pt x="256" y="768" on="1"/>
        <pt x="256" y="1024" on="1"/>
        <pt x="512" y="1024" on="1"/>
        <pt x="512" y="1280" on="1"/>
        <pt x="768" y="1280" on="1"/>
        <pt x="768" y="1536" on="1"/>
        <pt x="256" y="1536" on="1"/>
        <pt x="256" y="2304" on="1"/>
        <pt x="0" y="2304" on="1"/>
        <pt x="0" y="2560" on="1"/>
        <pt x="256" y="2560" on="1"/>
        <pt x="256" y="2816" on="1"/>
        <pt x="768" y="2816" on="1"/>
        <pt x="768" y="1536" on="1"/>
        <pt x="1024" y="1536" on="1"/>
        <pt x="1024" y="1792" on="1"/>
        <pt x="1280" y="1792" on="1"/>
        <pt x="1280" y="2048" on="1"/>
        <pt x="1536" y="2048" on="1"/>
        <pt x="1536" y="2304" on="1"/>
        <pt x="1792" y="2304" on="1"/>
        <pt x="1792" y="1792" on="1"/>
        <pt x="1536" y="1792" on="1"/>
        <pt x="1536" y="1536" on="1"/>
        <pt x="1280" y="1536" on="1"/>
        <pt x="1280" y="1280" on="1"/>
        <pt x="1024" y="1280" on="1"/>
        <pt x="1024" y="1024" on="1"/>
        <pt x="768" y="1024" on="1"/>
        <pt x="768" y="768" on="1"/>
        <pt x="1536" y="768" on="1"/>
        <pt x="1536" y="512" on="1"/>
        <pt x="1792" y="512" on="1"/>
        <pt x="1792" y="256" on="1"/>
        <pt x="1536" y="256" on="1"/>
        <pt x="1536" y="0" on="1"/>
        <pt x="1280" y="0" on="1"/>
        <pt x="1280" y="-256" on="1"/>
        <pt x="1792" y="-256" on="1"/>
        <pt x="1792" y="-512" on="1"/>
        <pt x="512" y="-512" on="1"/>
      </contour>
    </TTGlyph>
    <TTGlyph name="guillemotright" xMin="0" yMin="-1024" xMax="1792" yMax="1792">
      <contour>
        <pt x="0" y="1280" on="1"/>
        <pt x="1024" y="1280" on="1"/>
        <pt x="1024" y="-1024" on="1"/>
        <pt x="512" y="-1024" on="1"/>
        <pt x="512" y="1024" on="1"/>
        <pt x="0" y="1024" on="1"/>
      </contour>
      <contour>
        <pt x="0" y="1792" on="1"/>
        <pt x="1792" y="1792" on="1"/>
        <pt x="1792" y="-1024" on="1"/>
        <pt x="1280" y="-1024" on="1"/>
        <pt x="1280" y="1536" on="1"/>
        <pt x="0" y="1536" on="1"/>
      </contour>
    </TTGlyph>
    <TTGlyph name="guilsinglleft" xMin="256" yMin="0" xMax="1792" yMax="2560">
      <contour>
        <pt x="256" y="2560" on="1"/>
        <pt x="768" y="2560" on="1"/>
        <pt x="768" y="2304" on="1"/>
        <pt x="256" y="2304" on="1"/>
      </contour>
      <contour>
        <pt x="1280" y="2560" on="1"/>
        <pt x="1792" y="2560" on="1"/>
        <pt x="1792" y="2304" on="1"/>
        <pt x="1280" y="2304" on="1"/>
      </contour>
      <contour>
        <pt x="512" y="1792" on="1"/>
        <pt x="1280" y="1792" on="1"/>
        <pt x="1280" y="256" on="1"/>
        <pt x="1536" y="256" on="1"/>
        <pt x="1536" y="0" on="1"/>
        <pt x="512" y="0" on="1"/>
        <pt x="512" y="256" on="1"/>
        <pt x="768" y="256" on="1"/>
        <pt x="768" y="1536" on="1"/>
        <pt x="512" y="1536" on="1"/>
      </contour>
    </TTGlyph>
    <TTGlyph name="guilsinglright" xMin="0" yMin="0" xMax="1792" yMax="2816">
      <contour>
        <pt x="1280" y="2048" on="1"/>
        <pt x="512" y="2048" on="1"/>
        <pt x="512" y="768" on="1"/>
        <pt x="1280" y="768" on="1"/>
        <pt x="1280" y="1024" on="1"/>
        <pt x="1792" y="1024" on="1"/>
        <pt x="1792" y="768" on="1"/>
        <pt x="1536" y="768" on="1"/>
        <pt x="1536" y="512" on="1"/>
        <pt x="1280" y="512" on="1"/>
        <pt x="1280" y="0" on="1"/>
        <pt x="768" y="0" on="1"/>
        <pt x="768" y="512" on="1"/>
        <pt x="256" y="512" on="1"/>
        <pt x="256" y="768" on="1"/>
        <pt x="0" y="768" on="1"/>
        <pt x="0" y="2048" on="1"/>
        <pt x="256" y="2048" on="1"/>
        <pt x="256" y="2304" on="1"/>
        <pt x="768" y="2304" on="1"/>
        <pt x="768" y="2816" on="1"/>
        <pt x="1280" y="2816" on="1"/>
        <pt x="1280" y="2304" on="1"/>
        <pt x="1536" y="2304" on="1"/>
        <pt x="1536" y="2048" on="1"/>
        <pt x="1792" y="2048" on="1"/>
        <pt x="1792" y="1792" on="1"/>
        <pt x="1280" y="1792" on="1"/>
      </contour>
    </TTGlyph>
    <TTGlyph name="h" xMin="0" yMin="0" xMax="1792" yMax="2560">
      <contour>
        <pt x="1024" y="1792" on="1"/>
        <pt x="1536" y="1792" on="1"/>
        <pt x="1536" y="1536" on="1"/>
        <pt x="1792" y="1536" on="1"/>
        <pt x="1792" y="0" on="1"/>
        <pt x="1280" y="0" on="1"/>
        <pt x="1280" y="1536" on="1"/>
        <pt x="1024" y="1536" on="1"/>
      </contour>
      <contour>
        <pt x="768" y="0" on="1"/>
        <pt x="0" y="0" on="1"/>
        <pt x="0" y="256" on="1"/>
        <pt x="256" y="256" on="1"/>
        <pt x="256" y="2304" on="1"/>
        <pt x="0" y="2304" on="1"/>
        <pt x="0" y="2560" on="1"/>
        <pt x="768" y="2560" on="1"/>
        <pt x="768" y="1536" on="1"/>
        <pt x="1024" y="1536" on="1"/>
        <pt x="1024" y="1280" on="1"/>
        <pt x="768" y="1280" on="1"/>
      </contour>
    </TTGlyph>
    <TTGlyph name="hyphen" xMin="0" yMin="1024" xMax="1792" yMax="1280">
      <contour>
        <pt x="0" y="1280" on="1"/>
        <pt x="1792" y="1280" on="1"/>
        <pt x="1792" y="1024" on="1"/>
        <pt x="0" y="1024" on="1"/>
      </contour>
    </TTGlyph>
    <TTGlyph name="i" xMin="512" yMin="0" xMax="1536" yMax="2560">
      <contour>
        <pt x="768" y="2560" on="1"/>
        <pt x="1280" y="2560" on="1"/>
        <pt x="1280" y="2048" on="1"/>
        <pt x="768" y="2048" on="1"/>
      </contour>
      <contour>
        <pt x="512" y="1792" on="1"/>
        <pt x="1280" y="1792" on="1"/>
        <pt x="1280" y="256" on="1"/>
        <pt x="1536" y="256" on="1"/>
        <pt x="1536" y="0" on="1"/>
        <pt x="512" y="0" on="1"/>
        <pt x="512" y="256" on="1"/>
        <pt x="768" y="256" on="1"/>
        <pt x="768" y="1536" on="1"/>
        <pt x="512" y="1536" on="1"/>
      </contour>
    </TTGlyph>
    <TTGlyph name="iacute" xMin="0" yMin="0" xMax="2304" yMax="2304">
      <contour>
        <pt x="768" y="1536" on="1"/>
        <pt x="512" y="1536" on="1"/>
        <pt x="512" y="1024" on="1"/>
        <pt x="768" y="1024" on="1"/>
      </contour>
      <contour>
        <pt x="1536" y="1536" on="1"/>
        <pt x="1280" y="1536" on="1"/>
        <pt x="1280" y="1024" on="1"/>
        <pt x="1024" y="1024" on="1"/>
        <pt x="1024" y="768" on="1"/>
        <pt x="1536" y="768" on="1"/>
      </contour>
      <contour>
        <pt x="1792" y="768" on="1"/>
        <pt x="1792" y="512" on="1"/>
        <pt x="768" y="512" on="1"/>
        <pt x="768" y="256" on="1"/>
        <pt x="512" y="256" on="1"/>
        <pt x="512" y="0" on="1"/>
        <pt x="0" y="0" on="1"/>
        <pt x="0" y="256" on="1"/>
        <pt x="256" y="256" on="1"/>
        <pt x="256" y="768" on="1"/>
        <pt x="0" y="768" on="1"/>
        <pt x="0" y="1536" on="1"/>
        <pt x="256" y="1536" on="1"/>
        <pt x="256" y="1792" on="1"/>
        <pt x="1280" y="1792" on="1"/>
        <pt x="1280" y="2048" on="1"/>
        <pt x="1536" y="2048" on="1"/>
        <pt x="1536" y="2304" on="1"/>
        <pt x="2304" y="2304" on="1"/>
        <pt x="2304" y="2048" on="1"/>
        <pt x="1792" y="2048" on="1"/>
        <pt x="1792" y="1536" on="1"/>
        <pt x="2304" y="1536" on="1"/>
        <pt x="2304" y="768" on="1"/>
      </contour>
    </TTGlyph>
    <TTGlyph name="icircumflex" xMin="256" yMin="0" xMax="1536" yMax="2560">
      <contour>
        <pt x="768" y="512" on="1"/>
        <pt x="1024" y="512" on="1"/>
        <pt x="1024" y="256" on="1"/>
        <pt x="1536" y="256" on="1"/>
        <pt x="1536" y="0" on="1"/>
        <pt x="768" y="0" on="1"/>
        <pt x="768" y="256" on="1"/>
        <pt x="512" y="256" on="1"/>
        <pt x="512" y="512" on="1"/>
        <pt x="256" y="512" on="1"/>
        <pt x="256" y="2048" on="1"/>
        <pt x="512" y="2048" on="1"/>
        <pt x="512" y="2304" on="1"/>
        <pt x="768" y="2304" on="1"/>
        <pt x="768" y="2560" on="1"/>
        <pt x="1536" y="2560" on="1"/>
        <pt x="1536" y="2304" on="1"/>
        <pt x="1024" y="2304" on="1"/>
        <pt x="1024" y="2048" on="1"/>
        <pt x="768" y="2048" on="1"/>
        <pt x="768" y="1536" on="1"/>
        <pt x="1536" y="1536" on="1"/>
        <pt x="1536" y="1280" on="1"/>
        <pt x="768" y="1280" on="1"/>
      </contour>
    </TTGlyph>
    <TTGlyph name="idieresis" xMin="0" yMin="0" xMax="1792" yMax="2304">
      <contour>
        <pt x="1280" y="2048" on="1"/>
        <pt x="512" y="2048" on="1"/>
        <pt x="512" y="0" on="1"/>
        <pt x="0" y="0" on="1"/>
        <pt x="0" y="2048" on="1"/>
        <pt x="256" y="2048" on="1"/>
        <pt x="256" y="2304" on="1"/>
        <pt x="1536" y="2304" on="1"/>
        <pt x="1536" y="2048" on="1"/>
        <pt x="1792" y="2048" on="1"/>
        <pt x="1792" y="0" on="1"/>
        <pt x="1280" y="0" on="1"/>
      </contour>
    </TTGlyph>
    <TTGlyph name="igrave" xMin="0" yMin="512" xMax="2304" yMax="1792">
      <contour>
        <pt x="768" y="1536" on="1"/>
        <pt x="512" y="1536" on="1"/>
        <pt x="512" y="768" on="1"/>
        <pt x="768" y="768" on="1"/>
      </contour>
      <contour>
        <pt x="1536" y="1536" on="1"/>
        <pt x="1280" y="1536" on="1"/>
        <pt x="1280" y="768" on="1"/>
        <pt x="1536" y="768" on="1"/>
      </contour>
      <contour>
        <pt x="1792" y="512" on="1"/>
        <pt x="256" y="512" on="1"/>
        <pt x="256" y="768" on="1"/>
        <pt x="0" y="768" on="1"/>
        <pt x="0" y="1536" on="1"/>
        <pt x="256" y="1536" on="1"/>
        <pt x="256" y="1792" on="1"/>
        <pt x="1792" y="1792" on="1"/>
        <pt x="1792" y="1536" on="1"/>
        <pt x="2304" y="1536" on="1"/>
        <pt x="2304" y="768" on="1"/>
        <pt x="1792" y="768" on="1"/>
      </contour>
    </TTGlyph>
    <TTGlyph name="j" xMin="256" yMin="-768" xMax="1792" yMax="2560">
      <contour>
        <pt x="1280" y="2560" on="1"/>
        <pt x="1792" y="2560" on="1"/>
        <pt x="1792" y="2048" on="1"/>
        <pt x="1280" y="2048" on="1"/>
      </contour>
      <contour>
        <pt x="1024" y="1792" on="1"/>
        <pt x="1792" y="1792" on="1"/>
        <pt x="1792" y="-512" on="1"/>
        <pt x="1536" y="-512" on="1"/>
        <pt x="1536" y="-768" on="1"/>
        <pt x="512" y="-768" on="1"/>
        <pt x="512" y="-512" on="1"/>
        <pt x="256" y="-512" on="1"/>
        <pt x="256" y="0" on="1"/>
        <pt x="768" y="0" on="1"/>
        <pt x="768" y="-512" on="1"/>
        <pt x="1280" y="-512" on="1"/>
        <pt x="1280" y="1536" on="1"/>
        <pt x="1024" y="1536" on="1"/>
      </contour>
    </TTGlyph>
    <TTGlyph name="k" xMin="0" yMin="0" xMax="1792" yMax="2560">
      <contour>
        <pt x="1024" y="1536" on="1"/>
        <pt x="1280" y="1536" on="1"/>
        <pt x="1280" y="1792" on="1"/>
        <pt x="1792" y="1792" on="1"/>
        <pt x="1792" y="1536" on="1"/>
        <pt x="1536" y="1536" on="1"/>
        <pt x="1536" y="1280" on="1"/>
        <pt x="1280" y="1280" on="1"/>
        <pt x="1280" y="768" on="1"/>
        <pt x="1536" y="768" on="1"/>
        <pt x="1536" y="512" on="1"/>
        <pt x="1792" y="512" on="1"/>
        <pt x="1792" y="0" on="1"/>
        <pt x="1280" y="0" on="1"/>
        <pt x="1280" y="512" on="1"/>
        <pt x="1024" y="512" on="1"/>
        <pt x="1024" y="768" on="1"/>
        <pt x="768" y="768" on="1"/>
        <pt x="768" y="0" on="1"/>
        <pt x="0" y="0" on="1"/>
        <pt x="0" y="256" on="1"/>
        <pt x="256" y="256" on="1"/>
        <pt x="256" y="2304" on="1"/>
        <pt x="0" y="2304" on="1"/>
        <pt x="0" y="2560" on="1"/>
        <pt x="768" y="2560" on="1"/>
        <pt x="768" y="1280" on="1"/>
        <pt x="1024" y="1280" on="1"/>
      </contour>
    </TTGlyph>
    <TTGlyph name="l" xMin="512" yMin="0" xMax="1536" yMax="2560">
      <contour>
        <pt x="512" y="2560" on="1"/>
        <pt x="1280" y="2560" on="1"/>
        <pt x="1280" y="256" on="1"/>
        <pt x="1536" y="256" on="1"/>
        <pt x="1536" y="0" on="1"/>
        <pt x="512" y="0" on="1"/>
        <pt x="512" y="256" on="1"/>
        <pt x="768" y="256" on="1"/>
        <pt x="768" y="2304" on="1"/>
        <pt x="512" y="2304" on="1"/>
      </contour>
    </TTGlyph>
    <TTGlyph name="less" xMin="256" yMin="0" xMax="1792" yMax="2304">
      <contour>
        <pt x="1280" y="2304" on="1"/>
        <pt x="1792" y="2304" on="1"/>
        <pt x="1792" y="2048" on="1"/>
        <pt x="1536" y="2048" on="1"/>
        <pt x="1536" y="1792" on="1"/>
        <pt x="1280" y="1792" on="1"/>
        <pt x="1280" y="1536" on="1"/>
        <pt x="1024" y="1536" on="1"/>
        <pt x="1024" y="1280" on="1"/>
        <pt x="768" y="1280" on="1"/>
        <pt x="768" y="1024" on="1"/>
        <pt x="1024" y="1024" on="1"/>
        <pt x="1024" y="768" on="1"/>
        <pt x="1280" y="768" on="1"/>
        <pt x="1280" y="512" on="1"/>
        <pt x="1536" y="512" on="1"/>
        <pt x="1536" y="256" on="1"/>
        <pt x="1792" y="256" on="1"/>
        <pt x="1792" y="0" on="1"/>
        <pt x="1280" y="0" on="1"/>
        <pt x="1280" y="256" on="1"/>
        <pt x="1024" y="256" on="1"/>
        <pt x="1024" y="512" on="1"/>
        <pt x="768" y="512" on="1"/>
        <pt x="768" y="768" on="1"/>
        <pt x="512" y="768" on="1"/>
        <pt x="512" y="1024" on="1"/>
        <pt x="256" y="1024" on="1"/>
        <pt x="256" y="1280" on="1"/>
        <pt x="512" y="1280" on="1"/>
        <pt x="512" y="1536" on="1"/>
        <pt x="768" y="1536" on="1"/>
        <pt x="768" y="1792" on="1"/>
        <pt x="1024" y="1792" on="1"/>
        <pt x="1024" y="2048" on="1"/>
        <pt x="1280" y="2048" on="1"/>
      </contour>
    </TTGlyph>
    <TTGlyph name="logicalnot" xMin="0" yMin="-512" xMax="2048" yMax="2816">
      <contour>
        <pt x="1536" y="256" on="1"/>
        <pt x="1536" y="512" on="1"/>
        <pt x="1280" y="512" on="1"/>
        <pt x="1280" y="256" on="1"/>
      </contour>
      <contour>
        <pt x="1792" y="-512" on="1"/>
        <pt x="1280" y="-512" on="1"/>
        <pt x="1280" y="0" on="1"/>
        <pt x="512" y="0" on="1"/>
        <pt x="512" y="256" on="1"/>
        <pt x="768" y="256" on="1"/>
        <pt x="768" y="512" on="1"/>
        <pt x="1024" y="512" on="1"/>
        <pt x="1024" y="768" on="1"/>
        <pt x="1280" y="768" on="1"/>
        <pt x="1280" y="1024" on="1"/>
        <pt x="1792" y="1024" on="1"/>
        <pt x="1792" y="256" on="1"/>
        <pt x="2048" y="256" on="1"/>
        <pt x="2048" y="0" on="1"/>
        <pt x="1792" y="0" on="1"/>
      </contour>
      <contour>
        <pt x="768" y="768" on="1"/>
        <pt x="512" y="768" on="1"/>
        <pt x="512" y="512" on="1"/>
        <pt x="256" y="512" on="1"/>
        <pt x="256" y="256" on="1"/>
        <pt x="0" y="256" on="1"/>
        <pt x="0" y="768" on="1"/>
        <pt x="256" y="768" on="1"/>
        <pt x="256" y="1024" on="1"/>
        <pt x="512" y="1024" on="1"/>
        <pt x="512" y="1280" on="1"/>
        <pt x="768" y="1280" on="1"/>
        <pt x="768" y="1536" on="1"/>
        <pt x="256" y="1536" on="1"/>
        <pt x="256" y="2304" on="1"/>
        <pt x="0" y="2304" on="1"/>
        <pt x="0" y="2560" on="1"/>
        <pt x="256" y="2560" on="1"/>
        <pt x="256" y="2816" on="1"/>
        <pt x="768" y="2816" on="1"/>
        <pt x="768" y="1536" on="1"/>
        <pt x="1024" y="1536" on="1"/>
        <pt x="1024" y="1792" on="1"/>
        <pt x="1280" y="1792" on="1"/>
        <pt x="1280" y="2048" on="1"/>
        <pt x="1536" y="2048" on="1"/>
        <pt x="1536" y="2304" on="1"/>
        <pt x="1792" y="2304" on="1"/>
        <pt x="1792" y="1792" on="1"/>
        <pt x="1536" y="1792" on="1"/>
        <pt x="1536" y="1536" on="1"/>
        <pt x="1280" y="1536" on="1"/>
        <pt x="1280" y="1280" on="1"/>
        <pt x="1024" y="1280" on="1"/>
        <pt x="1024" y="1024" on="1"/>
        <pt x="768" y="1024" on="1"/>
      </contour>
    </TTGlyph>
    <TTGlyph name="ltshade" xMin="256" yMin="-1024" xMax="2048" yMax="3072">
      <contour>
        <pt x="1792" y="0" on="1"/>
        <pt x="2048" y="0" on="1"/>
        <pt x="2048" y="-256" on="1"/>
        <pt x="1792" y="-256" on="1"/>
      </contour>
      <contour>
        <pt x="1792" y="1024" on="1"/>
        <pt x="2048" y="1024" on="1"/>
        <pt x="2048" y="768" on="1"/>
        <pt x="1792" y="768" on="1"/>
      </contour>
      <contour>
        <pt x="1792" y="2048" on="1"/>
        <pt x="2048" y="2048" on="1"/>
        <pt x="2048" y="1792" on="1"/>
        <pt x="1792" y="1792" on="1"/>
      </contour>
      <contour>
        <pt x="1792" y="2560" on="1"/>
        <pt x="2048" y="2560" on="1"/>
        <pt x="2048" y="2304" on="1"/>
        <pt x="1792" y="2304" on="1"/>
      </contour>
      <contour>
        <pt x="1792" y="1536" on="1"/>
        <pt x="2048" y="1536" on="1"/>
        <pt x="2048" y="1280" on="1"/>
        <pt x="1792" y="1280" on="1"/>
      </contour>
      <contour>
        <pt x="1792" y="512" on="1"/>
        <pt x="2048" y="512" on="1"/>
        <pt x="2048" y="256" on="1"/>
        <pt x="1792" y="256" on="1"/>
      </contour>
      <contour>
        <pt x="1792" y="-512" on="1"/>
        <pt x="2048" y="-512" on="1"/>
        <pt x="2048" y="-768" on="1"/>
        <pt x="1792" y="-768" on="1"/>
      </contour>
      <contour>
        <pt x="1792" y="3072" on="1"/>
        <pt x="2048" y="3072" on="1"/>
        <pt x="2048" y="2816" on="1"/>
        <pt x="1792" y="2816" on="1"/>
      </contour>
      <contour>
        <pt x="1280" y="-256" on="1"/>
        <pt x="1536" y="-256" on="1"/>
        <pt x="1536" y="-512" on="1"/>
        <pt x="1280" y="-512" on="1"/>
      </contour>
      <contour>
        <pt x="1280" y="768" on="1"/>
        <pt x="1536" y="768" on="1"/>
        <pt x="1536" y="512" on="1"/>
        <pt x="1280" y="512" on="1"/>
      </contour>
      <contour>
        <pt x="1280" y="1792" on="1"/>
        <pt x="1536" y="1792" on="1"/>
        <pt x="1536" y="1536" on="1"/>
        <pt x="1280" y="1536" on="1"/>
      </contour>
      <contour>
        <pt x="1280" y="2304" on="1"/>
        <pt x="1536" y="2304" on="1"/>
        <pt x="1536" y="2048" on="1"/>
        <pt x="1280" y="2048" on="1"/>
      </contour>
      <contour>
        <pt x="1280" y="1280" on="1"/>
        <pt x="1536" y="1280" on="1"/>
        <pt x="1536" y="1024" on="1"/>
        <pt x="1280" y="1024" on="1"/>
      </contour>
      <contour>
        <pt x="1280" y="256" on="1"/>
        <pt x="1536" y="256" on="1"/>
        <pt x="1536" y="0" on="1"/>
        <pt x="1280" y="0" on="1"/>
      </contour>
      <contour>
        <pt x="1280" y="-768" on="1"/>
        <pt x="1536" y="-768" on="1"/>
        <pt x="1536" y="-1024" on="1"/>
        <pt x="1280" y="-1024" on="1"/>
      </contour>
      <contour>
        <pt x="1280" y="2816" on="1"/>
        <pt x="1536" y="2816" on="1"/>
        <pt x="1536" y="2560" on="1"/>
        <pt x="1280" y="2560" on="1"/>
      </contour>
      <contour>
        <pt x="768" y="0" on="1"/>
        <pt x="1024" y="0" on="1"/>
        <pt x="1024" y="-256" on="1"/>
        <pt x="768" y="-256" on="1"/>
      </contour>
      <contour>
        <pt x="768" y="1024" on="1"/>
        <pt x="1024" y="1024" on="1"/>
        <pt x="1024" y="768" on="1"/>
        <pt x="768" y="768" on="1"/>
      </contour>
      <contour>
        <pt x="768" y="2048" on="1"/>
        <pt x="1024" y="2048" on="1"/>
        <pt x="1024" y="1792" on="1"/>
        <pt x="768" y="1792" on="1"/>
      </contour>
      <contour>
        <pt x="768" y="2560" on="1"/>
        <pt x="1024" y="2560" on="1"/>
        <pt x="1024" y="2304" on="1"/>
        <pt x="768" y="2304" on="1"/>
      </contour>
      <contour>
        <pt x="768" y="1536" on="1"/>
        <pt x="1024" y="1536" on="1"/>
        <pt x="1024" y="1280" on="1"/>
        <pt x="768" y="1280" on="1"/>
      </contour>
      <contour>
        <pt x="768" y="512" on="1"/>
        <pt x="1024" y="512" on="1"/>
        <pt x="1024" y="256" on="1"/>
        <pt x="768" y="256" on="1"/>
      </contour>
      <contour>
        <pt x="768" y="-512" on="1"/>
        <pt x="1024" y="-512" on="1"/>
        <pt x="1024" y="-768" on="1"/>
        <pt x="768" y="-768" on="1"/>
      </contour>
      <contour>
        <pt x="768" y="3072" on="1"/>
        <pt x="1024" y="3072" on="1"/>
        <pt x="1024" y="2816" on="1"/>
        <pt x="768" y="2816" on="1"/>
      </contour>
      <contour>
        <pt x="256" y="-256" on="1"/>
        <pt x="512" y="-256" on="1"/>
        <pt x="512" y="-512" on="1"/>
        <pt x="256" y="-512" on="1"/>
      </contour>
      <contour>
        <pt x="256" y="768" on="1"/>
        <pt x="512" y="768" on="1"/>
        <pt x="512" y="512" on="1"/>
        <pt x="256" y="512" on="1"/>
      </contour>
      <contour>
        <pt x="256" y="1792" on="1"/>
        <pt x="512" y="1792" on="1"/>
        <pt x="512" y="1536" on="1"/>
        <pt x="256" y="1536" on="1"/>
      </contour>
      <contour>
        <pt x="256" y="2304" on="1"/>
        <pt x="512" y="2304" on="1"/>
        <pt x="512" y="2048" on="1"/>
        <pt x="256" y="2048" on="1"/>
      </contour>
      <contour>
        <pt x="256" y="1280" on="1"/>
        <pt x="512" y="1280" on="1"/>
        <pt x="512" y="1024" on="1"/>
        <pt x="256" y="1024" on="1"/>
      </contour>
      <contour>
        <pt x="256" y="256" on="1"/>
        <pt x="512" y="256" on="1"/>
        <pt x="512" y="0" on="1"/>
        <pt x="256" y="0" on="1"/>
      </contour>
      <contour>
        <pt x="256" y="-768" on="1"/>
        <pt x="512" y="-768" on="1"/>
        <pt x="512" y="-1024" on="1"/>
        <pt x="256" y="-1024" on="1"/>
      </contour>
      <contour>
        <pt x="256" y="2816" on="1"/>
        <pt x="512" y="2816" on="1"/>
        <pt x="512" y="2560" on="1"/>
        <pt x="256" y="2560" on="1"/>
      </contour>
    </TTGlyph>
    <TTGlyph name="m" xMin="0" yMin="0" xMax="1792" yMax="1792">
      <contour>
        <pt x="1280" y="1280" on="1"/>
        <pt x="1024" y="1280" on="1"/>
        <pt x="1024" y="256" on="1"/>
        <pt x="768" y="256" on="1"/>
        <pt x="768" y="1280" on="1"/>
        <pt x="512" y="1280" on="1"/>
        <pt x="512" y="0" on="1"/>
        <pt x="0" y="0" on="1"/>
        <pt x="0" y="1792" on="1"/>
        <pt x="768" y="1792" on="1"/>
        <pt x="768" y="1536" on="1"/>
        <pt x="1024" y="1536" on="1"/>
        <pt x="1024" y="1792" on="1"/>
        <pt x="1536" y="1792" on="1"/>
        <pt x="1536" y="1536" on="1"/>
        <pt x="1792" y="1536" on="1"/>
        <pt x="1792" y="0" on="1"/>
        <pt x="1280" y="0" on="1"/>
      </contour>
    </TTGlyph>
    <TTGlyph name="macron" xMin="0" yMin="512" xMax="1792" yMax="1792">
      <contour>
        <pt x="768" y="1792" on="1"/>
        <pt x="1280" y="1792" on="1"/>
        <pt x="1280" y="1536" on="1"/>
        <pt x="1536" y="1536" on="1"/>
        <pt x="1536" y="1280" on="1"/>
        <pt x="1792" y="1280" on="1"/>
        <pt x="1792" y="1024" on="1"/>
        <pt x="1536" y="1024" on="1"/>
        <pt x="1536" y="768" on="1"/>
        <pt x="1280" y="768" on="1"/>
        <pt x="1280" y="512" on="1"/>
        <pt x="768" y="512" on="1"/>
        <pt x="768" y="768" on="1"/>
        <pt x="1024" y="768" on="1"/>
        <pt x="1024" y="1024" on="1"/>
        <pt x="1280" y="1024" on="1"/>
        <pt x="1280" y="1280" on="1"/>
        <pt x="1024" y="1280" on="1"/>
        <pt x="1024" y="1536" on="1"/>
        <pt x="770" y="1536" on="1"/>
        <pt x="768" y="1538" on="1"/>
      </contour>
      <contour>
        <pt x="768" y="1280" on="1"/>
        <pt x="1024" y="1280" on="1"/>
        <pt x="1024" y="1026" on="1"/>
        <pt x="1022" y="1024" on="1"/>
        <pt x="768" y="1024" on="1"/>
        <pt x="768" y="770" on="1"/>
        <pt x="766" y="768" on="1"/>
        <pt x="512" y="768" on="1"/>
        <pt x="512" y="512" on="1"/>
        <pt x="0" y="512" on="1"/>
        <pt x="0" y="768" on="1"/>
        <pt x="256" y="768" on="1"/>
        <pt x="256" y="1024" on="1"/>
        <pt x="512" y="1024" on="1"/>
        <pt x="512" y="1280" on="1"/>
        <pt x="256" y="1280" on="1"/>
        <pt x="256" y="1536" on="1"/>
        <pt x="0" y="1536" on="1"/>
        <pt x="0" y="1792" on="1"/>
        <pt x="512" y="1792" on="1"/>
        <pt x="512" y="1536" on="1"/>
        <pt x="768" y="1536" on="1"/>
      </contour>
    </TTGlyph>
    <TTGlyph name="mu" xMin="0" yMin="-1024" xMax="1280" yMax="3072">
      <contour>
        <pt x="0" y="1792" on="1"/>
        <pt x="768" y="1792" on="1"/>
        <pt x="768" y="3072" on="1"/>
        <pt x="1280" y="3072" on="1"/>
        <pt x="1280" y="-1024" on="1"/>
        <pt x="768" y="-1024" on="1"/>
        <pt x="768" y="1024" on="1"/>
        <pt x="0" y="1024" on="1"/>
        <pt x="0" y="1280" on="1"/>
        <pt x="768" y="1280" on="1"/>
        <pt x="768" y="1536" on="1"/>
        <pt x="0" y="1536" on="1"/>
      </contour>
    </TTGlyph>
    <TTGlyph name="multiply" xMin="0" yMin="-1024" xMax="2304" yMax="3072">
      <contour>
        <pt x="1280" y="1024" on="1"/>
        <pt x="1024" y="1024" on="1"/>
        <pt x="1024" y="-1024" on="1"/>
        <pt x="512" y="-1024" on="1"/>
        <pt x="512" y="1024" on="1"/>
        <pt x="0" y="1024" on="1"/>
        <pt x="0" y="1280" on="1"/>
        <pt x="512" y="1280" on="1"/>
        <pt x="512" y="3072" on="1"/>
        <pt x="1024" y="3072" on="1"/>
        <pt x="1024" y="1280" on="1"/>
        <pt x="1280" y="1280" on="1"/>
        <pt x="1280" y="3072" on="1"/>
        <pt x="1792" y="3072" on="1"/>
        <pt x="1792" y="1280" on="1"/>
        <pt x="2304" y="1280" on="1"/>
        <pt x="2304" y="1024" on="1"/>
        <pt x="1792" y="1024" on="1"/>
        <pt x="1792" y="-1024" on="1"/>
        <pt x="1280" y="-1024" on="1"/>
      </contour>
    </TTGlyph>
    <TTGlyph name="n" xMin="0" yMin="0" xMax="1792" yMax="1792">
      <contour>
        <pt x="256" y="1536" on="1"/>
        <pt x="0" y="1536" on="1"/>
        <pt x="0" y="1792" on="1"/>
        <pt x="512" y="1792" on="1"/>
        <pt x="512" y="1536" on="1"/>
        <pt x="768" y="1536" on="1"/>
        <pt x="768" y="0" on="1"/>
        <pt x="256" y="0" on="1"/>
      </contour>
      <contour>
        <pt x="768" y="1792" on="1"/>
        <pt x="1536" y="1792" on="1"/>
        <pt x="1536" y="1536" on="1"/>
        <pt x="1792" y="1536" on="1"/>
        <pt x="1792" y="0" on="1"/>
        <pt x="1280" y="0" on="1"/>
        <pt x="1280" y="1536" on="1"/>
        <pt x="768" y="1536" on="1"/>
      </contour>
    </TTGlyph>
    <TTGlyph name="nine" xMin="0" yMin="0" xMax="1792" yMax="2560">
      <contour>
        <pt x="256" y="256" on="1"/>
        <pt x="1280" y="256" on="1"/>
        <pt x="1280" y="0" on="1"/>
        <pt x="256" y="0" on="1"/>
      </contour>
      <contour>
        <pt x="512" y="1536" on="1"/>
        <pt x="1280" y="1536" on="1"/>
        <pt x="1280" y="2304" on="1"/>
        <pt x="512" y="2304" on="1"/>
      </contour>
      <contour>
        <pt x="1024" y="512" on="1"/>
        <pt x="1280" y="512" on="1"/>
        <pt x="1280" y="1280" on="1"/>
        <pt x="256" y="1280" on="1"/>
        <pt x="256" y="1536" on="1"/>
        <pt x="0" y="1536" on="1"/>
        <pt x="0" y="2304" on="1"/>
        <pt x="256" y="2304" on="1"/>
        <pt x="256" y="2560" on="1"/>
        <pt x="1536" y="2560" on="1"/>
        <pt x="1536" y="2304" on="1"/>
        <pt x="1792" y="2304" on="1"/>
        <pt x="1792" y="512" on="1"/>
        <pt x="1536" y="512" on="1"/>
        <pt x="1536" y="256" on="1"/>
        <pt x="1024" y="256" on="1"/>
      </contour>
    </TTGlyph>
    <TTGlyph name="nonbreakingspace" xMin="0" yMin="0" xMax="1792" yMax="2816">
      <contour>
        <pt x="768" y="2816" on="1"/>
        <pt x="1280" y="2816" on="1"/>
        <pt x="1280" y="2560" on="1"/>
        <pt x="1024" y="2560" on="1"/>
        <pt x="1024" y="2304" on="1"/>
        <pt x="768" y="2304" on="1"/>
        <pt x="768" y="2048" on="1"/>
        <pt x="256" y="2048" on="1"/>
        <pt x="256" y="2304" on="1"/>
        <pt x="512" y="2304" on="1"/>
        <pt x="512" y="2560" on="1"/>
        <pt x="768" y="2560" on="1"/>
      </contour>
      <contour>
        <pt x="1024" y="0" on="1"/>
        <pt x="256" y="0" on="1"/>
        <pt x="256" y="256" on="1"/>
        <pt x="0" y="256" on="1"/>
        <pt x="0" y="1024" on="1"/>
        <pt x="256" y="1024" on="1"/>
        <pt x="256" y="1280" on="1"/>
        <pt x="1024" y="1280" on="1"/>
        <pt x="1024" y="1536" on="1"/>
        <pt x="256" y="1536" on="1"/>
        <pt x="256" y="1792" on="1"/>
        <pt x="1280" y="1792" on="1"/>
        <pt x="1280" y="1536" on="1"/>
        <pt x="1536" y="1536" on="1"/>
        <pt x="1536" y="256" on="1"/>
        <pt x="1792" y="256" on="1"/>
        <pt x="1792" y="0" on="1"/>
        <pt x="1280" y="0" on="1"/>
        <pt x="1280" y="256" on="1"/>
        <pt x="1026" y="256" on="1"/>
        <pt x="1024" y="258" on="1"/>
        <pt x="1024" y="1024" on="1"/>
        <pt x="512" y="1024" on="1"/>
        <pt x="512" y="256" on="1"/>
        <pt x="1024" y="256" on="1"/>
      </contour>
    </TTGlyph>
    <TTGlyph name="ntilde" xMin="256" yMin="0" xMax="1792" yMax="2048">
      <contour>
        <pt x="256" y="256" on="1"/>
        <pt x="1792" y="256" on="1"/>
        <pt x="1792" y="0" on="1"/>
        <pt x="256" y="0" on="1"/>
      </contour>
      <contour>
        <pt x="256" y="1536" on="1"/>
        <pt x="768" y="1536" on="1"/>
        <pt x="768" y="2048" on="1"/>
        <pt x="1280" y="2048" on="1"/>
        <pt x="1280" y="1536" on="1"/>
        <pt x="1792" y="1536" on="1"/>
        <pt x="1792" y="1280" on="1"/>
        <pt x="1280" y="1280" on="1"/>
        <pt x="1280" y="768" on="1"/>
        <pt x="768" y="768" on="1"/>
        <pt x="768" y="1280" on="1"/>
        <pt x="256" y="1280" on="1"/>
      </contour>
    </TTGlyph>
    <TTGlyph name="numbersign" xMin="0" yMin="0" xMax="1792" yMax="2304">
      <contour>
        <pt x="1024" y="768" on="1"/>
        <pt x="1024" y="1536" on="1"/>
        <pt x="768" y="1536" on="1"/>
        <pt x="768" y="768" on="1"/>
      </contour>
      <contour>
        <pt x="256" y="2304" on="1"/>
        <pt x="768" y="2304" on="1"/>
        <pt x="768" y="1792" on="1"/>
        <pt x="1024" y="1792" on="1"/>
        <pt x="1024" y="2304" on="1"/>
        <pt x="1536" y="2304" on="1"/>
        <pt x="1536" y="1792" on="1"/>
        <pt x="1792" y="1792" on="1"/>
        <pt x="1792" y="1536" on="1"/>
        <pt x="1536" y="1536" on="1"/>
        <pt x="1536" y="768" on="1"/>
        <pt x="1792" y="768" on="1"/>
        <pt x="1792" y="512" on="1"/>
        <pt x="1536" y="512" on="1"/>
        <pt x="1536" y="0" on="1"/>
        <pt x="1024" y="0" on="1"/>
        <pt x="1024" y="512" on="1"/>
        <pt x="768" y="512" on="1"/>
        <pt x="768" y="0" on="1"/>
        <pt x="256" y="0" on="1"/>
        <pt x="256" y="512" on="1"/>
        <pt x="0" y="512" on="1"/>
        <pt x="0" y="768" on="1"/>
        <pt x="256" y="768" on="1"/>
        <pt x="256" y="1536" on="1"/>
        <pt x="0" y="1536" on="1"/>
        <pt x="0" y="1792" on="1"/>
        <pt x="256" y="1792" on="1"/>
      </contour>
    </TTGlyph>
    <TTGlyph name="o" xMin="0" yMin="0" xMax="1792" yMax="1792">
      <contour>
        <pt x="1280" y="1536" on="1"/>
        <pt x="512" y="1536" on="1"/>
        <pt x="512" y="256" on="1"/>
        <pt x="1280" y="256" on="1"/>
      </contour>
      <contour>
        <pt x="256" y="256" on="1"/>
        <pt x="0" y="256" on="1"/>
        <pt x="0" y="1536" on="1"/>
        <pt x="256" y="1536" on="1"/>
        <pt x="256" y="1792" on="1"/>
        <pt x="1536" y="1792" on="1"/>
        <pt x="1536" y="1536" on="1"/>
        <pt x="1792" y="1536" on="1"/>
        <pt x="1792" y="256" on="1"/>
        <pt x="1536" y="256" on="1"/>
        <pt x="1536" y="0" on="1"/>
        <pt x="256" y="0" on="1"/>
      </contour>
    </TTGlyph>
    <TTGlyph name="oacute" xMin="256" yMin="0" xMax="1792" yMax="2304">
      <contour>
        <pt x="256" y="256" on="1"/>
        <pt x="1792" y="256" on="1"/>
        <pt x="1792" y="0" on="1"/>
        <pt x="256" y="0" on="1"/>
      </contour>
      <contour>
        <pt x="1024" y="2304" on="1"/>
        <pt x="1536" y="2304" on="1"/>
        <pt x="1536" y="2048" on="1"/>
        <pt x="1280" y="2048" on="1"/>
        <pt x="1280" y="1792" on="1"/>
        <pt x="1024" y="1792" on="1"/>
        <pt x="1024" y="1536" on="1"/>
        <pt x="768" y="1536" on="1"/>
        <pt x="768" y="1280" on="1"/>
        <pt x="1024" y="1280" on="1"/>
        <pt x="1024" y="1024" on="1"/>
        <pt x="1280" y="1024" on="1"/>
        <pt x="1280" y="768" on="1"/>
        <pt x="1536" y="768" on="1"/>
        <pt x="1536" y="512" on="1"/>
        <pt x="1024" y="512" on="1"/>
        <pt x="1024" y="768" on="1"/>
        <pt x="768" y="768" on="1"/>
        <pt x="768" y="1024" on="1"/>
        <pt x="512" y="1024" on="1"/>
        <pt x="512" y="1280" on="1"/>
        <pt x="256" y="1280" on="1"/>
        <pt x="256" y="1536" on="1"/>
        <pt x="512" y="1536" on="1"/>
        <pt x="512" y="1792" on="1"/>
        <pt x="768" y="1792" on="1"/>
        <pt x="768" y="2048" on="1"/>
        <pt x="1024" y="2048" on="1"/>
      </contour>
    </TTGlyph>
    <TTGlyph name="ocircumflex" xMin="768" yMin="-1024" xMax="2048" yMax="2560">
      <contour>
        <pt x="1536" y="2304" on="1"/>
        <pt x="1280" y="2304" on="1"/>
        <pt x="1280" y="-1024" on="1"/>
        <pt x="768" y="-1024" on="1"/>
        <pt x="768" y="2304" on="1"/>
        <pt x="1024" y="2304" on="1"/>
        <pt x="1024" y="2560" on="1"/>
        <pt x="1792" y="2560" on="1"/>
        <pt x="1792" y="2304" on="1"/>
        <pt x="2048" y="2304" on="1"/>
        <pt x="2048" y="1792" on="1"/>
        <pt x="1536" y="1792" on="1"/>
      </contour>
    </TTGlyph>
    <TTGlyph name="odieresis" xMin="256" yMin="512" xMax="1792" yMax="1792">
      <contour>
        <pt x="768" y="768" on="1"/>
        <pt x="1280" y="768" on="1"/>
        <pt x="1280" y="512" on="1"/>
        <pt x="768" y="512" on="1"/>
      </contour>
      <contour>
        <pt x="768" y="1792" on="1"/>
        <pt x="1280" y="1792" on="1"/>
        <pt x="1280" y="1536" on="1"/>
        <pt x="768" y="1536" on="1"/>
      </contour>
      <contour>
        <pt x="256" y="1280" on="1"/>
        <pt x="1792" y="1280" on="1"/>
        <pt x="1792" y="1024" on="1"/>
        <pt x="256" y="1024" on="1"/>
      </contour>
    </TTGlyph>
    <TTGlyph name="oe" xMin="0" yMin="0" xMax="1792" yMax="2816">
      <contour>
        <pt x="1024" y="2560" on="1"/>
        <pt x="768" y="2560" on="1"/>
        <pt x="768" y="1792" on="1"/>
        <pt x="1024" y="1792" on="1"/>
        <pt x="1024" y="1536" on="1"/>
        <pt x="768" y="1536" on="1"/>
        <pt x="768" y="256" on="1"/>
        <pt x="1280" y="256" on="1"/>
        <pt x="1280" y="512" on="1"/>
        <pt x="1792" y="512" on="1"/>
        <pt x="1792" y="256" on="1"/>
        <pt x="1536" y="256" on="1"/>
        <pt x="1536" y="0" on="1"/>
        <pt x="0" y="0" on="1"/>
        <pt x="0" y="512" on="1"/>
        <pt x="256" y="512" on="1"/>
        <pt x="256" y="1536" on="1"/>
        <pt x="0" y="1536" on="1"/>
        <pt x="0" y="1792" on="1"/>
        <pt x="256" y="1792" on="1"/>
        <pt x="256" y="2560" on="1"/>
        <pt x="512" y="2560" on="1"/>
        <pt x="512" y="2816" on="1"/>
        <pt x="1280" y="2816" on="1"/>
        <pt x="1280" y="2560" on="1"/>
        <pt x="1536" y="2560" on="1"/>
        <pt x="1536" y="2048" on="1"/>
        <pt x="1280" y="2048" on="1"/>
        <pt x="1280" y="2304" on="1"/>
        <pt x="1024" y="2304" on="1"/>
      </contour>
    </TTGlyph>
    <TTGlyph name="ograve" xMin="256" yMin="0" xMax="1792" yMax="2304">
      <contour>
        <pt x="256" y="256" on="1"/>
        <pt x="1792" y="256" on="1"/>
        <pt x="1792" y="0" on="1"/>
        <pt x="256" y="0" on="1"/>
      </contour>
      <contour>
        <pt x="512" y="2304" on="1"/>
        <pt x="1024" y="2304" on="1"/>
        <pt x="1024" y="2048" on="1"/>
        <pt x="1280" y="2048" on="1"/>
        <pt x="1280" y="1792" on="1"/>
        <pt x="1536" y="1792" on="1"/>
        <pt x="1536" y="1536" on="1"/>
        <pt x="1792" y="1536" on="1"/>
        <pt x="1792" y="1280" on="1"/>
        <pt x="1536" y="1280" on="1"/>
        <pt x="1536" y="1024" on="1"/>
        <pt x="1280" y="1024" on="1"/>
        <pt x="1280" y="768" on="1"/>
        <pt x="1024" y="768" on="1"/>
        <pt x="1024" y="512" on="1"/>
        <pt x="512" y="512" on="1"/>
        <pt x="512" y="768" on="1"/>
        <pt x="768" y="768" on="1"/>
        <pt x="768" y="1024" on="1"/>
        <pt x="1024" y="1024" on="1"/>
        <pt x="1024" y="1280" on="1"/>
        <pt x="1280" y="1280" on="1"/>
        <pt x="1280" y="1536" on="1"/>
        <pt x="1024" y="1536" on="1"/>
        <pt x="1024" y="1792" on="1"/>
        <pt x="768" y="1792" on="1"/>
        <pt x="768" y="2048" on="1"/>
        <pt x="512" y="2048" on="1"/>
      </contour>
    </TTGlyph>
    <TTGlyph name="one" xMin="256" yMin="0" xMax="1792" yMax="2560">
      <contour>
        <pt x="256" y="2048" on="1"/>
        <pt x="512" y="2048" on="1"/>
        <pt x="512" y="2304" on="1"/>
        <pt x="768" y="2304" on="1"/>
        <pt x="768" y="2560" on="1"/>
        <pt x="1280" y="2560" on="1"/>
        <pt x="1280" y="256" on="1"/>
        <pt x="1792" y="256" on="1"/>
        <pt x="1792" y="0" on="1"/>
        <pt x="256" y="0" on="1"/>
        <pt x="256" y="256" on="1"/>
        <pt x="768" y="256" on="1"/>
        <pt x="768" y="1792" on="1"/>
        <pt x="256" y="1792" on="1"/>
      </contour>
    </TTGlyph>
    <TTGlyph name="onehalf" xMin="0" yMin="1024" xMax="1792" yMax="3072">
      <contour>
        <pt x="0" y="1280" on="1"/>
        <pt x="512" y="1280" on="1"/>
        <pt x="512" y="3072" on="1"/>
        <pt x="1024" y="3072" on="1"/>
        <pt x="1024" y="1280" on="1"/>
        <pt x="1280" y="1280" on="1"/>
        <pt x="1280" y="3072" on="1"/>
        <pt x="1792" y="3072" on="1"/>
        <pt x="1792" y="1024" on="1"/>
        <pt x="0" y="1024" on="1"/>
      </contour>
    </TTGlyph>
    <TTGlyph name="onequarter" xMin="0" yMin="1024" xMax="1792" yMax="3072">
      <contour>
        <pt x="0" y="1792" on="1"/>
        <pt x="512" y="1792" on="1"/>
        <pt x="512" y="3072" on="1"/>
        <pt x="1024" y="3072" on="1"/>
        <pt x="1024" y="1536" on="1"/>
        <pt x="0" y="1536" on="1"/>
      </contour>
      <contour>
        <pt x="0" y="1280" on="1"/>
        <pt x="1280" y="1280" on="1"/>
        <pt x="1280" y="3072" on="1"/>
        <pt x="1792" y="3072" on="1"/>
        <pt x="1792" y="1024" on="1"/>
        <pt x="0" y="1024" on="1"/>
      </contour>
    </TTGlyph>
    <TTGlyph name="onesuperior" xMin="0" yMin="-1024" xMax="1792" yMax="3072">
      <contour>
        <pt x="0" y="1792" on="1"/>
        <pt x="512" y="1792" on="1"/>
        <pt x="512" y="3072" on="1"/>
        <pt x="1024" y="3072" on="1"/>
        <pt x="1024" y="1536" on="1"/>
        <pt x="0" y="1536" on="1"/>
      </contour>
      <contour>
        <pt x="0" y="1280" on="1"/>
        <pt x="1024" y="1280" on="1"/>
        <pt x="1024" y="-1024" on="1"/>
        <pt x="512" y="-1024" on="1"/>
        <pt x="512" y="1024" on="1"/>
        <pt x="0" y="1024" on="1"/>
      </contour>
      <contour>
        <pt x="1280" y="3072" on="1"/>
        <pt x="1792" y="3072" on="1"/>
        <pt x="1792" y="-1024" on="1"/>
        <pt x="1280" y="-1024" on="1"/>
      </contour>
    </TTGlyph>
    <TTGlyph name="ordfeminine" xMin="0" yMin="256" xMax="1792" yMax="1536">
      <contour>
        <pt x="0" y="1536" on="1"/>
        <pt x="1792" y="1536" on="1"/>
        <pt x="1792" y="256" on="1"/>
        <pt x="1280" y="256" on="1"/>
        <pt x="1280" y="1280" on="1"/>
        <pt x="0" y="1280" on="1"/>
      </contour>
    </TTGlyph>
    <TTGlyph name="ordmasculine" xMin="512" yMin="-1024" xMax="1792" yMax="3072">
      <contour>
        <pt x="1280" y="3072" on="1"/>
        <pt x="1792" y="3072" on="1"/>
        <pt x="1792" y="-1024" on="1"/>
        <pt x="1280" y="-1024" on="1"/>
      </contour>
      <contour>
        <pt x="512" y="3072" on="1"/>
        <pt x="1024" y="3072" on="1"/>
        <pt x="1024" y="-1024" on="1"/>
        <pt x="512" y="-1024" on="1"/>
      </contour>
    </TTGlyph>
    <TTGlyph name="oslash" xMin="256" yMin="1792" xMax="1536" yMax="2816">
      <contour>
        <pt x="1024" y="2560" on="1"/>
        <pt x="768" y="2560" on="1"/>
        <pt x="768" y="2048" on="1"/>
        <pt x="1024" y="2048" on="1"/>
      </contour>
      <contour>
        <pt x="512" y="2048" on="1"/>
        <pt x="256" y="2048" on="1"/>
        <pt x="256" y="2560" on="1"/>
        <pt x="512" y="2560" on="1"/>
        <pt x="512" y="2816" on="1"/>
        <pt x="1280" y="2816" on="1"/>
        <pt x="1280" y="2560" on="1"/>
        <pt x="1536" y="2560" on="1"/>
        <pt x="1536" y="2048" on="1"/>
        <pt x="1280" y="2048" on="1"/>
        <pt x="1280" y="1792" on="1"/>
        <pt x="512" y="1792" on="1"/>
      </contour>
    </TTGlyph>
    <TTGlyph name="otilde" xMin="0" yMin="-256" xMax="1280" yMax="3072">
      <contour>
        <pt x="0" y="512" on="1"/>
        <pt x="512" y="512" on="1"/>
        <pt x="512" y="0" on="1"/>
        <pt x="768" y="0" on="1"/>
        <pt x="768" y="3072" on="1"/>
        <pt x="1280" y="3072" on="1"/>
        <pt x="1280" y="0" on="1"/>
        <pt x="1024" y="0" on="1"/>
        <pt x="1024" y="-256" on="1"/>
        <pt x="256" y="-256" on="1"/>
        <pt x="256" y="0" on="1"/>
        <pt x="0" y="0" on="1"/>
      </contour>
    </TTGlyph>
    <TTGlyph name="p" xMin="0" yMin="-768" xMax="1792" yMax="1792">
      <contour>
        <pt x="768" y="1792" on="1"/>
        <pt x="1536" y="1792" on="1"/>
        <pt x="1536" y="1536" on="1"/>
        <pt x="1792" y="1536" on="1"/>
        <pt x="1792" y="256" on="1"/>
        <pt x="1536" y="256" on="1"/>
        <pt x="1536" y="0" on="1"/>
        <pt x="768" y="0" on="1"/>
        <pt x="768" y="-512" on="1"/>
        <pt x="1024" y="-512" on="1"/>
        <pt x="1024" y="-768" on="1"/>
        <pt x="0" y="-768" on="1"/>
        <pt x="0" y="-512" on="1"/>
        <pt x="256" y="-512" on="1"/>
        <pt x="256" y="1536" on="1"/>
        <pt x="0" y="1536" on="1"/>
        <pt x="0" y="1792" on="1"/>
        <pt x="512" y="1792" on="1"/>
        <pt x="512" y="1536" on="1"/>
        <pt x="766" y="1536" on="1"/>
        <pt x="768" y="1534" on="1"/>
        <pt x="768" y="256" on="1"/>
        <pt x="1280" y="256" on="1"/>
        <pt x="1280" y="1536" on="1"/>
        <pt x="768" y="1536" on="1"/>
      </contour>
    </TTGlyph>
    <TTGlyph name="paragraph" xMin="0" yMin="-1024" xMax="1792" yMax="3072">
      <contour>
        <pt x="1280" y="3072" on="1"/>
        <pt x="1792" y="3072" on="1"/>
        <pt x="1792" y="-1024" on="1"/>
        <pt x="1280" y="-1024" on="1"/>
      </contour>
      <contour>
        <pt x="0" y="1280" on="1"/>
        <pt x="512" y="1280" on="1"/>
        <pt x="512" y="3072" on="1"/>
        <pt x="1024" y="3072" on="1"/>
        <pt x="1024" y="-1024" on="1"/>
        <pt x="512" y="-1024" on="1"/>
        <pt x="512" y="1024" on="1"/>
        <pt x="0" y="1024" on="1"/>
      </contour>
    </TTGlyph>
    <TTGlyph name="parenleft" xMin="512" yMin="0" xMax="1536" yMax="2560">
      <contour>
        <pt x="512" y="2048" on="1"/>
        <pt x="768" y="2048" on="1"/>
        <pt x="768" y="2304" on="1"/>
        <pt x="1024" y="2304" on="1"/>
        <pt x="1024" y="2560" on="1"/>
        <pt x="1536" y="2560" on="1"/>
        <pt x="1536" y="2304" on="1"/>
        <pt x="1280" y="2304" on="1"/>
        <pt x="1280" y="2048" on="1"/>
        <pt x="1024" y="2048" on="1"/>
        <pt x="1024" y="512" on="1"/>
        <pt x="1280" y="512" on="1"/>
        <pt x="1280" y="256" on="1"/>
        <pt x="1536" y="256" on="1"/>
        <pt x="1536" y="0" on="1"/>
        <pt x="1024" y="0" on="1"/>
        <pt x="1024" y="256" on="1"/>
        <pt x="768" y="256" on="1"/>
        <pt x="768" y="512" on="1"/>
        <pt x="512" y="512" on="1"/>
      </contour>
    </TTGlyph>
    <TTGlyph name="parenright" xMin="512" yMin="0" xMax="1536" yMax="2560">
      <contour>
        <pt x="512" y="256" on="1"/>
        <pt x="768" y="256" on="1"/>
        <pt x="768" y="512" on="1"/>
        <pt x="1024" y="512" on="1"/>
        <pt x="1024" y="2048" on="1"/>
        <pt x="768" y="2048" on="1"/>
        <pt x="768" y="2304" on="1"/>
        <pt x="512" y="2304" on="1"/>
        <pt x="512" y="2560" on="1"/>
        <pt x="1024" y="2560" on="1"/>
        <pt x="1024" y="2304" on="1"/>
        <pt x="1280" y="2304" on="1"/>
        <pt x="1280" y="2048" on="1"/>
        <pt x="1536" y="2048" on="1"/>
        <pt x="1536" y="512" on="1"/>
        <pt x="1280" y="512" on="1"/>
        <pt x="1280" y="256" on="1"/>
        <pt x="1024" y="256" on="1"/>
        <pt x="1024" y="0" on="1"/>
        <pt x="512" y="0" on="1"/>
      </contour>
    </TTGlyph>
    <TTGlyph name="period" xMin="768" yMin="0" xMax="1280" yMax="512">
      <contour>
        <pt x="768" y="512" on="1"/>
        <pt x="1280" y="512" on="1"/>
        <pt x="1280" y="0" on="1"/>
        <pt x="768" y="0" on="1"/>
      </contour>
    </TTGlyph>
    <TTGlyph name="periodcentered" xMin="0" yMin="-1024" xMax="1792" yMax="1280">
      <contour>
        <pt x="1280" y="1024" on="1"/>
        <pt x="1024" y="1024" on="1"/>
        <pt x="1024" y="-1024" on="1"/>
        <pt x="512" y="-1024" on="1"/>
        <pt x="512" y="1024" on="1"/>
        <pt x="0" y="1024" on="1"/>
        <pt x="0" y="1280" on="1"/>
        <pt x="1792" y="1280" on="1"/>
        <pt x="1792" y="-1024" on="1"/>
        <pt x="1280" y="-1024" on="1"/>
      </contour>
    </TTGlyph>
    <TTGlyph name="perthousand" xMin="0" yMin="0" xMax="1792" yMax="2560">
      <contour>
        <pt x="1280" y="2560" on="1"/>
        <pt x="1792" y="2560" on="1"/>
        <pt x="1792" y="2304" on="1"/>
        <pt x="1280" y="2304" on="1"/>
      </contour>
      <contour>
        <pt x="0" y="2560" on="1"/>
        <pt x="512" y="2560" on="1"/>
        <pt x="512" y="2304" on="1"/>
        <pt x="0" y="2304" on="1"/>
      </contour>
      <contour>
        <pt x="512" y="1280" on="1"/>
        <pt x="1280" y="1280" on="1"/>
        <pt x="1280" y="1536" on="1"/>
        <pt x="512" y="1536" on="1"/>
      </contour>
      <contour>
        <pt x="256" y="1792" on="1"/>
        <pt x="1536" y="1792" on="1"/>
        <pt x="1536" y="1536" on="1"/>
        <pt x="1792" y="1536" on="1"/>
        <pt x="1792" y="1024" on="1"/>
        <pt x="512" y="1024" on="1"/>
        <pt x="512" y="256" on="1"/>
        <pt x="1280" y="256" on="1"/>
        <pt x="1280" y="512" on="1"/>
        <pt x="1792" y="512" on="1"/>
        <pt x="1792" y="256" on="1"/>
        <pt x="1536" y="256" on="1"/>
        <pt x="1536" y="0" on="1"/>
        <pt x="256" y="0" on="1"/>
        <pt x="256" y="256" on="1"/>
        <pt x="0" y="256" on="1"/>
        <pt x="0" y="1536" on="1"/>
        <pt x="256" y="1536" on="1"/>
      </contour>
    </TTGlyph>
    <TTGlyph name="plus" xMin="256" yMin="512" xMax="1792" yMax="1792">
      <contour>
        <pt x="256" y="1280" on="1"/>
        <pt x="768" y="1280" on="1"/>
        <pt x="768" y="1792" on="1"/>
        <pt x="1280" y="1792" on="1"/>
        <pt x="1280" y="1280" on="1"/>
        <pt x="1792" y="1280" on="1"/>
        <pt x="1792" y="1024" on="1"/>
        <pt x="1280" y="1024" on="1"/>
        <pt x="1280" y="512" on="1"/>
        <pt x="768" y="512" on="1"/>
        <pt x="768" y="1024" on="1"/>
        <pt x="256" y="1024" on="1"/>
      </contour>
    </TTGlyph>
    <TTGlyph name="plusminus" xMin="0" yMin="-1024" xMax="2050" yMax="3072">
      <contour>
        <pt x="1538" y="-768" on="1"/>
        <pt x="1792" y="-768" on="1"/>
        <pt x="1794" y="-770" on="1"/>
        <pt x="1794" y="-1024" on="1"/>
        <pt x="1538" y="-1024" on="1"/>
      </contour>
      <contour>
        <pt x="1794" y="-512" on="1"/>
        <pt x="2048" y="-512" on="1"/>
        <pt x="2050" y="-514" on="1"/>
        <pt x="2048" y="-768" on="1"/>
        <pt x="1794" y="-768" on="1"/>
      </contour>
      <contour>
        <pt x="1026" y="-768" on="1"/>
        <pt x="1280" y="-768" on="1"/>
        <pt x="1282" y="-770" on="1"/>
        <pt x="1282" y="-1024" on="1"/>
        <pt x="1026" y="-1024" on="1"/>
      </contour>
      <contour>
        <pt x="1282" y="-512" on="1"/>
        <pt x="1536" y="-512" on="1"/>
        <pt x="1538" y="-514" on="1"/>
        <pt x="1536" y="-768" on="1"/>
        <pt x="1282" y="-768" on="1"/>
      </contour>
      <contour>
        <pt x="514" y="-768" on="1"/>
        <pt x="768" y="-768" on="1"/>
        <pt x="770" y="-770" on="1"/>
        <pt x="770" y="-1024" on="1"/>
        <pt x="514" y="-1024" on="1"/>
      </contour>
      <contour>
        <pt x="770" y="-512" on="1"/>
        <pt x="1024" y="-512" on="1"/>
        <pt x="1026" y="-514" on="1"/>
        <pt x="1024" y="-768" on="1"/>
        <pt x="770" y="-768" on="1"/>
      </contour>
      <contour>
        <pt x="0" y="-768" on="1"/>
        <pt x="254" y="-768" on="1"/>
        <pt x="256" y="-770" on="1"/>
        <pt x="256" y="-1024" on="1"/>
        <pt x="0" y="-1024" on="1"/>
      </contour>
      <contour>
        <pt x="256" y="-512" on="1"/>
        <pt x="510" y="-512" on="1"/>
        <pt x="512" y="-514" on="1"/>
        <pt x="510" y="-768" on="1"/>
        <pt x="256" y="-768" on="1"/>
      </contour>
      <contour>
        <pt x="1538" y="-256" on="1"/>
        <pt x="1792" y="-256" on="1"/>
        <pt x="1794" y="-258" on="1"/>
        <pt x="1794" y="-512" on="1"/>
        <pt x="1538" y="-512" on="1"/>
      </contour>
      <contour>
        <pt x="1794" y="0" on="1"/>
        <pt x="2048" y="0" on="1"/>
        <pt x="2050" y="-2" on="1"/>
        <pt x="2048" y="-256" on="1"/>
        <pt x="1794" y="-256" on="1"/>
      </contour>
      <contour>
        <pt x="1026" y="-256" on="1"/>
        <pt x="1280" y="-256" on="1"/>
        <pt x="1282" y="-258" on="1"/>
        <pt x="1282" y="-512" on="1"/>
        <pt x="1026" y="-512" on="1"/>
      </contour>
      <contour>
        <pt x="1282" y="0" on="1"/>
        <pt x="1536" y="0" on="1"/>
        <pt x="1538" y="-2" on="1"/>
        <pt x="1536" y="-256" on="1"/>
        <pt x="1282" y="-256" on="1"/>
      </contour>
      <contour>
        <pt x="514" y="-256" on="1"/>
        <pt x="768" y="-256" on="1"/>
        <pt x="770" y="-258" on="1"/>
        <pt x="770" y="-512" on="1"/>
        <pt x="514" y="-512" on="1"/>
      </contour>
      <contour>
        <pt x="770" y="0" on="1"/>
        <pt x="1024" y="0" on="1"/>
        <pt x="1026" y="-2" on="1"/>
        <pt x="1024" y="-256" on="1"/>
        <pt x="770" y="-256" on="1"/>
      </contour>
      <contour>
        <pt x="0" y="-256" on="1"/>
        <pt x="254" y="-256" on="1"/>
        <pt x="256" y="-258" on="1"/>
        <pt x="256" y="-512" on="1"/>
        <pt x="0" y="-512" on="1"/>
      </contour>
      <contour>
        <pt x="256" y="0" on="1"/>
        <pt x="510" y="0" on="1"/>
        <pt x="512" y="-2" on="1"/>
        <pt x="510" y="-256" on="1"/>
        <pt x="256" y="-256" on="1"/>
      </contour>
      <contour>
        <pt x="1538" y="256" on="1"/>
        <pt x="1792" y="256" on="1"/>
        <pt x="1794" y="254" on="1"/>
        <pt x="1794" y="0" on="1"/>
        <pt x="1538" y="0" on="1"/>
      </contour>
      <contour>
        <pt x="1794" y="512" on="1"/>
        <pt x="2048" y="512" on="1"/>
        <pt x="2050" y="510" on="1"/>
        <pt x="2048" y="256" on="1"/>
        <pt x="1794" y="256" on="1"/>
      </contour>
      <contour>
        <pt x="1026" y="256" on="1"/>
        <pt x="1280" y="256" on="1"/>
        <pt x="1282" y="254" on="1"/>
        <pt x="1282" y="0" on="1"/>
        <pt x="1026" y="0" on="1"/>
      </contour>
      <contour>
        <pt x="1282" y="512" on="1"/>
        <pt x="1536" y="512" on="1"/>
        <pt x="1538" y="510" on="1"/>
        <pt x="1536" y="256" on="1"/>
        <pt x="1282" y="256" on="1"/>
      </contour>
      <contour>
        <pt x="514" y="256" on="1"/>
        <pt x="768" y="256" on="1"/>
        <pt x="770" y="254" on="1"/>
        <pt x="770" y="0" on="1"/>
        <pt x="514" y="0" on="1"/>
      </contour>
      <contour>
        <pt x="770" y="512" on="1"/>
        <pt x="1024" y="512" on="1"/>
        <pt x="1026" y="510" on="1"/>
        <pt x="1024" y="256" on="1"/>
        <pt x="770" y="256" on="1"/>
      </contour>
      <contour>
        <pt x="0" y="256" on="1"/>
        <pt x="254" y="256" on="1"/>
        <pt x="256" y="254" on="1"/>
        <pt x="256" y="0" on="1"/>
        <pt x="0" y="0" on="1"/>
      </contour>
      <contour>
        <pt x="256" y="512" on="1"/>
        <pt x="510" y="512" on="1"/>
        <pt x="512" y="510" on="1"/>
        <pt x="510" y="256" on="1"/>
        <pt x="256" y="256" on="1"/>
      </contour>
      <contour>
        <pt x="1538" y="768" on="1"/>
        <pt x="1792" y="768" on="1"/>
        <pt x="1794" y="766" on="1"/>
        <pt x="1794" y="512" on="1"/>
        <pt x="1538" y="512" on="1"/>
      </contour>
      <contour>
        <pt x="1794" y="1024" on="1"/>
        <pt x="2048" y="1024" on="1"/>
        <pt x="2050" y="1022" on="1"/>
        <pt x="2048" y="768" on="1"/>
        <pt x="1794" y="768" on="1"/>
      </contour>
      <contour>
        <pt x="1026" y="768" on="1"/>
        <pt x="1280" y="768" on="1"/>
        <pt x="1282" y="766" on="1"/>
        <pt x="1282" y="512" on="1"/>
        <pt x="1026" y="512" on="1"/>
      </contour>
      <contour>
        <pt x="1282" y="1024" on="1"/>
        <pt x="1536" y="1024" on="1"/>
        <pt x="1538" y="1022" on="1"/>
        <pt x="1536" y="768" on="1"/>
        <pt x="1282" y="768" on="1"/>
      </contour>
      <contour>
        <pt x="514" y="768" on="1"/>
        <pt x="768" y="768" on="1"/>
        <pt x="770" y="766" on="1"/>
        <pt x="770" y="512" on="1"/>
        <pt x="514" y="512" on="1"/>
      </contour>
      <contour>
        <pt x="770" y="1024" on="1"/>
        <pt x="1024" y="1024" on="1"/>
        <pt x="1026" y="1022" on="1"/>
        <pt x="1024" y="768" on="1"/>
        <pt x="770" y="768" on="1"/>
      </contour>
      <contour>
        <pt x="0" y="768" on="1"/>
        <pt x="254" y="768" on="1"/>
        <pt x="256" y="766" on="1"/>
        <pt x="256" y="512" on="1"/>
        <pt x="0" y="512" on="1"/>
      </contour>
      <contour>
        <pt x="256" y="1024" on="1"/>
        <pt x="510" y="1024" on="1"/>
        <pt x="512" y="1022" on="1"/>
        <pt x="510" y="768" on="1"/>
        <pt x="256" y="768" on="1"/>
      </contour>
      <contour>
        <pt x="1538" y="1280" on="1"/>
        <pt x="1792" y="1280" on="1"/>
        <pt x="1794" y="1278" on="1"/>
        <pt x="1794" y="1024" on="1"/>
        <pt x="1538" y="1024" on="1"/>
      </contour>
      <contour>
        <pt x="1794" y="1536" on="1"/>
        <pt x="2048" y="1536" on="1"/>
        <pt x="2050" y="1534" on="1"/>
        <pt x="2048" y="1280" on="1"/>
        <pt x="1794" y="1280" on="1"/>
      </contour>
      <contour>
        <pt x="1026" y="1280" on="1"/>
        <pt x="1280" y="1280" on="1"/>
        <pt x="1282" y="1278" on="1"/>
        <pt x="1282" y="1024" on="1"/>
        <pt x="1026" y="1024" on="1"/>
      </contour>
      <contour>
        <pt x="1282" y="1536" on="1"/>
        <pt x="1536" y="1536" on="1"/>
        <pt x="1538" y="1534" on="1"/>
        <pt x="1536" y="1280" on="1"/>
        <pt x="1282" y="1280" on="1"/>
      </contour>
      <contour>
        <pt x="514" y="1280" on="1"/>
        <pt x="768" y="1280" on="1"/>
        <pt x="770" y="1278" on="1"/>
        <pt x="770" y="1024" on="1"/>
        <pt x="514" y="1024" on="1"/>
      </contour>
      <contour>
        <pt x="770" y="1536" on="1"/>
        <pt x="1024" y="1536" on="1"/>
        <pt x="1026" y="1534" on="1"/>
        <pt x="1024" y="1280" on="1"/>
        <pt x="770" y="1280" on="1"/>
      </contour>
      <contour>
        <pt x="0" y="1280" on="1"/>
        <pt x="254" y="1280" on="1"/>
        <pt x="256" y="1278" on="1"/>
        <pt x="256" y="1024" on="1"/>
        <pt x="0" y="1024" on="1"/>
      </contour>
      <contour>
        <pt x="256" y="1536" on="1"/>
        <pt x="510" y="1536" on="1"/>
        <pt x="512" y="1534" on="1"/>
        <pt x="510" y="1280" on="1"/>
        <pt x="256" y="1280" on="1"/>
      </contour>
      <contour>
        <pt x="1538" y="1792" on="1"/>
        <pt x="1792" y="1792" on="1"/>
        <pt x="1794" y="1790" on="1"/>
        <pt x="1794" y="1536" on="1"/>
        <pt x="1538" y="1536" on="1"/>
      </contour>
      <contour>
        <pt x="1794" y="2048" on="1"/>
        <pt x="2048" y="2048" on="1"/>
        <pt x="2050" y="2046" on="1"/>
        <pt x="2048" y="1792" on="1"/>
        <pt x="1794" y="1792" on="1"/>
      </contour>
      <contour>
        <pt x="1026" y="1792" on="1"/>
        <pt x="1280" y="1792" on="1"/>
        <pt x="1282" y="1790" on="1"/>
        <pt x="1282" y="1536" on="1"/>
        <pt x="1026" y="1536" on="1"/>
      </contour>
      <contour>
        <pt x="1282" y="2048" on="1"/>
        <pt x="1536" y="2048" on="1"/>
        <pt x="1538" y="2046" on="1"/>
        <pt x="1536" y="1792" on="1"/>
        <pt x="1282" y="1792" on="1"/>
      </contour>
      <contour>
        <pt x="514" y="1792" on="1"/>
        <pt x="768" y="1792" on="1"/>
        <pt x="770" y="1790" on="1"/>
        <pt x="770" y="1536" on="1"/>
        <pt x="514" y="1536" on="1"/>
      </contour>
      <contour>
        <pt x="770" y="2048" on="1"/>
        <pt x="1024" y="2048" on="1"/>
        <pt x="1026" y="2046" on="1"/>
        <pt x="1024" y="1792" on="1"/>
        <pt x="770" y="1792" on="1"/>
      </contour>
      <contour>
        <pt x="0" y="1792" on="1"/>
        <pt x="254" y="1792" on="1"/>
        <pt x="256" y="1790" on="1"/>
        <pt x="256" y="1536" on="1"/>
        <pt x="0" y="1536" on="1"/>
      </contour>
      <contour>
        <pt x="256" y="2048" on="1"/>
        <pt x="510" y="2048" on="1"/>
        <pt x="512" y="2046" on="1"/>
        <pt x="510" y="1792" on="1"/>
        <pt x="256" y="1792" on="1"/>
      </contour>
      <contour>
        <pt x="1538" y="2304" on="1"/>
        <pt x="1792" y="2304" on="1"/>
        <pt x="1794" y="2302" on="1"/>
        <pt x="1794" y="2048" on="1"/>
        <pt x="1538" y="2048" on="1"/>
      </contour>
      <contour>
        <pt x="1794" y="2560" on="1"/>
        <pt x="2048" y="2560" on="1"/>
        <pt x="2050" y="2558" on="1"/>
        <pt x="2048" y="2304" on="1"/>
        <pt x="1794" y="2304" on="1"/>
      </contour>
      <contour>
        <pt x="1026" y="2304" on="1"/>
        <pt x="1280" y="2304" on="1"/>
        <pt x="1282" y="2302" on="1"/>
        <pt x="1282" y="2048" on="1"/>
        <pt x="1026" y="2048" on="1"/>
      </contour>
      <contour>
        <pt x="1282" y="2560" on="1"/>
        <pt x="1536" y="2560" on="1"/>
        <pt x="1538" y="2558" on="1"/>
        <pt x="1536" y="2304" on="1"/>
        <pt x="1282" y="2304" on="1"/>
      </contour>
      <contour>
        <pt x="514" y="2304" on="1"/>
        <pt x="768" y="2304" on="1"/>
        <pt x="770" y="2302" on="1"/>
        <pt x="770" y="2048" on="1"/>
        <pt x="514" y="2048" on="1"/>
      </contour>
      <contour>
        <pt x="770" y="2560" on="1"/>
        <pt x="1024" y="2560" on="1"/>
        <pt x="1026" y="2558" on="1"/>
        <pt x="1024" y="2304" on="1"/>
        <pt x="770" y="2304" on="1"/>
      </contour>
      <contour>
        <pt x="0" y="2304" on="1"/>
        <pt x="254" y="2304" on="1"/>
        <pt x="256" y="2302" on="1"/>
        <pt x="256" y="2048" on="1"/>
        <pt x="0" y="2048" on="1"/>
      </contour>
      <contour>
        <pt x="256" y="2560" on="1"/>
        <pt x="510" y="2560" on="1"/>
        <pt x="512" y="2558" on="1"/>
        <pt x="510" y="2304" on="1"/>
        <pt x="256" y="2304" on="1"/>
      </contour>
      <contour>
        <pt x="1536" y="2816" on="1"/>
        <pt x="1790" y="2816" on="1"/>
        <pt x="1792" y="2814" on="1"/>
        <pt x="1792" y="2560" on="1"/>
        <pt x="1536" y="2560" on="1"/>
      </contour>
      <contour>
        <pt x="1792" y="3072" on="1"/>
        <pt x="2048" y="3072" on="1"/>
        <pt x="2048" y="2816" on="1"/>
        <pt x="1792" y="2816" on="1"/>
      </contour>
      <contour>
        <pt x="1024" y="2816" on="1"/>
        <pt x="1278" y="2816" on="1"/>
        <pt x="1280" y="2814" on="1"/>
        <pt x="1280" y="2560" on="1"/>
        <pt x="1024" y="2560" on="1"/>
      </contour>
      <contour>
        <pt x="1280" y="3072" on="1"/>
        <pt x="1536" y="3072" on="1"/>
        <pt x="1536" y="2816" on="1"/>
        <pt x="1280" y="2816" on="1"/>
      </contour>
      <contour>
        <pt x="512" y="2816" on="1"/>
        <pt x="766" y="2816" on="1"/>
        <pt x="768" y="2814" on="1"/>
        <pt x="768" y="2560" on="1"/>
        <pt x="512" y="2560" on="1"/>
      </contour>
      <contour>
        <pt x="768" y="3072" on="1"/>
        <pt x="1024" y="3072" on="1"/>
        <pt x="1024" y="2816" on="1"/>
        <pt x="768" y="2816" on="1"/>
      </contour>
      <contour>
        <pt x="0" y="2816" on="1"/>
        <pt x="254" y="2816" on="1"/>
        <pt x="256" y="2814" on="1"/>
        <pt x="256" y="2560" on="1"/>
        <pt x="0" y="2560" on="1"/>
      </contour>
      <contour>
        <pt x="256" y="3072" on="1"/>
        <pt x="512" y="3072" on="1"/>
        <pt x="512" y="2816" on="1"/>
        <pt x="256" y="2816" on="1"/>
      </contour>
    </TTGlyph>
    <TTGlyph name="q" xMin="0" yMin="-768" xMax="1792" yMax="1792">
      <contour>
        <pt x="1024" y="256" on="1"/>
        <pt x="1024" y="1534" on="1"/>
        <pt x="1026" y="1536" on="1"/>
        <pt x="1280" y="1536" on="1"/>
        <pt x="1280" y="1792" on="1"/>
        <pt x="1792" y="1792" on="1"/>
        <pt x="1792" y="1536" on="1"/>
        <pt x="1536" y="1536" on="1"/>
        <pt x="1536" y="-512" on="1"/>
        <pt x="1792" y="-512" on="1"/>
        <pt x="1792" y="-768" on="1"/>
        <pt x="768" y="-768" on="1"/>
        <pt x="768" y="-512" on="1"/>
        <pt x="1024" y="-512" on="1"/>
        <pt x="1024" y="0" on="1"/>
        <pt x="256" y="0" on="1"/>
        <pt x="256" y="256" on="1"/>
        <pt x="0" y="256" on="1"/>
        <pt x="0" y="1536" on="1"/>
        <pt x="256" y="1536" on="1"/>
        <pt x="256" y="1792" on="1"/>
        <pt x="1024" y="1792" on="1"/>
        <pt x="1024" y="1536" on="1"/>
        <pt x="512" y="1536" on="1"/>
        <pt x="512" y="256" on="1"/>
      </contour>
    </TTGlyph>
    <TTGlyph name="question" xMin="0" yMin="0" xMax="1792" yMax="2560">
      <contour>
        <pt x="768" y="512" on="1"/>
        <pt x="1280" y="512" on="1"/>
        <pt x="1280" y="0" on="1"/>
        <pt x="768" y="0" on="1"/>
      </contour>
      <contour>
        <pt x="768" y="1536" on="1"/>
        <pt x="1024" y="1536" on="1"/>
        <pt x="1024" y="1792" on="1"/>
        <pt x="1280" y="1792" on="1"/>
        <pt x="1280" y="2304" on="1"/>
        <pt x="512" y="2304" on="1"/>
        <pt x="512" y="1792" on="1"/>
        <pt x="0" y="1792" on="1"/>
        <pt x="0" y="2304" on="1"/>
        <pt x="256" y="2304" on="1"/>
        <pt x="256" y="2560" on="1"/>
        <pt x="1536" y="2560" on="1"/>
        <pt x="1536" y="2304" on="1"/>
        <pt x="1792" y="2304" on="1"/>
        <pt x="1792" y="1792" on="1"/>
        <pt x="1536" y="1792" on="1"/>
        <pt x="1536" y="1536" on="1"/>
        <pt x="1280" y="1536" on="1"/>
        <pt x="1280" y="768" on="1"/>
        <pt x="768" y="768" on="1"/>
      </contour>
    </TTGlyph>
    <TTGlyph name="questiondown" xMin="0" yMin="-1024" xMax="1280" yMax="1280">
      <contour>
        <pt x="0" y="1280" on="1"/>
        <pt x="1280" y="1280" on="1"/>
        <pt x="1280" y="-1024" on="1"/>
        <pt x="768" y="-1024" on="1"/>
        <pt x="768" y="1024" on="1"/>
        <pt x="0" y="1024" on="1"/>
      </contour>
    </TTGlyph>
    <TTGlyph name="quotedbl" xMin="256" yMin="1792" xMax="1792" yMax="2816">
      <contour>
        <pt x="1536" y="1792" on="1"/>
        <pt x="1280" y="1792" on="1"/>
        <pt x="1280" y="2816" on="1"/>
        <pt x="1792" y="2816" on="1"/>
        <pt x="1792" y="2048" on="1"/>
        <pt x="1536" y="2048" on="1"/>
      </contour>
      <contour>
        <pt x="512" y="2048" on="1"/>
        <pt x="256" y="2048" on="1"/>
        <pt x="256" y="2816" on="1"/>
        <pt x="768" y="2816" on="1"/>
        <pt x="768" y="1792" on="1"/>
        <pt x="512" y="1792" on="1"/>
      </contour>
    </TTGlyph>
    <TTGlyph name="quotedblbase" xMin="0" yMin="0" xMax="1792" yMax="2560">
      <contour>
        <pt x="1024" y="2560" on="1"/>
        <pt x="1536" y="2560" on="1"/>
        <pt x="1536" y="2304" on="1"/>
        <pt x="1024" y="2304" on="1"/>
      </contour>
      <contour>
        <pt x="0" y="2560" on="1"/>
        <pt x="512" y="2560" on="1"/>
        <pt x="512" y="2304" on="1"/>
        <pt x="0" y="2304" on="1"/>
      </contour>
      <contour>
        <pt x="1024" y="0" on="1"/>
        <pt x="256" y="0" on="1"/>
        <pt x="256" y="256" on="1"/>
        <pt x="0" y="256" on="1"/>
        <pt x="0" y="1024" on="1"/>
        <pt x="256" y="1024" on="1"/>
        <pt x="256" y="1280" on="1"/>
        <pt x="1024" y="1280" on="1"/>
        <pt x="1024" y="1536" on="1"/>
        <pt x="256" y="1536" on="1"/>
        <pt x="256" y="1792" on="1"/>
        <pt x="1280" y="1792" on="1"/>
        <pt x="1280" y="1536" on="1"/>
        <pt x="1536" y="1536" on="1"/>
        <pt x="1536" y="256" on="1"/>
        <pt x="1792" y="256" on="1"/>
        <pt x="1792" y="0" on="1"/>
        <pt x="1280" y="0" on="1"/>
        <pt x="1280" y="256" on="1"/>
        <pt x="1026" y="256" on="1"/>
        <pt x="1024" y="258" on="1"/>
        <pt x="1024" y="1024" on="1"/>
        <pt x="512" y="1024" on="1"/>
        <pt x="512" y="256" on="1"/>
        <pt x="1024" y="256" on="1"/>
      </contour>
    </TTGlyph>
    <TTGlyph name="quotedblleft" xMin="0" yMin="0" xMax="1792" yMax="2816">
      <contour>
        <pt x="1024" y="2304" on="1"/>
        <pt x="768" y="2304" on="1"/>
        <pt x="768" y="2048" on="1"/>
        <pt x="256" y="2048" on="1"/>
        <pt x="256" y="2304" on="1"/>
        <pt x="512" y="2304" on="1"/>
        <pt x="512" y="2560" on="1"/>
        <pt x="768" y="2560" on="1"/>
        <pt x="768" y="2816" on="1"/>
        <pt x="1024" y="2816" on="1"/>
        <pt x="1024" y="2560" on="1"/>
        <pt x="1280" y="2560" on="1"/>
        <pt x="1280" y="2304" on="1"/>
        <pt x="1536" y="2304" on="1"/>
        <pt x="1536" y="2048" on="1"/>
        <pt x="1024" y="2048" on="1"/>
      </contour>
      <contour>
        <pt x="1280" y="1536" on="1"/>
        <pt x="512" y="1536" on="1"/>
        <pt x="512" y="256" on="1"/>
        <pt x="1280" y="256" on="1"/>
      </contour>
      <contour>
        <pt x="256" y="256" on="1"/>
        <pt x="0" y="256" on="1"/>
        <pt x="0" y="1536" on="1"/>
        <pt x="256" y="1536" on="1"/>
        <pt x="256" y="1792" on="1"/>
        <pt x="1536" y="1792" on="1"/>
        <pt x="1536" y="1536" on="1"/>
        <pt x="1792" y="1536" on="1"/>
        <pt x="1792" y="256" on="1"/>
        <pt x="1536" y="256" on="1"/>
        <pt x="1536" y="0" on="1"/>
        <pt x="256" y="0" on="1"/>
      </contour>
    </TTGlyph>
    <TTGlyph name="quotedblright" xMin="0" yMin="0" xMax="1792" yMax="2560">
      <contour>
        <pt x="1280" y="2560" on="1"/>
        <pt x="1792" y="2560" on="1"/>
        <pt x="1792" y="2304" on="1"/>
        <pt x="1280" y="2304" on="1"/>
      </contour>
      <contour>
        <pt x="0" y="2560" on="1"/>
        <pt x="512" y="2560" on="1"/>
        <pt x="512" y="2304" on="1"/>
        <pt x="0" y="2304" on="1"/>
      </contour>
      <contour>
        <pt x="1280" y="1536" on="1"/>
        <pt x="512" y="1536" on="1"/>
        <pt x="512" y="256" on="1"/>
        <pt x="1280" y="256" on="1"/>
      </contour>
      <contour>
        <pt x="256" y="256" on="1"/>
        <pt x="0" y="256" on="1"/>
        <pt x="0" y="1536" on="1"/>
        <pt x="256" y="1536" on="1"/>
        <pt x="256" y="1792" on="1"/>
        <pt x="1536" y="1792" on="1"/>
        <pt x="1536" y="1536" on="1"/>
        <pt x="1792" y="1536" on="1"/>
        <pt x="1792" y="256" on="1"/>
        <pt x="1536" y="256" on="1"/>
        <pt x="1536" y="0" on="1"/>
        <pt x="256" y="0" on="1"/>
      </contour>
    </TTGlyph>
    <TTGlyph name="quoteleft" xMin="0" yMin="0" xMax="1792" yMax="1792">
      <contour>
        <pt x="1024" y="1024" on="1"/>
        <pt x="1280" y="1024" on="1"/>
        <pt x="1280" y="1536" on="1"/>
        <pt x="1026" y="1536" on="1"/>
        <pt x="1024" y="1538" on="1"/>
        <pt x="1024" y="1792" on="1"/>
        <pt x="1536" y="1792" on="1"/>
        <pt x="1536" y="1536" on="1"/>
        <pt x="1792" y="1536" on="1"/>
        <pt x="1792" y="768" on="1"/>
        <pt x="1280" y="768" on="1"/>
        <pt x="1280" y="256" on="1"/>
        <pt x="1792" y="256" on="1"/>
        <pt x="1792" y="0" on="1"/>
        <pt x="1024" y="0" on="1"/>
        <pt x="1024" y="256" on="1"/>
        <pt x="770" y="256" on="1"/>
        <pt x="768" y="258" on="1"/>
        <pt x="768" y="768" on="1"/>
        <pt x="512" y="768" on="1"/>
        <pt x="512" y="256" on="1"/>
        <pt x="768" y="256" on="1"/>
        <pt x="768" y="0" on="1"/>
        <pt x="256" y="0" on="1"/>
        <pt x="256" y="256" on="1"/>
        <pt x="0" y="256" on="1"/>
        <pt x="0" y="768" on="1"/>
        <pt x="256" y="768" on="1"/>
        <pt x="256" y="1024" on="1"/>
        <pt x="512" y="1024" on="1"/>
        <pt x="512" y="1536" on="1"/>
        <pt x="0" y="1536" on="1"/>
        <pt x="0" y="1792" on="1"/>
        <pt x="768" y="1792" on="1"/>
        <pt x="768" y="1536" on="1"/>
        <pt x="1024" y="1536" on="1"/>
      </contour>
    </TTGlyph>
    <TTGlyph name="quoteright" xMin="0" yMin="0" xMax="1792" yMax="3072">
      <contour>
        <pt x="512" y="2048" on="1"/>
        <pt x="1024" y="2048" on="1"/>
        <pt x="1024" y="2816" on="1"/>
        <pt x="768" y="2816" on="1"/>
        <pt x="768" y="2560" on="1"/>
        <pt x="512" y="2560" on="1"/>
      </contour>
      <contour>
        <pt x="1024" y="1792" on="1"/>
        <pt x="512" y="1792" on="1"/>
        <pt x="512" y="0" on="1"/>
        <pt x="0" y="0" on="1"/>
        <pt x="0" y="2560" on="1"/>
        <pt x="256" y="2560" on="1"/>
        <pt x="256" y="2816" on="1"/>
        <pt x="512" y="2816" on="1"/>
        <pt x="512" y="3072" on="1"/>
        <pt x="1792" y="3072" on="1"/>
        <pt x="1792" y="2816" on="1"/>
        <pt x="1536" y="2816" on="1"/>
        <pt x="1536" y="2048" on="1"/>
        <pt x="1792" y="2048" on="1"/>
        <pt x="1792" y="1792" on="1"/>
        <pt x="1536" y="1792" on="1"/>
        <pt x="1536" y="256" on="1"/>
        <pt x="1792" y="256" on="1"/>
        <pt x="1792" y="0" on="1"/>
        <pt x="1024" y="0" on="1"/>
      </contour>
    </TTGlyph>
    <TTGlyph name="quotesinglbase" xMin="0" yMin="0" xMax="1792" yMax="2816">
      <contour>
        <pt x="512" y="1280" on="1"/>
        <pt x="1280" y="1280" on="1"/>
        <pt x="1280" y="1536" on="1"/>
        <pt x="512" y="1536" on="1"/>
      </contour>
      <contour>
        <pt x="768" y="2560" on="1"/>
        <pt x="1024" y="2560" on="1"/>
        <pt x="1024" y="2816" on="1"/>
        <pt x="1536" y="2816" on="1"/>
        <pt x="1536" y="2560" on="1"/>
        <pt x="1280" y="2560" on="1"/>
        <pt x="1280" y="2304" on="1"/>
        <pt x="1024" y="2304" on="1"/>
        <pt x="1024" y="2048" on="1"/>
        <pt x="512" y="2048" on="1"/>
        <pt x="512" y="2304" on="1"/>
        <pt x="768" y="2304" on="1"/>
      </contour>
      <contour>
        <pt x="256" y="1792" on="1"/>
        <pt x="1536" y="1792" on="1"/>
        <pt x="1536" y="1536" on="1"/>
        <pt x="1792" y="1536" on="1"/>
        <pt x="1792" y="1024" on="1"/>
        <pt x="512" y="1024" on="1"/>
        <pt x="512" y="256" on="1"/>
        <pt x="1280" y="256" on="1"/>
        <pt x="1280" y="512" on="1"/>
        <pt x="1792" y="512" on="1"/>
        <pt x="1792" y="256" on="1"/>
        <pt x="1536" y="256" on="1"/>
        <pt x="1536" y="0" on="1"/>
        <pt x="256" y="0" on="1"/>
        <pt x="256" y="256" on="1"/>
        <pt x="0" y="256" on="1"/>
        <pt x="0" y="1536" on="1"/>
        <pt x="256" y="1536" on="1"/>
      </contour>
    </TTGlyph>
    <TTGlyph name="quotesingle" xMin="256" yMin="1792" xMax="1024" yMax="2816">
      <contour>
        <pt x="256" y="2048" on="1"/>
        <pt x="512" y="2048" on="1"/>
        <pt x="512" y="2816" on="1"/>
        <pt x="1024" y="2816" on="1"/>
        <pt x="1024" y="2048" on="1"/>
        <pt x="768" y="2048" on="1"/>
        <pt x="768" y="1792" on="1"/>
        <pt x="256" y="1792" on="1"/>
      </contour>
    </TTGlyph>
    <TTGlyph name="r" xMin="0" yMin="0" xMax="1792" yMax="1792">
      <contour>
        <pt x="1024" y="1280" on="1"/>
        <pt x="768" y="1280" on="1"/>
        <pt x="768" y="256" on="1"/>
        <pt x="1024" y="256" on="1"/>
        <pt x="1024" y="0" on="1"/>
        <pt x="0" y="0" on="1"/>
        <pt x="0" y="256" on="1"/>
        <pt x="256" y="256" on="1"/>
        <pt x="256" y="1536" on="1"/>
        <pt x="0" y="1536" on="1"/>
        <pt x="0" y="1792" on="1"/>
        <pt x="512" y="1792" on="1"/>
        <pt x="512" y="1536" on="1"/>
        <pt x="768" y="1536" on="1"/>
        <pt x="768" y="1792" on="1"/>
        <pt x="1536" y="1792" on="1"/>
        <pt x="1536" y="1536" on="1"/>
        <pt x="1792" y="1536" on="1"/>
        <pt x="1792" y="1024" on="1"/>
        <pt x="1280" y="1024" on="1"/>
        <pt x="1280" y="1536" on="1"/>
        <pt x="1024" y="1536" on="1"/>
      </contour>
    </TTGlyph>
    <TTGlyph name="registered" xMin="0" yMin="512" xMax="1792" yMax="1792">
      <contour>
        <pt x="1024" y="1536" on="1"/>
        <pt x="1280" y="1536" on="1"/>
        <pt x="1280" y="1792" on="1"/>
        <pt x="1792" y="1792" on="1"/>
        <pt x="1792" y="1536" on="1"/>
        <pt x="1536" y="1536" on="1"/>
        <pt x="1536" y="1280" on="1"/>
        <pt x="1280" y="1280" on="1"/>
        <pt x="1280" y="1024" on="1"/>
        <pt x="1536" y="1024" on="1"/>
        <pt x="1536" y="768" on="1"/>
        <pt x="1792" y="768" on="1"/>
        <pt x="1792" y="512" on="1"/>
        <pt x="1280" y="512" on="1"/>
        <pt x="1280" y="768" on="1"/>
        <pt x="1026" y="768" on="1"/>
        <pt x="1024" y="770" on="1"/>
        <pt x="1024" y="1024" on="1"/>
        <pt x="770" y="1024" on="1"/>
        <pt x="768" y="1026" on="1"/>
        <pt x="768" y="1280" on="1"/>
        <pt x="1024" y="1280" on="1"/>
      </contour>
      <contour>
        <pt x="1024" y="1538" on="1"/>
        <pt x="1022" y="1536" on="1"/>
        <pt x="768" y="1536" on="1"/>
        <pt x="768" y="1280" on="1"/>
        <pt x="512" y="1280" on="1"/>
        <pt x="512" y="1024" on="1"/>
        <pt x="768" y="1024" on="1"/>
        <pt x="768" y="768" on="1"/>
        <pt x="1024" y="768" on="1"/>
        <pt x="1024" y="512" on="1"/>
        <pt x="512" y="512" on="1"/>
        <pt x="512" y="768" on="1"/>
        <pt x="256" y="768" on="1"/>
        <pt x="256" y="1024" on="1"/>
        <pt x="0" y="1024" on="1"/>
        <pt x="0" y="1280" on="1"/>
        <pt x="256" y="1280" on="1"/>
        <pt x="256" y="1536" on="1"/>
        <pt x="512" y="1536" on="1"/>
        <pt x="512" y="1792" on="1"/>
        <pt x="1024" y="1792" on="1"/>
      </contour>
    </TTGlyph>
    <TTGlyph name="s" xMin="0" yMin="0" xMax="1792" yMax="1792">
      <contour>
        <pt x="1280" y="1536" on="1"/>
        <pt x="512" y="1536" on="1"/>
        <pt x="512" y="1280" on="1"/>
        <pt x="768" y="1280" on="1"/>
        <pt x="768" y="1024" on="1"/>
        <pt x="1280" y="1024" on="1"/>
        <pt x="1280" y="768" on="1"/>
        <pt x="1536" y="768" on="1"/>
        <pt x="1536" y="512" on="1"/>
        <pt x="1792" y="512" on="1"/>
        <pt x="1792" y="256" on="1"/>
        <pt x="1536" y="256" on="1"/>
        <pt x="1536" y="0" on="1"/>
        <pt x="256" y="0" on="1"/>
        <pt x="256" y="256" on="1"/>
        <pt x="0" y="256" on="1"/>
        <pt x="0" y="512" on="1"/>
        <pt x="512" y="512" on="1"/>
        <pt x="512" y="256" on="1"/>
        <pt x="1280" y="256" on="1"/>
        <pt x="1280" y="512" on="1"/>
        <pt x="1024" y="512" on="1"/>
        <pt x="1024" y="768" on="1"/>
        <pt x="512" y="768" on="1"/>
        <pt x="512" y="1024" on="1"/>
        <pt x="256" y="1024" on="1"/>
        <pt x="256" y="1280" on="1"/>
        <pt x="0" y="1280" on="1"/>
        <pt x="0" y="1536" on="1"/>
        <pt x="256" y="1536" on="1"/>
        <pt x="256" y="1792" on="1"/>
        <pt x="1536" y="1792" on="1"/>
        <pt x="1536" y="1536" on="1"/>
        <pt x="1792" y="1536" on="1"/>
        <pt x="1792" y="1280" on="1"/>
        <pt x="1280" y="1280" on="1"/>
      </contour>
    </TTGlyph>
    <TTGlyph name="scaron" xMin="0" yMin="0" xMax="1792" yMax="2816">
      <contour>
        <pt x="0" y="2816" on="1"/>
        <pt x="512" y="2816" on="1"/>
        <pt x="512" y="2560" on="1"/>
        <pt x="0" y="2560" on="1"/>
      </contour>
      <contour>
        <pt x="1280" y="2816" on="1"/>
        <pt x="1792" y="2816" on="1"/>
        <pt x="1792" y="2560" on="1"/>
        <pt x="1280" y="2560" on="1"/>
      </contour>
      <contour>
        <pt x="0" y="2304" on="1"/>
        <pt x="512" y="2304" on="1"/>
        <pt x="512" y="256" on="1"/>
        <pt x="1280" y="256" on="1"/>
        <pt x="1280" y="2304" on="1"/>
        <pt x="1792" y="2304" on="1"/>
        <pt x="1792" y="256" on="1"/>
        <pt x="1536" y="256" on="1"/>
        <pt x="1536" y="0" on="1"/>
        <pt x="256" y="0" on="1"/>
        <pt x="256" y="256" on="1"/>
        <pt x="0" y="256" on="1"/>
      </contour>
    </TTGlyph>
    <TTGlyph name="section" xMin="256" yMin="1024" xMax="1536" yMax="2560">
      <contour>
        <pt x="1024" y="2304" on="1"/>
        <pt x="768" y="2304" on="1"/>
        <pt x="768" y="1792" on="1"/>
        <pt x="1024" y="1792" on="1"/>
      </contour>
      <contour>
        <pt x="256" y="1280" on="1"/>
        <pt x="1536" y="1280" on="1"/>
        <pt x="1536" y="1024" on="1"/>
        <pt x="256" y="1024" on="1"/>
      </contour>
      <contour>
        <pt x="512" y="1792" on="1"/>
        <pt x="256" y="1792" on="1"/>
        <pt x="256" y="2304" on="1"/>
        <pt x="512" y="2304" on="1"/>
        <pt x="512" y="2560" on="1"/>
        <pt x="1280" y="2560" on="1"/>
        <pt x="1280" y="2304" on="1"/>
        <pt x="1536" y="2304" on="1"/>
        <pt x="1536" y="1792" on="1"/>
        <pt x="1280" y="1792" on="1"/>
        <pt x="1280" y="1536" on="1"/>
        <pt x="512" y="1536" on="1"/>
      </contour>
    </TTGlyph>
    <TTGlyph name="semicolon" xMin="512" yMin="0" xMax="1280" yMax="2048">
      <contour>
        <pt x="768" y="2048" on="1"/>
        <pt x="1280" y="2048" on="1"/>
        <pt x="1280" y="1536" on="1"/>
        <pt x="768" y="1536" on="1"/>
      </contour>
      <contour>
        <pt x="768" y="768" on="1"/>
        <pt x="1280" y="768" on="1"/>
        <pt x="1280" y="256" on="1"/>
        <pt x="1024" y="256" on="1"/>
        <pt x="1024" y="0" on="1"/>
        <pt x="512" y="0" on="1"/>
        <pt x="512" y="256" on="1"/>
        <pt x="768" y="256" on="1"/>
      </contour>
    </TTGlyph>
    <TTGlyph name="seven" xMin="0" yMin="0" xMax="1792" yMax="2560">
      <contour>
        <pt x="512" y="1024" on="1"/>
        <pt x="768" y="1024" on="1"/>
        <pt x="768" y="1280" on="1"/>
        <pt x="1024" y="1280" on="1"/>
        <pt x="1024" y="1536" on="1"/>
        <pt x="1280" y="1536" on="1"/>
        <pt x="1280" y="2304" on="1"/>
        <pt x="512" y="2304" on="1"/>
        <pt x="512" y="2048" on="1"/>
        <pt x="0" y="2048" on="1"/>
        <pt x="0" y="2560" on="1"/>
        <pt x="1792" y="2560" on="1"/>
        <pt x="1792" y="1536" on="1"/>
        <pt x="1536" y="1536" on="1"/>
        <pt x="1536" y="1280" on="1"/>
        <pt x="1280" y="1280" on="1"/>
        <pt x="1280" y="1024" on="1"/>
        <pt x="1024" y="1024" on="1"/>
        <pt x="1024" y="0" on="1"/>
        <pt x="512" y="0" on="1"/>
      </contour>
    </TTGlyph>
    <TTGlyph name="six" xMin="0" yMin="0" xMax="1792" yMax="2560">
      <contour>
        <pt x="1280" y="1280" on="1"/>
        <pt x="512" y="1280" on="1"/>
        <pt x="512" y="256" on="1"/>
        <pt x="1280" y="256" on="1"/>
      </contour>
      <contour>
        <pt x="256" y="2304" on="1"/>
        <pt x="512" y="2304" on="1"/>
        <pt x="512" y="2560" on="1"/>
        <pt x="1280" y="2560" on="1"/>
        <pt x="1280" y="2304" on="1"/>
        <pt x="768" y="2304" on="1"/>
        <pt x="768" y="2048" on="1"/>
        <pt x="512" y="2048" on="1"/>
        <pt x="512" y="1536" on="1"/>
        <pt x="1536" y="1536" on="1"/>
        <pt x="1536" y="1280" on="1"/>
        <pt x="1792" y="1280" on="1"/>
        <pt x="1792" y="256" on="1"/>
        <pt x="1536" y="256" on="1"/>
        <pt x="1536" y="0" on="1"/>
        <pt x="256" y="0" on="1"/>
        <pt x="256" y="256" on="1"/>
        <pt x="0" y="256" on="1"/>
        <pt x="0" y="2048" on="1"/>
        <pt x="256" y="2048" on="1"/>
      </contour>
    </TTGlyph>
    <TTGlyph name="slash" xMin="0" yMin="0" xMax="1792" yMax="2048">
      <contour>
        <pt x="1536" y="1280" on="1"/>
        <pt x="1280" y="1280" on="1"/>
        <pt x="1280" y="1024" on="1"/>
        <pt x="1024" y="1024" on="1"/>
        <pt x="1024" y="768" on="1"/>
        <pt x="768" y="768" on="1"/>
        <pt x="768" y="512" on="1"/>
        <pt x="512" y="512" on="1"/>
        <pt x="512" y="256" on="1"/>
        <pt x="256" y="256" on="1"/>
        <pt x="256" y="0" on="1"/>
        <pt x="0" y="0" on="1"/>
        <pt x="0" y="512" on="1"/>
        <pt x="256" y="512" on="1"/>
        <pt x="256" y="768" on="1"/>
        <pt x="512" y="768" on="1"/>
        <pt x="512" y="1024" on="1"/>
        <pt x="768" y="1024" on="1"/>
        <pt x="768" y="1280" on="1"/>
        <pt x="1024" y="1280" on="1"/>
        <pt x="1024" y="1536" on="1"/>
        <pt x="1280" y="1536" on="1"/>
        <pt x="1280" y="1792" on="1"/>
        <pt x="1536" y="1792" on="1"/>
        <pt x="1536" y="2048" on="1"/>
        <pt x="1792" y="2048" on="1"/>
        <pt x="1792" y="1536" on="1"/>
        <pt x="1536" y="1536" on="1"/>
      </contour>
    </TTGlyph>
    <TTGlyph name="sterling" xMin="0" yMin="0" xMax="1792" yMax="2816">
      <contour>
        <pt x="256" y="2304" on="1"/>
        <pt x="512" y="2304" on="1"/>
        <pt x="512" y="2560" on="1"/>
        <pt x="768" y="2560" on="1"/>
        <pt x="768" y="2816" on="1"/>
        <pt x="1280" y="2816" on="1"/>
        <pt x="1280" y="2560" on="1"/>
        <pt x="1024" y="2560" on="1"/>
        <pt x="1024" y="2304" on="1"/>
        <pt x="768" y="2304" on="1"/>
        <pt x="768" y="2048" on="1"/>
        <pt x="256" y="2048" on="1"/>
      </contour>
      <contour>
        <pt x="1024" y="1792" on="1"/>
        <pt x="1536" y="1792" on="1"/>
        <pt x="1536" y="256" on="1"/>
        <pt x="1792" y="256" on="1"/>
        <pt x="1792" y="0" on="1"/>
        <pt x="1280" y="0" on="1"/>
        <pt x="1280" y="256" on="1"/>
        <pt x="1024" y="256" on="1"/>
      </contour>
      <contour>
        <pt x="0" y="1792" on="1"/>
        <pt x="512" y="1792" on="1"/>
        <pt x="512" y="256" on="1"/>
        <pt x="1024" y="256" on="1"/>
        <pt x="1024" y="0" on="1"/>
        <pt x="256" y="0" on="1"/>
        <pt x="256" y="256" on="1"/>
        <pt x="0" y="256" on="1"/>
      </contour>
    </TTGlyph>
    <TTGlyph name="t" xMin="0" yMin="0" xMax="1792" yMax="2560">
      <contour>
        <pt x="0" y="1792" on="1"/>
        <pt x="512" y="1792" on="1"/>
        <pt x="512" y="2304" on="1"/>
        <pt x="768" y="2304" on="1"/>
        <pt x="768" y="2560" on="1"/>
        <pt x="1024" y="2560" on="1"/>
        <pt x="1024" y="1792" on="1"/>
        <pt x="1536" y="1792" on="1"/>
        <pt x="1536" y="1536" on="1"/>
        <pt x="1024" y="1536" on="1"/>
        <pt x="1024" y="256" on="1"/>
        <pt x="1280" y="256" on="1"/>
        <pt x="1280" y="512" on="1"/>
        <pt x="1792" y="512" on="1"/>
        <pt x="1792" y="256" on="1"/>
        <pt x="1536" y="256" on="1"/>
        <pt x="1536" y="0" on="1"/>
        <pt x="768" y="0" on="1"/>
        <pt x="768" y="256" on="1"/>
        <pt x="512" y="256" on="1"/>
        <pt x="512" y="1536" on="1"/>
        <pt x="0" y="1536" on="1"/>
      </contour>
    </TTGlyph>
    <TTGlyph name="three" xMin="0" yMin="0" xMax="1792" yMax="2560">
      <contour>
        <pt x="512" y="1536" on="1"/>
        <pt x="1280" y="1536" on="1"/>
        <pt x="1280" y="2304" on="1"/>
        <pt x="512" y="2304" on="1"/>
        <pt x="512" y="2048" on="1"/>
        <pt x="0" y="2048" on="1"/>
        <pt x="0" y="2304" on="1"/>
        <pt x="256" y="2304" on="1"/>
        <pt x="256" y="2560" on="1"/>
        <pt x="1536" y="2560" on="1"/>
        <pt x="1536" y="2304" on="1"/>
        <pt x="1792" y="2304" on="1"/>
        <pt x="1792" y="1536" on="1"/>
        <pt x="1536" y="1536" on="1"/>
        <pt x="1536" y="1280" on="1"/>
        <pt x="1792" y="1280" on="1"/>
        <pt x="1792" y="256" on="1"/>
        <pt x="1536" y="256" on="1"/>
        <pt x="1536" y="0" on="1"/>
        <pt x="256" y="0" on="1"/>
        <pt x="256" y="256" on="1"/>
        <pt x="0" y="256" on="1"/>
        <pt x="0" y="512" on="1"/>
        <pt x="512" y="512" on="1"/>
        <pt x="512" y="256" on="1"/>
        <pt x="1280" y="256" on="1"/>
        <pt x="1280" y="1280" on="1"/>
        <pt x="512" y="1280" on="1"/>
      </contour>
    </TTGlyph>
    <TTGlyph name="threequarters" xMin="0" yMin="1024" xMax="1280" yMax="3072">
      <contour>
        <pt x="0" y="1792" on="1"/>
        <pt x="768" y="1792" on="1"/>
        <pt x="768" y="3072" on="1"/>
        <pt x="1280" y="3072" on="1"/>
        <pt x="1280" y="1024" on="1"/>
        <pt x="0" y="1024" on="1"/>
        <pt x="0" y="1280" on="1"/>
        <pt x="768" y="1280" on="1"/>
        <pt x="768" y="1536" on="1"/>
        <pt x="0" y="1536" on="1"/>
      </contour>
    </TTGlyph>
    <TTGlyph name="threesuperior" xMin="768" yMin="-1024" xMax="1280" yMax="3072">
      <contour>
        <pt x="768" y="3072" on="1"/>
        <pt x="1280" y="3072" on="1"/>
        <pt x="1280" y="-1024" on="1"/>
        <pt x="768" y="-1024" on="1"/>
      </contour>
    </TTGlyph>
    <TTGlyph name="tilde" xMin="0" yMin="-768" xMax="1792" yMax="2560">
      <contour>
        <pt x="0" y="2560" on="1"/>
        <pt x="512" y="2560" on="1"/>
        <pt x="512" y="2304" on="1"/>
        <pt x="0" y="2304" on="1"/>
      </contour>
      <contour>
        <pt x="1280" y="2560" on="1"/>
        <pt x="1792" y="2560" on="1"/>
        <pt x="1792" y="2304" on="1"/>
        <pt x="1280" y="2304" on="1"/>
      </contour>
      <contour>
        <pt x="0" y="-512" on="1"/>
        <pt x="1024" y="-512" on="1"/>
        <pt x="1024" y="-256" on="1"/>
        <pt x="1280" y="-256" on="1"/>
        <pt x="1280" y="0" on="1"/>
        <pt x="256" y="0" on="1"/>
        <pt x="256" y="256" on="1"/>
        <pt x="0" y="256" on="1"/>
        <pt x="0" y="1792" on="1"/>
        <pt x="512" y="1792" on="1"/>
        <pt x="512" y="256" on="1"/>
        <pt x="1280" y="256" on="1"/>
        <pt x="1280" y="1792" on="1"/>
        <pt x="1792" y="1792" on="1"/>
        <pt x="1792" y="-256" on="1"/>
        <pt x="1536" y="-256" on="1"/>
        <pt x="1536" y="-512" on="1"/>
        <pt x="1280" y="-512" on="1"/>
        <pt x="1280" y="-768" on="1"/>
        <pt x="0" y="-768" on="1"/>
      </contour>
    </TTGlyph>
    <TTGlyph name="trademark" xMin="0" yMin="0" xMax="1792" yMax="2816">
      <contour>
        <pt x="1280" y="2816" on="1"/>
        <pt x="1792" y="2816" on="1"/>
        <pt x="1792" y="2560" on="1"/>
        <pt x="1280" y="2560" on="1"/>
      </contour>
      <contour>
        <pt x="0" y="2816" on="1"/>
        <pt x="512" y="2816" on="1"/>
        <pt x="512" y="2560" on="1"/>
        <pt x="0" y="2560" on="1"/>
      </contour>
      <contour>
        <pt x="1280" y="2048" on="1"/>
        <pt x="512" y="2048" on="1"/>
        <pt x="512" y="256" on="1"/>
        <pt x="1280" y="256" on="1"/>
      </contour>
      <contour>
        <pt x="0" y="2048" on="1"/>
        <pt x="256" y="2048" on="1"/>
        <pt x="256" y="2304" on="1"/>
        <pt x="1536" y="2304" on="1"/>
        <pt x="1536" y="2048" on="1"/>
        <pt x="1792" y="2048" on="1"/>
        <pt x="1792" y="256" on="1"/>
        <pt x="1536" y="256" on="1"/>
        <pt x="1536" y="0" on="1"/>
        <pt x="256" y="0" on="1"/>
        <pt x="256" y="256" on="1"/>
        <pt x="0" y="256" on="1"/>
      </contour>
    </TTGlyph>
</ttFont>
